<?xml version="1.0" encoding="UTF-8"?>
<!DOCTYPE svg PUBLIC "-//W3C//DTD SVG 1.1//EN" "http://www.w3.org/Graphics/SVG/1.1/DTD/svg11.dtd">
<svg version="1.2" width="180.7mm" height="180.7mm" viewBox="0 0 18070 18070" preserveAspectRatio="xMidYMid" fill-rule="evenodd" stroke-width="28.222" stroke-linejoin="round" xmlns="http://www.w3.org/2000/svg" xmlns:ooo="http://xml.openoffice.org/svg/export" xmlns:xlink="http://www.w3.org/1999/xlink" xmlns:presentation="http://sun.com/xmlns/staroffice/presentation" xmlns:smil="http://www.w3.org/2001/SMIL20/" xmlns:anim="urn:oasis:names:tc:opendocument:xmlns:animation:1.0" xml:space="preserve">
 <defs class="ClipPathGroup">
  <clipPath id="presentation_clip_path" clipPathUnits="userSpaceOnUse">
   <rect x="0" y="0" width="18070" height="18070"/>
  </clipPath>
  <clipPath id="presentation_clip_path_shrink" clipPathUnits="userSpaceOnUse">
   <rect x="18" y="18" width="18034" height="18034"/>
  </clipPath>
 </defs>
 <defs class="TextShapeIndex">
  <g ooo:slide="id1" ooo:id-list="id3 id4"/>
 </defs>
 <defs class="EmbeddedBulletChars">
  <g id="bullet-char-template-57356" transform="scale(0.00048828125,-0.00048828125)">
   <path d="M 580,1141 L 1163,571 580,0 -4,571 580,1141 Z"/>
  </g>
  <g id="bullet-char-template-57354" transform="scale(0.00048828125,-0.00048828125)">
   <path d="M 8,1128 L 1137,1128 1137,0 8,0 8,1128 Z"/>
  </g>
  <g id="bullet-char-template-10146" transform="scale(0.00048828125,-0.00048828125)">
   <path d="M 174,0 L 602,739 174,1481 1456,739 174,0 Z M 1358,739 L 309,1346 659,739 1358,739 Z"/>
  </g>
  <g id="bullet-char-template-10132" transform="scale(0.00048828125,-0.00048828125)">
   <path d="M 2015,739 L 1276,0 717,0 1260,543 174,543 174,936 1260,936 717,1481 1274,1481 2015,739 Z"/>
  </g>
  <g id="bullet-char-template-10007" transform="scale(0.00048828125,-0.00048828125)">
   <path d="M 0,-2 C -7,14 -16,27 -25,37 L 356,567 C 262,823 215,952 215,954 215,979 228,992 255,992 264,992 276,990 289,987 310,991 331,999 354,1012 L 381,999 492,748 772,1049 836,1024 860,1049 C 881,1039 901,1025 922,1006 886,937 835,863 770,784 769,783 710,716 594,584 L 774,223 C 774,196 753,168 711,139 L 727,119 C 717,90 699,76 672,76 641,76 570,178 457,381 L 164,-76 C 142,-110 111,-127 72,-127 30,-127 9,-110 8,-76 1,-67 -2,-52 -2,-32 -2,-23 -1,-13 0,-2 Z"/>
  </g>
  <g id="bullet-char-template-10004" transform="scale(0.00048828125,-0.00048828125)">
   <path d="M 285,-33 C 182,-33 111,30 74,156 52,228 41,333 41,471 41,549 55,616 82,672 116,743 169,778 240,778 293,778 328,747 346,684 L 369,508 C 377,444 397,411 428,410 L 1163,1116 C 1174,1127 1196,1133 1229,1133 1271,1133 1292,1118 1292,1087 L 1292,965 C 1292,929 1282,901 1262,881 L 442,47 C 390,-6 338,-33 285,-33 Z"/>
  </g>
  <g id="bullet-char-template-9679" transform="scale(0.00048828125,-0.00048828125)">
   <path d="M 813,0 C 632,0 489,54 383,161 276,268 223,411 223,592 223,773 276,916 383,1023 489,1130 632,1184 813,1184 992,1184 1136,1130 1245,1023 1353,916 1407,772 1407,592 1407,412 1353,268 1245,161 1136,54 992,0 813,0 Z"/>
  </g>
  <g id="bullet-char-template-8226" transform="scale(0.00048828125,-0.00048828125)">
   <path d="M 346,457 C 273,457 209,483 155,535 101,586 74,649 74,723 74,796 101,859 155,911 209,963 273,989 346,989 419,989 480,963 531,910 582,859 608,796 608,723 608,648 583,586 532,535 482,483 420,457 346,457 Z"/>
  </g>
  <g id="bullet-char-template-8211" transform="scale(0.00048828125,-0.00048828125)">
   <path d="M -4,459 L 1135,459 1135,606 -4,606 -4,459 Z"/>
  </g>
  <g id="bullet-char-template-61548" transform="scale(0.00048828125,-0.00048828125)">
   <path d="M 173,740 C 173,903 231,1043 346,1159 462,1274 601,1332 765,1332 928,1332 1067,1274 1183,1159 1299,1043 1357,903 1357,740 1357,577 1299,437 1183,322 1067,206 928,148 765,148 601,148 462,206 346,322 231,437 173,577 173,740 Z"/>
  </g>
 </defs>
 <defs class="TextEmbeddedBitmaps"/>
 <g>
  <g id="id2" class="Master_Slide">
   <g id="bg-id2" class="Background"/>
   <g id="bo-id2" class="BackgroundObjects"/>
  </g>
 </g>
 <g class="SlideGroup">
  <g>
   <g id="container-id1">
    <g id="id1" class="Slide" clip-path="url(#presentation_clip_path)">
     <g class="Page">
      <g class="Graphic">
       <g id="id3">
        <rect class="BoundingBox" stroke="none" fill="none" x="2966" y="766" width="16487" height="16487"/>
        <path fill="rgb(255,112,88)" stroke="none" d="M 11209,15522 L 6204,15522 6204,4039 16213,4039 16213,15522 11209,15522 Z"/>
        <path fill="rgb(242,242,242)" stroke="none" d="M 15288,782 L 7130,782 C 6924,782 6753,954 6753,1159 6753,1365 6924,1537 7130,1537 L 15288,1537 C 15494,1537 15665,1365 15665,1159 15665,954 15494,782 15288,782 L 15288,782 Z"/>
        <path fill="rgb(226,226,226)" stroke="none" d="M 15288,2085 L 15048,1571 7370,1571 7130,2085 6204,4039 16214,4039 15288,2085 Z"/>
        <path fill="rgb(205,214,224)" stroke="none" d="M 15288,2085 L 15288,2085 7130,2085 7130,2085 7370,1571 15048,1571 15288,2085 15288,2085 Z"/>
        <path fill="rgb(255,255,255)" stroke="none" d="M 16214,4621 L 16214,5478 C 12614,6884 9701,10346 6204,12094 L 6204,11203 C 9667,9352 12580,5924 16214,4621 L 16214,4621 Z"/>
        <path fill="rgb(255,255,255)" stroke="none" d="M 16214,6027 L 16214,6918 C 12683,8529 9769,11991 6204,13534 L 6204,12642 C 9735,11031 12649,7569 16214,6027 L 16214,6027 Z"/>
        <path fill="rgb(255,255,255)" stroke="none" d="M 16214,7501 L 16214,8392 C 12751,10209 9838,13636 6205,14973 L 6205,14116 C 9804,12677 12717,9215 16214,7501 L 16214,7501 Z"/>
        <path fill="rgb(226,226,226)" stroke="none" d="M 6204,15522 L 6890,17236 15528,17236 16214,15522 6204,15522 Z"/>
       </g>
      </g>
      <g class="Graphic">
       <g id="id4">
        <rect class="BoundingBox" stroke="none" fill="none" x="1552" y="4152" width="7101" height="7101"/>
        <path fill="rgb(255,255,255)" stroke="none" d="M 5279,4395 C 3685,4395 2386,5871 2386,7702 2386,9533 3685,11009 5279,11009 6378,11009 7322,10312 7818,9285 L 7818,6119 C 7322,5092 6378,4395 5279,4395 Z"/>
        <path fill="rgb(0,150,230)" stroke="none" d="M 5279,11127 C 3614,11127 2268,9592 2268,7702 2268,5812 3614,4277 5279,4277 6378,4277 7393,4962 7925,6060 L 7936,6084 7936,9308 7925,9332 C 7393,10442 6378,11127 5279,11127 L 5279,11127 Z M 5279,4513 C 3744,4513 2504,5942 2504,7702 2504,9462 3744,10891 5279,10891 6283,10891 7204,10265 7700,9261 L 7700,6143 C 7204,5139 6283,4513 5279,4513 L 5279,4513 Z"/>
        <path fill="rgb(255,255,255)" stroke="none" d="M 2386,7702 C 2386,6013 3496,4620 4925,4419 4807,4407 4689,4395 4571,4395 2976,4395 1677,5871 1677,7702 1677,9533 2976,11009 4571,11009 4689,11009 4807,10997 4925,10985 3496,10784 2386,9391 2386,7702 L 2386,7702 2386,7702 Z"/>
        <path fill="rgb(0,150,230)" stroke="none" d="M 4571,11127 C 2905,11127 1559,9592 1559,7702 1559,5812 2905,4277 4571,4277 4689,4277 4807,4289 4937,4301 L 4937,4537 C 3555,4726 2504,6096 2504,7702 2504,9308 3555,10678 4937,10867 L 4937,11103 C 4807,11115 4689,11127 4571,11127 L 4571,11127 Z M 4075,4560 C 2775,4832 1795,6143 1795,7702 1795,9261 2775,10572 4075,10844 3000,10300 2268,9084 2268,7702 2268,6320 3000,5104 4075,4560 L 4075,4560 Z"/>
        <path fill="rgb(0,150,230)" stroke="none" d="M 3626,10536 L 2917,10536 C 2846,10536 2799,10489 2799,10418 2799,10348 2846,10300 2917,10300 L 3626,10300 C 3697,10300 3744,10348 3744,10418 3744,10489 3697,10536 3626,10536 L 3626,10536 Z M 3059,9946 L 2350,9946 C 2279,9946 2232,9899 2232,9828 2232,9757 2279,9710 2350,9710 L 3059,9710 C 3130,9710 3177,9757 3177,9828 3177,9899 3130,9946 3059,9946 L 3059,9946 Z M 2669,9237 L 1960,9237 C 1890,9237 1842,9190 1842,9119 1842,9048 1890,9001 1960,9001 L 2669,9001 C 2740,9001 2787,9048 2787,9119 2787,9190 2728,9237 2669,9237 L 2669,9237 Z M 2480,8647 L 1772,8647 C 1701,8647 1653,8600 1653,8529 1653,8458 1701,8411 1772,8411 L 2480,8411 C 2551,8411 2598,8458 2598,8529 2598,8600 2539,8647 2480,8647 L 2480,8647 Z M 2386,8056 L 1689,8056 C 1618,8056 1571,8009 1571,7938 1571,7867 1618,7820 1689,7820 L 2386,7820 C 2457,7820 2504,7867 2504,7938 2504,8009 2456,8056 2386,8056 L 2386,8056 Z M 2397,7466 L 1689,7466 C 1618,7466 1571,7419 1571,7348 1571,7277 1618,7230 1689,7230 L 2397,7230 C 2468,7230 2516,7277 2516,7348 2516,7419 2468,7466 2397,7466 L 2397,7466 Z M 2504,6875 L 1795,6875 C 1724,6875 1677,6828 1677,6757 1677,6686 1724,6639 1795,6639 L 2504,6639 C 2575,6639 2622,6686 2622,6757 2622,6828 2575,6875 2504,6875 L 2504,6875 Z M 2716,6285 L 2008,6285 C 1937,6285 1890,6238 1890,6167 1890,6096 1937,6049 2008,6049 L 2716,6049 C 2787,6049 2834,6096 2834,6167 2834,6238 2775,6285 2716,6285 L 2716,6285 Z M 3153,5576 L 2445,5576 C 2374,5576 2327,5529 2327,5458 2327,5387 2374,5340 2445,5340 L 3153,5340 C 3224,5340 3271,5387 3271,5458 3271,5529 3224,5576 3153,5576 L 3153,5576 Z M 3779,4986 L 3082,4986 C 3012,4986 2964,4938 2964,4868 2964,4797 3012,4749 3082,4749 L 3779,4749 C 3850,4749 3897,4797 3897,4868 3897,4938 3850,4986 3779,4986 L 3779,4986 Z"/>
        <path fill="rgb(0,150,230)" stroke="none" d="M 5291,10359 C 5196,10359 5114,10359 5031,10348 4972,10336 4925,10277 4925,10218 4937,10159 4996,10111 5055,10111 5126,10123 5196,10123 5279,10123 5350,10123 5397,10170 5397,10241 5397,10312 5350,10359 5291,10359 Z M 5976,10229 C 5929,10229 5881,10206 5870,10159 5846,10099 5881,10029 5941,10005 6011,9981 6082,9946 6141,9911 6200,9875 6271,9899 6295,9958 6330,10017 6307,10088 6248,10111 6177,10147 6094,10182 6023,10206 6000,10229 5988,10229 5976,10229 Z M 4382,10147 C 4358,10147 4346,10147 4323,10135 4252,10099 4181,10052 4110,10017 4051,9981 4039,9911 4075,9851 4110,9792 4181,9781 4240,9816 4299,9851 4370,9899 4429,9922 4488,9946 4511,10029 4476,10076 4464,10123 4417,10147 4382,10147 Z M 6755,9722 C 6720,9722 6696,9710 6673,9686 6626,9639 6626,9568 6673,9521 6720,9474 6779,9414 6826,9355 6862,9308 6944,9296 6992,9344 7039,9379 7051,9462 7003,9509 6956,9568 6897,9639 6838,9686 6814,9710 6779,9722 6755,9722 Z M 3661,9556 C 3626,9556 3590,9544 3567,9509 3519,9450 3460,9379 3425,9308 3390,9249 3401,9178 3460,9143 3519,9107 3590,9119 3626,9178 3673,9237 3708,9296 3756,9355 3803,9403 3791,9485 3744,9521 3708,9544 3685,9556 3661,9556 Z M 7275,8954 C 7263,8954 7240,8954 7228,8942 7169,8918 7145,8848 7169,8789 7192,8718 7228,8647 7251,8576 7275,8517 7334,8481 7405,8505 7464,8529 7499,8588 7476,8659 7452,8741 7417,8812 7393,8883 7358,8930 7322,8954 7275,8954 Z M 3201,8741 C 3153,8741 3106,8706 3094,8659 3071,8588 3047,8505 3023,8422 3012,8363 3047,8293 3106,8281 3165,8269 3236,8304 3248,8363 3271,8434 3283,8505 3307,8576 3330,8635 3295,8706 3236,8729 3236,8741 3224,8741 3201,8741 Z M 7499,8045 C 7429,8045 7381,7985 7381,7915 7381,7844 7393,7773 7393,7702 7393,7631 7440,7584 7511,7584 7582,7584 7629,7631 7629,7702 7629,7785 7629,7856 7618,7938 7606,7997 7559,8045 7499,8045 Z M 3059,7820 C 2988,7820 2941,7773 2941,7702 2941,7619 2941,7537 2953,7466 2953,7395 3012,7348 3082,7359 3153,7359 3201,7419 3189,7489 3189,7560 3177,7643 3177,7714 3177,7773 3118,7820 3059,7820 Z M 7417,7123 C 7370,7123 7311,7088 7299,7029 7275,6958 7263,6887 7240,6816 7216,6757 7251,6686 7311,6663 7370,6639 7440,6675 7464,6734 7488,6804 7511,6887 7535,6970 7547,7029 7511,7100 7452,7111 7440,7111 7429,7123 7417,7123 Z M 3201,6899 C 3189,6899 3177,6899 3165,6887 3106,6863 3071,6804 3094,6734 3118,6663 3153,6580 3177,6509 3201,6450 3271,6427 3330,6450 3390,6474 3413,6545 3390,6604 3354,6675 3330,6745 3307,6816 3295,6875 3248,6899 3201,6899 Z M 7039,6261 C 7003,6261 6968,6238 6944,6214 6897,6155 6862,6096 6814,6037 6767,5990 6779,5907 6826,5871 6874,5824 6956,5836 6992,5883 7039,5942 7098,6013 7133,6084 7169,6143 7157,6214 7098,6249 7086,6261 7062,6261 7039,6261 Z M 3649,6084 C 3626,6084 3602,6072 3578,6060 3531,6025 3519,5942 3567,5895 3614,5836 3673,5765 3732,5718 3779,5671 3850,5671 3897,5718 3945,5765 3945,5836 3897,5883 3850,5930 3791,5990 3744,6049 3720,6072 3685,6084 3649,6084 Z M 6378,5612 C 6354,5612 6330,5600 6318,5588 6259,5553 6189,5505 6129,5482 6070,5458 6047,5375 6082,5328 6106,5269 6177,5245 6236,5281 6307,5316 6378,5364 6448,5399 6507,5434 6519,5505 6484,5564 6460,5588 6413,5612 6378,5612 Z M 4370,5493 C 4323,5493 4287,5470 4263,5434 4228,5375 4252,5305 4311,5281 4382,5245 4464,5210 4535,5186 4594,5163 4665,5198 4689,5257 4712,5316 4677,5387 4618,5411 4547,5434 4476,5470 4417,5505 4405,5493 4393,5493 4370,5493 Z M 5504,5293 L 5492,5293 C 5421,5281 5350,5281 5279,5281 5208,5281 5161,5234 5161,5163 5161,5092 5208,5045 5279,5045 5374,5045 5445,5045 5527,5056 5586,5068 5633,5127 5633,5186 5622,5245 5563,5293 5504,5293 Z"/>
        <path fill="rgb(255,255,255)" stroke="none" d="M 7972,4277 L 6944,4277 C 6696,4277 6496,4442 6425,4667 7015,4962 7511,5470 7818,6119 L 7818,9296 C 7511,9934 7015,10454 6425,10749 6496,10973 6696,11139 6944,11139 L 7972,11139 C 8279,11139 8527,10891 8527,10584 L 8527,4832 C 8527,4525 8279,4277 7972,4277 L 7972,4277 7972,4277 Z"/>
        <path fill="rgb(0,150,230)" stroke="none" d="M 7972,11245 L 6944,11245 C 6649,11245 6389,11056 6307,10773 L 6283,10678 6378,10631 C 6933,10359 7405,9863 7700,9261 L 7700,6143 C 7405,5529 6933,5045 6378,4773 L 6283,4726 6318,4631 C 6401,4348 6661,4159 6956,4159 L 7984,4159 C 8350,4159 8645,4454 8645,4832 L 8645,10584 C 8645,10950 8350,11245 7972,11245 L 7972,11245 Z M 6578,10796 C 6649,10926 6791,11009 6944,11009 L 7972,11009 C 8208,11009 8409,10820 8409,10572 L 8409,4832 C 8409,4596 8220,4395 7972,4395 L 6944,4395 C 6791,4395 6649,4478 6578,4608 7145,4915 7618,5434 7925,6060 L 7936,6084 7936,9308 7925,9332 C 7618,9970 7145,10477 6578,10796 L 6578,10796 Z"/>
        <path fill="rgb(208,232,249)" stroke="none" d="M 7110,10265 L 7110,10489 C 7110,10584 7181,10655 7275,10655 L 7653,10655 C 7748,10655 7818,10584 7818,10489 L 7818,9285 C 7641,9662 7393,9993 7110,10265 L 7110,10265 7110,10265 Z"/>
        <path fill="rgb(0,150,230)" stroke="none" d="M 7653,10773 L 7275,10773 C 7122,10773 6992,10643 6992,10489 L 6992,10206 7027,10170 C 7311,9911 7535,9592 7712,9237 L 7936,9285 7936,10489 C 7936,10643 7807,10773 7653,10773 L 7653,10773 Z M 7228,10312 L 7228,10489 C 7228,10513 7251,10536 7275,10536 L 7653,10536 C 7677,10536 7700,10513 7700,10489 L 7700,9733 C 7559,9946 7405,10147 7228,10312 L 7228,10312 Z"/>
        <path fill="rgb(208,232,249)" stroke="none" d="M 7653,4749 L 7275,4749 C 7181,4749 7110,4820 7110,4915 L 7110,5139 C 7393,5411 7641,5742 7818,6108 L 7818,4915 C 7818,4820 7748,4749 7653,4749 L 7653,4749 7653,4749 Z"/>
        <path fill="rgb(0,150,230)" stroke="none" d="M 7712,6167 C 7535,5812 7311,5493 7027,5234 L 6992,5198 6992,4915 C 6992,4761 7122,4631 7275,4631 L 7653,4631 C 7807,4631 7936,4761 7936,4915 L 7936,6119 7712,6167 Z M 7700,5671 L 7700,4915 C 7700,4891 7677,4868 7653,4868 L 7275,4868 C 7251,4868 7228,4891 7228,4915 L 7228,5092 C 7405,5269 7559,5458 7700,5671 Z"/>
       </g>
      </g>
     </g>
    </g>
   </g>
  </g>
 </g>
</svg>