<?xml version="1.0" encoding="UTF-8"?>
<!DOCTYPE svg PUBLIC "-//W3C//DTD SVG 1.1//EN" "http://www.w3.org/Graphics/SVG/1.1/DTD/svg11.dtd">
<svg version="1.2" width="255.7mm" height="155.7mm" viewBox="0 0 25570 15570" preserveAspectRatio="xMidYMid" fill-rule="evenodd" stroke-width="28.222" stroke-linejoin="round" xmlns="http://www.w3.org/2000/svg" xmlns:ooo="http://xml.openoffice.org/svg/export" xmlns:xlink="http://www.w3.org/1999/xlink" xmlns:presentation="http://sun.com/xmlns/staroffice/presentation" xmlns:smil="http://www.w3.org/2001/SMIL20/" xmlns:anim="urn:oasis:names:tc:opendocument:xmlns:animation:1.0" xml:space="preserve">
 <defs class="ClipPathGroup">
  <clipPath id="presentation_clip_path" clipPathUnits="userSpaceOnUse">
   <rect x="0" y="0" width="25570" height="15570"/>
  </clipPath>
  <clipPath id="presentation_clip_path_shrink" clipPathUnits="userSpaceOnUse">
   <rect x="25" y="15" width="25519" height="15539"/>
  </clipPath>
 </defs>
 <defs class="TextShapeIndex">
  <g ooo:slide="id1" ooo:id-list="id3 id4 id5 id6 id7 id8 id9 id10 id11 id12 id13 id14 id15 id16 id17 id18 id19 id20 id21 id22 id23 id24 id25 id26 id27 id28 id29 id30 id31 id32 id33 id34"/>
 </defs>
 <defs class="EmbeddedBulletChars">
  <g id="bullet-char-template-57356" transform="scale(0.00048828125,-0.00048828125)">
   <path d="M 580,1141 L 1163,571 580,0 -4,571 580,1141 Z"/>
  </g>
  <g id="bullet-char-template-57354" transform="scale(0.00048828125,-0.00048828125)">
   <path d="M 8,1128 L 1137,1128 1137,0 8,0 8,1128 Z"/>
  </g>
  <g id="bullet-char-template-10146" transform="scale(0.00048828125,-0.00048828125)">
   <path d="M 174,0 L 602,739 174,1481 1456,739 174,0 Z M 1358,739 L 309,1346 659,739 1358,739 Z"/>
  </g>
  <g id="bullet-char-template-10132" transform="scale(0.00048828125,-0.00048828125)">
   <path d="M 2015,739 L 1276,0 717,0 1260,543 174,543 174,936 1260,936 717,1481 1274,1481 2015,739 Z"/>
  </g>
  <g id="bullet-char-template-10007" transform="scale(0.00048828125,-0.00048828125)">
   <path d="M 0,-2 C -7,14 -16,27 -25,37 L 356,567 C 262,823 215,952 215,954 215,979 228,992 255,992 264,992 276,990 289,987 310,991 331,999 354,1012 L 381,999 492,748 772,1049 836,1024 860,1049 C 881,1039 901,1025 922,1006 886,937 835,863 770,784 769,783 710,716 594,584 L 774,223 C 774,196 753,168 711,139 L 727,119 C 717,90 699,76 672,76 641,76 570,178 457,381 L 164,-76 C 142,-110 111,-127 72,-127 30,-127 9,-110 8,-76 1,-67 -2,-52 -2,-32 -2,-23 -1,-13 0,-2 Z"/>
  </g>
  <g id="bullet-char-template-10004" transform="scale(0.00048828125,-0.00048828125)">
   <path d="M 285,-33 C 182,-33 111,30 74,156 52,228 41,333 41,471 41,549 55,616 82,672 116,743 169,778 240,778 293,778 328,747 346,684 L 369,508 C 377,444 397,411 428,410 L 1163,1116 C 1174,1127 1196,1133 1229,1133 1271,1133 1292,1118 1292,1087 L 1292,965 C 1292,929 1282,901 1262,881 L 442,47 C 390,-6 338,-33 285,-33 Z"/>
  </g>
  <g id="bullet-char-template-9679" transform="scale(0.00048828125,-0.00048828125)">
   <path d="M 813,0 C 632,0 489,54 383,161 276,268 223,411 223,592 223,773 276,916 383,1023 489,1130 632,1184 813,1184 992,1184 1136,1130 1245,1023 1353,916 1407,772 1407,592 1407,412 1353,268 1245,161 1136,54 992,0 813,0 Z"/>
  </g>
  <g id="bullet-char-template-8226" transform="scale(0.00048828125,-0.00048828125)">
   <path d="M 346,457 C 273,457 209,483 155,535 101,586 74,649 74,723 74,796 101,859 155,911 209,963 273,989 346,989 419,989 480,963 531,910 582,859 608,796 608,723 608,648 583,586 532,535 482,483 420,457 346,457 Z"/>
  </g>
  <g id="bullet-char-template-8211" transform="scale(0.00048828125,-0.00048828125)">
   <path d="M -4,459 L 1135,459 1135,606 -4,606 -4,459 Z"/>
  </g>
  <g id="bullet-char-template-61548" transform="scale(0.00048828125,-0.00048828125)">
   <path d="M 173,740 C 173,903 231,1043 346,1159 462,1274 601,1332 765,1332 928,1332 1067,1274 1183,1159 1299,1043 1357,903 1357,740 1357,577 1299,437 1183,322 1067,206 928,148 765,148 601,148 462,206 346,322 231,437 173,577 173,740 Z"/>
  </g>
 </defs>
 <defs class="TextEmbeddedBitmaps"/>
 <g>
  <g id="id2" class="Master_Slide">
   <g id="bg-id2" class="Background"/>
   <g id="bo-id2" class="BackgroundObjects"/>
  </g>
 </g>
 <g class="SlideGroup">
  <g>
   <g id="container-id1">
    <g id="id1" class="Slide" clip-path="url(#presentation_clip_path)">
     <g class="Page">
      <g class="Graphic">
       <g id="id3">
        <rect class="BoundingBox" stroke="none" fill="none" x="2752" y="3952" width="4815" height="4815"/>
        <path fill="rgb(216,186,143)" stroke="none" d="M 7252,8761 L 3066,8761 C 2896,8761 2757,8622 2757,8452 L 2757,4266 C 2757,4096 2896,3957 3066,3957 L 7243,3957 C 7414,3957 7553,4096 7553,4266 L 7553,8452 7561,8452 C 7561,8622 7422,8761 7252,8761 Z"/>
        <path fill="rgb(201,169,127)" stroke="none" d="M 2757,4266 C 2757,4096 2896,3957 3066,3957 L 7243,3957 C 7414,3957 7553,4096 7553,4266 L 7553,8443 C 7553,8614 7414,8753 7243,8753 Z"/>
        <path fill="rgb(186,150,108)" stroke="none" d="M 5159,5520 L 4532,5520 4532,3998 5786,3998 5786,5520 5159,5520 Z"/>
        <path fill="rgb(229,211,174)" stroke="none" d="M 5159,5480 L 4532,5480 4532,3957 5786,3957 5786,5480 5159,5480 Z"/>
        <path fill="rgb(188,34,74)" stroke="none" d="M 4304,7076 L 4101,7076 4109,7084 3750,7442 4215,7442 3938,7719 4215,7719 3685,8248 4304,8248 C 4345,8248 4386,8215 4386,8167 L 4386,7149 C 4386,7108 4353,7076 4304,7076 L 4304,7076 Z"/>
        <path fill="rgb(188,34,74)" stroke="none" d="M 3482,8240 L 3848,7873 3571,7873 3856,7588 3392,7588 3905,7076 3286,7076 C 3246,7076 3213,7108 3213,7157 L 3213,8175 C 3213,8215 3246,8256 3286,8256 L 3490,8256 3482,8240 3482,8240 Z"/>
        <path fill="rgb(224,204,160)" stroke="none" d="M 4532,5480 L 5786,5480 5786,3957 Z"/>
        <path fill="rgb(168,15,63)" stroke="none" d="M 3482,8240 L 3848,7873 3571,7873 3856,7588 3791,7588 3205,8167 C 3205,8207 3237,8248 3278,8248 L 3482,8248 3482,8240 3482,8240 Z"/>
        <path fill="rgb(168,15,63)" stroke="none" d="M 4304,7076 L 3938,7442 4215,7442 3938,7719 4215,7719 3685,8248 4304,8248 C 4345,8248 4386,8215 4386,8167 L 4386,7149 C 4386,7108 4353,7076 4304,7076 L 4304,7076 Z"/>
        <path fill="rgb(165,137,103)" stroke="none" d="M 6967,7499 L 6633,7165 C 6568,7100 6462,7100 6397,7165 L 6055,7499 C 5989,7564 5989,7670 6055,7735 6087,7768 6128,7784 6177,7784 6217,7784 6266,7768 6299,7735 L 6348,7686 6348,8077 C 6348,8167 6421,8248 6519,8248 6608,8248 6690,8175 6690,8077 L 6690,7686 6739,7735 C 6804,7800 6910,7800 6975,7735 7032,7670 7032,7564 6967,7499 L 6967,7499 Z"/>
        <path fill="rgb(150,120,87)" stroke="none" d="M 6633,7165 C 6568,7100 6462,7100 6397,7165 L 6055,7499 C 6046,7507 6030,7523 6030,7540 L 6258,7768 C 6274,7759 6283,7751 6299,7743 L 6348,7694 6348,7857 6657,8167 C 6673,8142 6682,8110 6682,8077 L 6682,7686 6730,7735 C 6796,7800 6901,7800 6967,7735 7032,7670 7032,7564 6967,7499 L 6633,7165 6633,7165 Z"/>
       </g>
      </g>
      <g class="Graphic">
       <g id="id4">
        <rect class="BoundingBox" stroke="none" fill="none" x="9824" y="1935" width="10701" height="10701"/>
        <path fill="rgb(0,0,0)" stroke="none" d="M 16940,6951 L 15929,6933 C 15854,6931 15779,6865 15767,6792 L 15490,5029 C 15483,4988 15472,4953 15457,4925 15405,4792 15277,4698 15128,4698 L 13500,4768 C 13304,4777 13144,4944 13144,5140 L 13145,8708 C 13143,8880 13135,9129 13126,9288 L 13077,10158 C 13068,10311 12993,10551 12913,10681 L 12198,11842 C 12137,11941 12119,12057 12148,12169 12177,12280 12249,12373 12351,12430 L 12511,12519 C 12576,12556 12651,12575 12727,12575 12883,12575 13030,12493 13111,12363 L 13825,11202 C 13925,11040 14023,10766 14047,10577 L 14253,8986 14476,8964 15433,10443 C 15517,10572 15599,10811 15612,10964 L 15720,12209 C 15737,12406 15881,12543 16069,12543 16113,12543 16159,12535 16204,12519 L 16376,12458 C 16591,12382 16744,12144 16724,11917 L 16616,10673 C 16600,10485 16524,10206 16443,10036 L 15523,8101 C 15521,8097 15518,8093 15516,8088 L 15512,7744 16981,7684 C 17078,7680 17167,7638 17231,7566 17295,7494 17326,7401 17318,7305 17303,7113 17133,6954 16940,6951 L 16940,6951 Z"/>
        <path fill="rgb(0,0,0)" stroke="none" d="M 14023,4329 C 14155,4329 14286,4306 14412,4261 14706,4157 14941,3945 15075,3664 15210,3383 15226,3066 15122,2773 14958,2308 14516,1995 14023,1995 13890,1995 13759,2018 13633,2062 13340,2166 13104,2379 12970,2660 12836,2941 12819,3258 12923,3551 13088,4016 13530,4329 14023,4329 L 14023,4329 Z"/>
        <path fill="rgb(0,0,0)" stroke="none" d="M 18117,4760 C 18103,4563 17931,4412 17731,4424 L 16192,4526 C 16096,4533 16008,4576 15945,4649 15881,4722 15850,4815 15856,4912 L 15952,6291 C 15965,6480 16124,6628 16314,6628 16322,6628 16330,6628 16338,6628 L 17876,6525 C 17973,6519 18061,6475 18124,6402 18188,6329 18219,6236 18213,6140 L 18117,4760 18117,4760 Z"/>
       </g>
      </g>
      <g class="Group">
       <g class="com.sun.star.drawing.PolyPolygonShape">
        <g id="id5">
         <rect class="BoundingBox" stroke="none" fill="none" x="12252" y="5527" width="1713" height="1938"/>
         <path fill="rgb(184,221,255)" stroke="none" d="M 13740,5528 L 13717,5529 13695,5532 13674,5538 13653,5545 13634,5555 13615,5566 13598,5579 13582,5593 13568,5609 13555,5626 13544,5645 13535,5664 13527,5685 13522,5706 13518,5729 13517,5752 13517,7017 12252,7017 12252,7464 13740,7464 13763,7462 13785,7459 13806,7453 13827,7446 13846,7437 13865,7425 13882,7412 13898,7398 13912,7382 13925,7365 13936,7346 13945,7327 13953,7306 13958,7285 13962,7262 13963,7240 13963,5752 13962,5729 13958,5706 13953,5685 13945,5664 13936,5645 13925,5626 13912,5609 13898,5593 13882,5579 13865,5566 13846,5555 13827,5545 13806,5538 13785,5532 13763,5529 13740,5528 Z"/>
        </g>
       </g>
       <g class="com.sun.star.drawing.PolyPolygonShape">
        <g id="id6">
         <rect class="BoundingBox" stroke="none" fill="none" x="567" y="5527" width="1713" height="1938"/>
         <path fill="rgb(184,221,255)" stroke="none" d="M 1014,7017 L 1014,5752 1013,5729 1009,5706 1004,5685 996,5664 987,5645 976,5626 963,5609 949,5593 933,5579 916,5566 897,5555 878,5545 857,5538 836,5532 814,5529 791,5528 768,5529 746,5532 725,5538 704,5545 685,5555 666,5566 649,5579 633,5593 619,5609 606,5626 595,5645 586,5664 578,5685 573,5706 569,5729 568,5752 568,7240 569,7262 573,7285 578,7306 586,7327 595,7346 606,7365 619,7382 633,7398 649,7412 666,7425 685,7437 704,7446 725,7453 746,7459 768,7462 791,7464 2279,7464 2279,7017 1014,7017 Z"/>
        </g>
       </g>
       <g class="com.sun.star.drawing.PolyPolygonShape">
        <g id="id7">
         <rect class="BoundingBox" stroke="none" fill="none" x="10498" y="12557" width="2053" height="2155"/>
         <path fill="rgb(14,10,87)" stroke="none" d="M 11524,14710 L 10498,14710 10498,12557 12549,12557 12549,14710 11524,14710 Z"/>
        </g>
       </g>
       <g class="com.sun.star.drawing.PolyPolygonShape">
        <g id="id8">
         <rect class="BoundingBox" stroke="none" fill="none" x="1981" y="12557" width="2053" height="2155"/>
         <path fill="rgb(14,10,87)" stroke="none" d="M 3008,14710 L 1982,14710 1982,12557 4033,12557 4033,14710 3008,14710 Z"/>
        </g>
       </g>
       <g class="com.sun.star.drawing.PolyPolygonShape">
        <g id="id9">
         <rect class="BoundingBox" stroke="none" fill="none" x="2173" y="1164" width="10186" height="3277"/>
         <path fill="rgb(91,172,245)" stroke="none" d="M 11973,1748 L 12357,3547 7266,4440 2174,3547 2558,1748 2574,1689 2595,1631 2621,1575 2653,1521 2689,1471 2729,1422 2773,1378 2820,1336 2871,1298 2924,1265 2979,1236 3036,1211 3095,1191 3155,1177 3216,1168 3277,1165 11254,1165 11315,1168 11376,1177 11436,1191 11495,1211 11552,1236 11607,1265 11660,1298 11711,1336 11758,1378 11802,1422 11842,1471 11878,1521 11910,1575 11936,1631 11957,1689 11973,1748 Z"/>
        </g>
       </g>
       <g class="com.sun.star.drawing.PolyPolygonShape">
        <g id="id10">
         <rect class="BoundingBox" stroke="none" fill="none" x="1385" y="3546" width="11762" height="7180"/>
         <path fill="rgb(184,221,255)" stroke="none" d="M 12357,3547 L 2174,3547 1386,7240 1386,9532 4331,10724 5522,10724 7266,9950 9009,10724 10200,10724 13145,9532 13145,7240 12357,3547 Z"/>
        </g>
       </g>
       <g class="com.sun.star.drawing.PolyPolygonShape">
        <g id="id11">
         <rect class="BoundingBox" stroke="none" fill="none" x="10200" y="9532" width="2947" height="1789"/>
         <path fill="rgb(255,112,57)" stroke="none" d="M 13145,9532 L 13145,10724 11672,11319 10200,10724 10490,9950 10509,9908 10531,9866 10557,9826 10586,9788 10619,9752 10654,9717 10692,9685 10732,9655 10774,9628 10817,9604 10862,9583 10908,9565 10954,9551 11001,9541 11047,9535 11093,9532 13145,9532 Z"/>
        </g>
       </g>
       <g class="com.sun.star.drawing.PolyPolygonShape">
        <g id="id12">
         <rect class="BoundingBox" stroke="none" fill="none" x="1385" y="9532" width="2947" height="1789"/>
         <path fill="rgb(255,112,57)" stroke="none" d="M 4041,9950 L 4331,10724 2859,11319 1386,10724 1386,9532 3438,9532 3484,9535 3530,9541 3577,9551 3623,9565 3669,9583 3714,9604 3757,9628 3799,9655 3839,9685 3877,9717 3912,9752 3945,9788 3974,9826 4000,9866 4022,9908 4041,9950 Z"/>
        </g>
       </g>
       <g class="com.sun.star.drawing.PolyPolygonShape">
        <g id="id13">
         <rect class="BoundingBox" stroke="none" fill="none" x="5231" y="9950" width="4070" height="1371"/>
         <path fill="rgb(255,255,255)" stroke="none" d="M 9299,9950 L 9009,10724 7266,11319 5522,10724 5232,9950 9299,9950 Z"/>
        </g>
       </g>
       <g class="com.sun.star.drawing.PolyPolygonShape">
        <g id="id14">
         <rect class="BoundingBox" stroke="none" fill="none" x="1385" y="10724" width="11762" height="2431"/>
         <path fill="rgb(76,127,225)" stroke="none" d="M 1386,10724 L 1386,12557 1389,12618 1398,12677 1413,12734 1433,12789 1458,12841 1488,12890 1522,12936 1561,12978 1603,13017 1649,13051 1698,13081 1750,13106 1805,13126 1862,13141 1921,13150 1982,13153 12549,13153 12610,13150 12669,13141 12726,13126 12781,13106 12833,13081 12882,13051 12928,13017 12970,12978 13009,12936 13043,12890 13073,12841 13098,12789 13118,12734 13133,12677 13142,12618 13145,12557 13145,10724 1386,10724 Z"/>
        </g>
       </g>
       <g class="com.sun.star.drawing.PolyPolygonShape">
        <g id="id15">
         <rect class="BoundingBox" stroke="none" fill="none" x="2055" y="11737" width="1905" height="449"/>
         <path fill="rgb(255,255,255)" stroke="none" d="M 3736,12184 L 2279,12184 2256,12183 2234,12180 2213,12174 2192,12167 2173,12157 2154,12146 2137,12133 2121,12119 2107,12103 2094,12086 2083,12068 2073,12048 2066,12028 2060,12006 2057,11984 2056,11961 2057,11938 2060,11916 2066,11895 2073,11874 2083,11855 2094,11836 2107,11819 2121,11803 2137,11788 2154,11776 2173,11764 2192,11755 2213,11747 2234,11742 2256,11738 2279,11737 3736,11737 3759,11738 3781,11742 3802,11747 3822,11755 3842,11764 3860,11776 3878,11788 3893,11803 3908,11819 3921,11836 3932,11855 3941,11874 3949,11895 3954,11916 3958,11938 3959,11961 3958,11984 3954,12006 3949,12028 3941,12048 3932,12068 3921,12086 3908,12103 3893,12119 3878,12133 3860,12146 3842,12157 3822,12167 3802,12174 3781,12180 3759,12183 3736,12184 Z"/>
        </g>
       </g>
       <g class="com.sun.star.drawing.PolyPolygonShape">
        <g id="id16">
         <rect class="BoundingBox" stroke="none" fill="none" x="4702" y="11737" width="5128" height="449"/>
         <path fill="rgb(91,172,245)" stroke="none" d="M 9605,12184 L 4926,12184 4903,12183 4881,12180 4859,12174 4839,12167 4819,12157 4801,12146 4784,12133 4768,12119 4754,12103 4741,12086 4730,12068 4720,12048 4713,12028 4707,12006 4704,11984 4703,11961 4704,11938 4707,11916 4713,11895 4720,11874 4730,11855 4741,11836 4754,11819 4768,11803 4784,11788 4801,11776 4819,11764 4839,11755 4859,11747 4881,11742 4903,11738 4926,11737 9605,11737 9628,11738 9650,11742 9672,11747 9692,11755 9712,11764 9730,11776 9747,11788 9763,11803 9777,11819 9790,11836 9801,11855 9811,11874 9818,11895 9824,11916 9827,11938 9828,11961 9827,11984 9824,12006 9818,12028 9811,12048 9801,12068 9790,12086 9777,12103 9763,12119 9747,12133 9730,12146 9712,12157 9692,12167 9672,12174 9650,12180 9628,12183 9605,12184 Z"/>
        </g>
       </g>
       <g class="com.sun.star.drawing.PolyPolygonShape">
        <g id="id17">
         <rect class="BoundingBox" stroke="none" fill="none" x="10572" y="11737" width="1905" height="449"/>
         <path fill="rgb(255,255,255)" stroke="none" d="M 12252,12184 L 10795,12184 10772,12183 10750,12180 10729,12174 10709,12167 10689,12157 10671,12146 10653,12133 10638,12119 10623,12103 10610,12086 10599,12068 10590,12048 10582,12028 10577,12006 10573,11984 10572,11961 10573,11938 10577,11916 10582,11895 10590,11874 10599,11855 10610,11836 10623,11819 10638,11803 10653,11788 10671,11776 10689,11764 10709,11755 10729,11747 10750,11742 10772,11738 10795,11737 12252,11737 12275,11738 12297,11742 12318,11747 12339,11755 12358,11764 12377,11776 12394,11788 12410,11803 12424,11819 12437,11836 12448,11855 12458,11874 12465,11895 12471,11916 12474,11938 12475,11961 12474,11984 12471,12006 12465,12028 12458,12048 12448,12068 12437,12086 12424,12103 12410,12119 12394,12133 12377,12146 12358,12157 12339,12167 12318,12174 12297,12180 12275,12183 12252,12184 Z"/>
        </g>
       </g>
       <g class="com.sun.star.drawing.PolyPolygonShape">
        <g id="id18">
         <rect class="BoundingBox" stroke="none" fill="none" x="1832" y="3992" width="10868" height="3249"/>
         <path fill="rgb(255,255,255)" stroke="none" d="M 2525,3993 L 1833,7240 12698,7240 12006,3993 2525,3993 Z"/>
        </g>
       </g>
      </g>
      <g class="Graphic">
       <g id="id19">
        <rect class="BoundingBox" stroke="none" fill="none" x="11206" y="10806" width="4947" height="4947"/>
        <defs>
         <clipPath id="clip_path_1" clipPathUnits="userSpaceOnUse">
          <path d="M 11206,10806 L 16152,10806 16152,15752 11206,15752 11206,10806 Z"/>
         </clipPath>
        </defs>
        <g clip-path="url(#clip_path_1)">
         <path fill="rgb(71,130,28)" stroke="none" d="M 11219,13813 C 11247,13755 11309,13723 11372,13736 11696,13798 12039,13959 12394,14212 12672,14411 12958,14669 13245,14977 13247,14979 13249,14982 13252,14984 L 12283,14984 C 12187,14878 12096,14781 12013,14695 11589,14255 11260,13983 11257,13980 11208,13940 11192,13871 11219,13813 L 11219,13813 Z"/>
         <path fill="rgb(78,144,30)" stroke="none" d="M 11443,12776 C 11482,12725 11550,12707 11609,12732 11912,12861 12215,13089 12509,13411 12739,13664 12966,13975 13182,14336 13323,14571 13441,14796 13532,14984 L 12677,14984 C 12463,14520 12226,14109 12036,13803 11712,13286 11447,12951 11445,12948 11405,12898 11404,12827 11443,12776 L 11443,12776 Z"/>
         <path fill="rgb(94,172,36)" stroke="none" d="M 11984,11987 C 12032,11944 12102,11938 12155,11973 12430,12155 12686,12434 12917,12804 13098,13095 13264,13442 13411,13836 13599,14339 13706,14785 13749,14984 L 12927,14984 C 12800,14257 12565,13571 12381,13104 12157,12537 11957,12159 11955,12155 11925,12099 11937,12029 11984,11987 L 11984,11987 Z"/>
         <path fill="rgb(109,200,42)" stroke="none" d="M 13183,14983 C 13183,14978 13184,14973 13184,14969 13232,14144 13127,13315 13030,12765 12925,12164 12806,11755 12805,11751 12787,11690 12812,11624 12865,11591 12918,11558 12986,11567 13030,11612 13258,11843 13449,12168 13599,12576 13716,12895 13808,13268 13874,13684 13983,14379 13979,14951 13978,14987 L 13183,14983 13183,14983 Z"/>
         <path fill="rgb(78,144,30)" stroke="none" d="M 16139,13813 C 16111,13755 16049,13723 15986,13736 15662,13798 15319,13959 14964,14212 14686,14411 14400,14669 14113,14977 14111,14979 14109,14982 14106,14984 L 15075,14984 C 15171,14878 15262,14781 15345,14695 15769,14255 16098,13983 16101,13980 16150,13940 16166,13871 16139,13813 L 16139,13813 Z"/>
         <path fill="rgb(94,172,36)" stroke="none" d="M 15915,12776 C 15876,12725 15808,12707 15749,12732 15446,12861 15143,13089 14849,13411 14619,13664 14392,13975 14176,14336 14035,14571 13917,14796 13826,14984 L 14681,14984 C 14895,14520 15132,14109 15322,13803 15646,13286 15911,12951 15913,12948 15953,12898 15954,12827 15915,12776 L 15915,12776 Z"/>
         <path fill="rgb(109,200,42)" stroke="none" d="M 15374,11987 C 15326,11944 15256,11938 15203,11973 14928,12155 14672,12434 14441,12804 14260,13095 14094,13442 13947,13836 13759,14339 13652,14785 13609,14984 L 14431,14984 C 14558,14257 14793,13571 14977,13104 15201,12537 15401,12159 15403,12155 15433,12099 15421,12029 15374,11987 L 15374,11987 Z"/>
         <path fill="rgb(145,220,90)" stroke="none" d="M 14190,14984 C 14190,14979 14190,14974 14189,14969 14144,14145 14256,13317 14358,12767 14469,12166 14593,11758 14594,11754 14613,11693 14588,11627 14533,11594 14479,11560 14408,11568 14363,11613 14128,11844 13930,12167 13774,12575 13652,12894 13555,13266 13486,13681 13370,14377 13372,14948 13372,14984 L 14190,14984 14190,14984 14190,14984 Z"/>
         <path fill="rgb(71,130,28)" stroke="none" d="M 12367,14984 L 11677,14984 C 11635,14984 11601,14950 11601,14908 11601,14866 11635,14833 11677,14833 L 12367,14833 C 12409,14833 12443,14866 12443,14908 12443,14950 12409,14984 12367,14984 L 12367,14984 Z"/>
         <path fill="rgb(71,130,28)" stroke="none" d="M 11418,14984 L 11287,14984 C 11245,14984 11211,14950 11211,14908 11211,14866 11245,14833 11287,14833 L 11418,14833 C 11460,14833 11494,14866 11494,14908 11494,14950 11460,14984 11418,14984 L 11418,14984 Z"/>
         <path fill="rgb(78,144,30)" stroke="none" d="M 15499,14984 L 14941,14984 C 14899,14984 14865,14950 14865,14908 14865,14866 14899,14833 14941,14833 L 15499,14833 C 15541,14833 15575,14866 15575,14908 15575,14950 15541,14984 15499,14984 L 15499,14984 Z"/>
         <path fill="rgb(78,144,30)" stroke="none" d="M 16065,14984 L 15768,14984 C 15727,14984 15693,14950 15693,14908 15693,14866 15727,14833 15768,14833 L 16065,14833 C 16106,14833 16140,14866 16140,14908 16140,14950 16106,14984 16065,14984 L 16065,14984 Z"/>
         <path fill="rgb(94,172,36)" stroke="none" d="M 13826,14683 C 13785,14683 13751,14651 13750,14609 13744,14353 13757,14078 13788,13793 13793,13752 13830,13722 13872,13726 13913,13731 13943,13768 13939,13810 13908,14088 13895,14356 13901,14606 13902,14648 13869,14682 13827,14683 13827,14683 13826,14683 13826,14683 L 13826,14683 Z"/>
         <path fill="rgb(94,172,36)" stroke="none" d="M 13909,13544 C 13905,13544 13901,13544 13897,13543 13855,13536 13827,13498 13834,13456 13870,13229 13903,13089 13905,13083 13915,13042 13955,13017 13996,13027 14037,13037 14062,13077 14052,13118 14052,13119 14018,13260 13983,13480 13977,13517 13945,13544 13909,13544 L 13909,13544 Z"/>
        </g>
       </g>
      </g>
      <g class="Graphic">
       <g id="id20">
        <rect class="BoundingBox" stroke="none" fill="none" x="15906" y="7952" width="4947" height="4947"/>
        <defs>
         <clipPath id="clip_path_2" clipPathUnits="userSpaceOnUse">
          <path d="M 15906,7952 L 20852,7952 20852,12898 15906,12898 15906,7952 Z"/>
         </clipPath>
        </defs>
        <g clip-path="url(#clip_path_2)">
         <path fill="rgb(71,130,28)" stroke="none" d="M 15919,10959 C 15947,10901 16009,10869 16072,10882 16396,10944 16739,11105 17094,11358 17372,11557 17658,11815 17945,12123 17947,12125 17949,12128 17952,12130 L 16983,12130 C 16887,12024 16796,11927 16713,11841 16289,11401 15960,11129 15957,11126 15908,11086 15892,11017 15919,10959 L 15919,10959 Z"/>
         <path fill="rgb(78,144,30)" stroke="none" d="M 16143,9922 C 16182,9871 16250,9853 16309,9878 16612,10007 16915,10235 17209,10557 17439,10810 17666,11121 17882,11482 18023,11717 18141,11942 18232,12130 L 17377,12130 C 17163,11666 16926,11255 16736,10949 16412,10432 16147,10097 16145,10094 16105,10044 16104,9973 16143,9922 L 16143,9922 Z"/>
         <path fill="rgb(94,172,36)" stroke="none" d="M 16684,9133 C 16732,9090 16802,9084 16855,9119 17130,9301 17386,9580 17617,9950 17798,10241 17964,10588 18111,10982 18299,11485 18406,11931 18449,12130 L 17627,12130 C 17500,11403 17265,10717 17081,10250 16857,9683 16657,9305 16655,9301 16625,9245 16637,9175 16684,9133 L 16684,9133 Z"/>
         <path fill="rgb(109,200,42)" stroke="none" d="M 17883,12129 C 17883,12124 17884,12119 17884,12115 17932,11290 17827,10461 17730,9911 17625,9310 17506,8901 17505,8897 17487,8836 17512,8770 17565,8737 17618,8704 17686,8713 17730,8758 17958,8989 18149,9314 18299,9722 18416,10041 18508,10414 18574,10830 18683,11525 18679,12097 18678,12133 L 17883,12129 17883,12129 Z"/>
         <path fill="rgb(78,144,30)" stroke="none" d="M 20839,10959 C 20811,10901 20749,10869 20686,10882 20362,10944 20019,11105 19664,11358 19386,11557 19100,11815 18813,12123 18811,12125 18809,12128 18806,12130 L 19775,12130 C 19871,12024 19962,11927 20045,11841 20469,11401 20798,11129 20801,11126 20850,11086 20866,11017 20839,10959 L 20839,10959 Z"/>
         <path fill="rgb(94,172,36)" stroke="none" d="M 20615,9922 C 20576,9871 20508,9853 20449,9878 20146,10007 19843,10235 19549,10557 19319,10810 19092,11121 18876,11482 18735,11717 18617,11942 18526,12130 L 19381,12130 C 19595,11666 19832,11255 20022,10949 20346,10432 20611,10097 20613,10094 20653,10044 20654,9973 20615,9922 L 20615,9922 Z"/>
         <path fill="rgb(109,200,42)" stroke="none" d="M 20074,9133 C 20026,9090 19956,9084 19903,9119 19628,9301 19372,9580 19141,9950 18960,10241 18794,10588 18647,10982 18459,11485 18352,11931 18309,12130 L 19131,12130 C 19258,11403 19493,10717 19677,10250 19901,9683 20101,9305 20103,9301 20133,9245 20121,9175 20074,9133 L 20074,9133 Z"/>
         <path fill="rgb(145,220,90)" stroke="none" d="M 18890,12130 C 18890,12125 18890,12120 18889,12115 18844,11291 18956,10463 19058,9913 19169,9312 19293,8904 19294,8900 19313,8839 19288,8773 19233,8740 19179,8706 19108,8714 19063,8759 18828,8990 18630,9313 18474,9721 18352,10040 18255,10412 18186,10827 18070,11523 18072,12094 18072,12130 L 18890,12130 18890,12130 18890,12130 Z"/>
         <path fill="rgb(71,130,28)" stroke="none" d="M 17067,12130 L 16377,12130 C 16335,12130 16301,12096 16301,12054 16301,12012 16335,11979 16377,11979 L 17067,11979 C 17109,11979 17143,12012 17143,12054 17143,12096 17109,12130 17067,12130 L 17067,12130 Z"/>
         <path fill="rgb(71,130,28)" stroke="none" d="M 16118,12130 L 15987,12130 C 15945,12130 15911,12096 15911,12054 15911,12012 15945,11979 15987,11979 L 16118,11979 C 16160,11979 16194,12012 16194,12054 16194,12096 16160,12130 16118,12130 L 16118,12130 Z"/>
         <path fill="rgb(78,144,30)" stroke="none" d="M 20199,12130 L 19641,12130 C 19599,12130 19565,12096 19565,12054 19565,12012 19599,11979 19641,11979 L 20199,11979 C 20241,11979 20275,12012 20275,12054 20275,12096 20241,12130 20199,12130 L 20199,12130 Z"/>
         <path fill="rgb(78,144,30)" stroke="none" d="M 20765,12130 L 20468,12130 C 20427,12130 20393,12096 20393,12054 20393,12012 20427,11979 20468,11979 L 20765,11979 C 20806,11979 20840,12012 20840,12054 20840,12096 20806,12130 20765,12130 L 20765,12130 Z"/>
         <path fill="rgb(94,172,36)" stroke="none" d="M 18526,11829 C 18485,11829 18451,11797 18450,11755 18444,11499 18457,11224 18488,10939 18493,10898 18530,10868 18572,10872 18613,10877 18643,10914 18639,10956 18608,11234 18595,11502 18601,11752 18602,11794 18569,11828 18527,11829 18527,11829 18526,11829 18526,11829 L 18526,11829 Z"/>
         <path fill="rgb(94,172,36)" stroke="none" d="M 18609,10690 C 18605,10690 18601,10690 18597,10689 18555,10682 18527,10644 18534,10602 18570,10375 18603,10235 18605,10229 18615,10188 18655,10163 18696,10173 18737,10183 18762,10223 18752,10264 18752,10265 18718,10406 18683,10626 18677,10663 18645,10690 18609,10690 L 18609,10690 Z"/>
        </g>
       </g>
      </g>
      <g class="Group">
       <g class="com.sun.star.drawing.ClosedBezierShape">
        <g id="id21">
         <rect class="BoundingBox" stroke="none" fill="none" x="19923" y="9745" width="5092" height="5092"/>
         <path fill="rgb(198,150,102)" stroke="none" d="M 23082,9922 C 23082,9863 23082,9805 23082,9746 22673,9746 22264,9746 21855,9746 21855,9805 21855,9863 21855,9922 21328,9922 20801,9922 20275,9922 20081,9922 19924,10079 19924,10273 19924,11677 19924,13080 19924,14484 19924,14678 20081,14835 20275,14835 21737,14835 23200,14835 24662,14835 24856,14835 25013,14678 25013,14484 25013,13080 25013,11677 25013,10273 25013,10079 24856,9922 24662,9922 24136,9922 23609,9922 23082,9922 Z"/>
        </g>
       </g>
       <g class="com.sun.star.drawing.ClosedBezierShape">
        <g id="id22">
         <rect class="BoundingBox" stroke="none" fill="none" x="21152" y="13431" width="2634" height="1055"/>
         <path fill="rgb(232,213,178)" stroke="none" d="M 21153,14484 C 22030,14484 22907,14484 23784,14484 23784,14133 23784,13782 23784,13431 22907,13431 22030,13431 21153,13431 21153,13782 21153,14133 21153,14484 Z"/>
        </g>
       </g>
       <g class="com.sun.star.drawing.ClosedBezierShape">
        <g id="id23">
         <rect class="BoundingBox" stroke="none" fill="none" x="21854" y="9745" width="1230" height="1320"/>
         <path fill="rgb(232,213,178)" stroke="none" d="M 22469,10624 C 22304,10764 22140,10905 21976,11046 21928,11087 21855,11053 21855,10991 21855,10576 21855,10161 21855,9746 22264,9746 22673,9746 23082,9746 23082,10161 23082,10576 23082,10991 23082,11053 23009,11087 22961,11046 22797,10905 22633,10764 22469,10624 Z"/>
        </g>
       </g>
       <g class="com.sun.star.drawing.ClosedBezierShape">
        <g id="id24">
         <rect class="BoundingBox" stroke="none" fill="none" x="21064" y="12992" width="2810" height="178"/>
         <path fill="rgb(232,213,178)" stroke="none" d="M 21153,13168 C 21104,13168 21065,13129 21065,13080 21065,13032 21104,12992 21153,12992 22030,12992 22907,12992 23784,12992 23833,12992 23872,13032 23872,13080 23872,13129 23833,13168 23784,13168 22907,13168 22030,13168 21153,13168 Z"/>
        </g>
       </g>
       <g class="com.sun.star.drawing.ClosedBezierShape">
        <g id="id25">
         <rect class="BoundingBox" stroke="none" fill="none" x="21590" y="11412" width="178" height="1407"/>
         <path fill="rgb(232,213,178)" stroke="none" d="M 21591,12729 C 21591,12320 21591,11910 21591,11501 21591,11453 21630,11413 21679,11413 21727,11413 21767,11453 21767,11501 21767,11910 21767,12320 21767,12729 21767,12777 21727,12817 21679,12817 21630,12817 21591,12777 21591,12729 Z"/>
        </g>
       </g>
       <g class="com.sun.star.drawing.ClosedBezierShape">
        <g id="id26">
         <rect class="BoundingBox" stroke="none" fill="none" x="21240" y="11413" width="879" height="528"/>
         <path fill="rgb(232,213,178)" stroke="none" d="M 21968,11914 C 21871,11817 21775,11721 21679,11625 21582,11721 21486,11817 21390,11914 21356,11949 21300,11948 21266,11914 21232,11879 21232,11824 21266,11790 21383,11673 21500,11556 21617,11439 21651,11405 21707,11405 21741,11439 21858,11556 21975,11673 22092,11790 22127,11824 22127,11880 22092,11914 22075,11931 22052,11940 22030,11940 22007,11940 21985,11931 21968,11914 Z"/>
        </g>
       </g>
       <g class="com.sun.star.drawing.ClosedBezierShape">
        <g id="id27">
         <rect class="BoundingBox" stroke="none" fill="none" x="23170" y="11412" width="178" height="1407"/>
         <path fill="rgb(232,213,178)" stroke="none" d="M 23170,12729 C 23170,12320 23170,11910 23170,11501 23170,11453 23210,11413 23258,11413 23307,11413 23346,11453 23346,11501 23346,11910 23346,12320 23346,12729 23346,12777 23306,12817 23258,12817 23209,12817 23170,12777 23170,12729 Z"/>
        </g>
       </g>
       <g class="com.sun.star.drawing.ClosedBezierShape">
        <g id="id28">
         <rect class="BoundingBox" stroke="none" fill="none" x="22819" y="11413" width="879" height="528"/>
         <path fill="rgb(232,213,178)" stroke="none" d="M 23547,11914 C 23451,11817 23355,11721 23258,11625 23162,11721 23066,11817 22969,11914 22935,11949 22879,11949 22845,11914 22810,11880 22810,11824 22845,11790 22962,11673 23079,11556 23196,11439 23230,11405 23286,11405 23320,11439 23437,11556 23554,11673 23671,11790 23705,11824 23705,11880 23671,11914 23654,11931 23632,11940 23609,11940 23587,11940 23564,11931 23547,11914 Z"/>
        </g>
       </g>
       <g class="com.sun.star.drawing.ClosedBezierShape">
        <g id="id29">
         <rect class="BoundingBox" stroke="none" fill="none" x="21415" y="13694" width="441" height="178"/>
         <path fill="rgb(203,178,146)" stroke="none" d="M 21504,13870 C 21455,13870 21416,13831 21416,13782 21416,13734 21455,13694 21504,13694 21591,13694 21679,13694 21767,13694 21815,13694 21855,13733 21855,13782 21855,13830 21815,13870 21767,13870 21679,13870 21591,13870 21504,13870 Z"/>
        </g>
       </g>
       <g class="com.sun.star.drawing.ClosedBezierShape">
        <g id="id30">
         <rect class="BoundingBox" stroke="none" fill="none" x="22731" y="14045" width="792" height="178"/>
         <path fill="rgb(203,178,146)" stroke="none" d="M 22819,14221 C 22771,14221 22731,14181 22731,14133 22731,14085 22771,14045 22819,14045 23024,14045 23229,14045 23433,14045 23482,14045 23521,14085 23521,14133 23521,14181 23482,14221 23433,14221 23229,14221 23024,14221 22819,14221 Z"/>
        </g>
       </g>
       <g class="com.sun.star.drawing.ClosedBezierShape">
        <g id="id31">
         <rect class="BoundingBox" stroke="none" fill="none" x="22029" y="13694" width="1494" height="178"/>
         <path fill="rgb(203,178,146)" stroke="none" d="M 22118,13870 C 22070,13870 22030,13831 22030,13782 22030,13734 22070,13694 22118,13694 22556,13694 22995,13694 23433,13694 23482,13694 23521,13733 23521,13782 23521,13830 23482,13870 23433,13870 22995,13870 22556,13870 22118,13870 Z"/>
        </g>
       </g>
       <g class="com.sun.star.drawing.ClosedBezierShape">
        <g id="id32">
         <rect class="BoundingBox" stroke="none" fill="none" x="21415" y="14045" width="1143" height="178"/>
         <path fill="rgb(203,178,146)" stroke="none" d="M 21504,14221 C 21455,14221 21416,14181 21416,14133 21416,14085 21455,14045 21504,14045 21825,14045 22147,14045 22469,14045 22516,14045 22556,14085 22556,14133 22556,14181 22516,14221 22469,14221 22147,14221 21825,14221 21504,14221 Z"/>
        </g>
       </g>
      </g>
      <g class="Graphic">
       <g id="id33">
        <rect class="BoundingBox" stroke="none" fill="none" x="19352" y="5052" width="5101" height="5101"/>
        <path fill="rgb(198,150,102)" stroke="none" d="M 22516,5233 L 22516,5057 21288,5057 21288,5233 19708,5233 C 19514,5233 19357,5390 19357,5584 L 19357,9796 C 19357,9990 19514,10147 19708,10147 L 24096,10147 C 24290,10147 24447,9990 24447,9796 L 24447,5584 C 24447,5390 24290,5233 24096,5233 L 22516,5233 22516,5233 Z"/>
        <path fill="rgb(232,213,178)" stroke="none" d="M 21024,8041 C 21024,8205 21138,8342 21290,8380 21290,8384 21288,8388 21288,8392 L 21288,8831 21200,8831 C 21151,8831 21112,8870 21112,8918 21112,8967 21151,9006 21200,9006 L 21551,9006 C 21599,9006 21639,8967 21639,8918 21639,8870 21599,8831 21551,8831 L 21463,8831 21463,8392 C 21463,8388 21461,8384 21461,8380 21613,8342 21726,8205 21726,8041 L 21726,7690 21024,7690 21024,8041 21024,8041 Z"/>
        <path fill="rgb(232,213,178)" stroke="none" d="M 22780,7690 L 22078,7690 22078,8041 C 22078,8205 22191,8342 22343,8380 22343,8384 22341,8388 22341,8392 L 22341,8831 22253,8831 C 22204,8831 22165,8870 22165,8918 22165,8967 22204,9006 22253,9006 L 22604,9006 C 22653,9006 22692,8967 22692,8918 22692,8870 22653,8831 22604,8831 L 22516,8831 22516,8392 C 22516,8388 22514,8384 22514,8380 22666,8342 22780,8205 22780,8041 L 22780,7690 Z"/>
        <path fill="rgb(232,213,178)" stroke="none" d="M 21902,5935 L 21409,6357 C 21361,6398 21288,6364 21288,6302 L 21288,5057 22516,5057 22516,6302 C 22516,6364 22443,6398 22395,6357 L 21902,5935 Z"/>
        <path fill="rgb(232,213,178)" stroke="none" d="M 23218,9533 C 23170,9533 23131,9493 23131,9445 23131,9396 23170,9357 23218,9357 L 24096,9357 C 24145,9357 24184,9396 24184,9445 24184,9493 24145,9533 24096,9533 L 23218,9533 Z"/>
        <path fill="rgb(232,213,178)" stroke="none" d="M 23394,9884 C 23345,9884 23306,9845 23306,9796 23306,9747 23345,9708 23394,9708 L 24096,9708 C 24145,9708 24184,9747 24184,9796 24184,9845 24145,9884 24096,9884 L 23394,9884 Z"/>
       </g>
      </g>
      <g class="Graphic">
       <g id="id34">
        <rect class="BoundingBox" stroke="none" fill="none" x="15224" y="2063" width="5274" height="5274"/>
        <path fill="rgb(198,150,102)" stroke="none" d="M 18630,2479 L 18644,2311 17468,2216 17454,2384 15943,2263 C 15757,2248 15595,2387 15580,2572 L 15256,6603 C 15241,6789 15380,6951 15565,6966 L 19764,7303 C 19950,7318 20112,7180 20127,6994 L 20451,2963 C 20466,2778 20327,2615 20142,2600 L 18630,2479 18630,2479 Z"/>
        <path fill="rgb(232,213,178)" stroke="none" d="M 17988,3103 L 17484,3470 C 17435,3505 17368,3467 17372,3407 L 17468,2216 18644,2311 18548,3502 C 18543,3562 18470,3589 18428,3546 L 17988,3103 Z"/>
        <path fill="rgb(215,90,74)" stroke="none" d="M 18771,4941 C 18399,4911 18075,5188 18045,5559 18015,5930 18292,6255 18663,6285 19034,6315 19359,6038 19388,5667 19418,5296 19142,4971 18771,4941 Z"/>
        <path fill="rgb(215,90,74)" stroke="none" d="M 17125,5435 L 17195,4561 16355,4494 16254,5753 16763,5794 C 16763,5708 16807,5624 16886,5577 L 17125,5435 Z"/>
        <path fill="rgb(134,151,203)" stroke="none" d="M 18831,4185 L 17236,4057 17125,5435 17609,5148 C 17730,5077 17885,5116 17957,5237 L 18069,5426 C 18156,5124 18445,4915 18771,4941 L 18831,4185 Z"/>
        <path fill="rgb(240,196,25)" stroke="none" d="M 18069,5426 L 17957,5237 C 17885,5116 17730,5077 17609,5148 L 16886,5577 C 16766,5648 16726,5804 16797,5925 L 17226,6647 C 17298,6768 17453,6808 17574,6736 L 18297,6308 C 18340,6282 18372,6245 18393,6204 18167,6080 18023,5832 18045,5559 18048,5513 18057,5469 18069,5426 Z"/>
       </g>
      </g>
     </g>
    </g>
   </g>
  </g>
 </g>
</svg>