<?xml version="1.0" encoding="UTF-8"?>
<!DOCTYPE svg PUBLIC "-//W3C//DTD SVG 1.1//EN" "http://www.w3.org/Graphics/SVG/1.1/DTD/svg11.dtd">
<svg version="1.2" width="255.7mm" height="155.7mm" viewBox="0 0 25570 15570" preserveAspectRatio="xMidYMid" fill-rule="evenodd" stroke-width="28.222" stroke-linejoin="round" xmlns="http://www.w3.org/2000/svg" xmlns:ooo="http://xml.openoffice.org/svg/export" xmlns:xlink="http://www.w3.org/1999/xlink" xmlns:presentation="http://sun.com/xmlns/staroffice/presentation" xmlns:smil="http://www.w3.org/2001/SMIL20/" xmlns:anim="urn:oasis:names:tc:opendocument:xmlns:animation:1.0" xml:space="preserve">
 <defs class="ClipPathGroup">
  <clipPath id="presentation_clip_path" clipPathUnits="userSpaceOnUse">
   <rect x="0" y="0" width="25570" height="15570"/>
  </clipPath>
  <clipPath id="presentation_clip_path_shrink" clipPathUnits="userSpaceOnUse">
   <rect x="25" y="15" width="25519" height="15539"/>
  </clipPath>
 </defs>
 <defs class="TextShapeIndex">
  <g ooo:slide="id1" ooo:id-list="id3 id4 id5 id6 id7 id8 id9 id10 id11 id12 id13 id14 id15 id16 id17 id18 id19 id20 id21 id22 id23 id24 id25 id26 id27 id28 id29 id30 id31 id32 id33 id34 id35"/>
 </defs>
 <defs class="EmbeddedBulletChars">
  <g id="bullet-char-template-57356" transform="scale(0.00048828125,-0.00048828125)">
   <path d="M 580,1141 L 1163,571 580,0 -4,571 580,1141 Z"/>
  </g>
  <g id="bullet-char-template-57354" transform="scale(0.00048828125,-0.00048828125)">
   <path d="M 8,1128 L 1137,1128 1137,0 8,0 8,1128 Z"/>
  </g>
  <g id="bullet-char-template-10146" transform="scale(0.00048828125,-0.00048828125)">
   <path d="M 174,0 L 602,739 174,1481 1456,739 174,0 Z M 1358,739 L 309,1346 659,739 1358,739 Z"/>
  </g>
  <g id="bullet-char-template-10132" transform="scale(0.00048828125,-0.00048828125)">
   <path d="M 2015,739 L 1276,0 717,0 1260,543 174,543 174,936 1260,936 717,1481 1274,1481 2015,739 Z"/>
  </g>
  <g id="bullet-char-template-10007" transform="scale(0.00048828125,-0.00048828125)">
   <path d="M 0,-2 C -7,14 -16,27 -25,37 L 356,567 C 262,823 215,952 215,954 215,979 228,992 255,992 264,992 276,990 289,987 310,991 331,999 354,1012 L 381,999 492,748 772,1049 836,1024 860,1049 C 881,1039 901,1025 922,1006 886,937 835,863 770,784 769,783 710,716 594,584 L 774,223 C 774,196 753,168 711,139 L 727,119 C 717,90 699,76 672,76 641,76 570,178 457,381 L 164,-76 C 142,-110 111,-127 72,-127 30,-127 9,-110 8,-76 1,-67 -2,-52 -2,-32 -2,-23 -1,-13 0,-2 Z"/>
  </g>
  <g id="bullet-char-template-10004" transform="scale(0.00048828125,-0.00048828125)">
   <path d="M 285,-33 C 182,-33 111,30 74,156 52,228 41,333 41,471 41,549 55,616 82,672 116,743 169,778 240,778 293,778 328,747 346,684 L 369,508 C 377,444 397,411 428,410 L 1163,1116 C 1174,1127 1196,1133 1229,1133 1271,1133 1292,1118 1292,1087 L 1292,965 C 1292,929 1282,901 1262,881 L 442,47 C 390,-6 338,-33 285,-33 Z"/>
  </g>
  <g id="bullet-char-template-9679" transform="scale(0.00048828125,-0.00048828125)">
   <path d="M 813,0 C 632,0 489,54 383,161 276,268 223,411 223,592 223,773 276,916 383,1023 489,1130 632,1184 813,1184 992,1184 1136,1130 1245,1023 1353,916 1407,772 1407,592 1407,412 1353,268 1245,161 1136,54 992,0 813,0 Z"/>
  </g>
  <g id="bullet-char-template-8226" transform="scale(0.00048828125,-0.00048828125)">
   <path d="M 346,457 C 273,457 209,483 155,535 101,586 74,649 74,723 74,796 101,859 155,911 209,963 273,989 346,989 419,989 480,963 531,910 582,859 608,796 608,723 608,648 583,586 532,535 482,483 420,457 346,457 Z"/>
  </g>
  <g id="bullet-char-template-8211" transform="scale(0.00048828125,-0.00048828125)">
   <path d="M -4,459 L 1135,459 1135,606 -4,606 -4,459 Z"/>
  </g>
  <g id="bullet-char-template-61548" transform="scale(0.00048828125,-0.00048828125)">
   <path d="M 173,740 C 173,903 231,1043 346,1159 462,1274 601,1332 765,1332 928,1332 1067,1274 1183,1159 1299,1043 1357,903 1357,740 1357,577 1299,437 1183,322 1067,206 928,148 765,148 601,148 462,206 346,322 231,437 173,577 173,740 Z"/>
  </g>
 </defs>
 <defs class="TextEmbeddedBitmaps"/>
 <g>
  <g id="id2" class="Master_Slide">
   <g id="bg-id2" class="Background"/>
   <g id="bo-id2" class="BackgroundObjects"/>
  </g>
 </g>
 <g class="SlideGroup">
  <g>
   <g id="container-id1">
    <g id="id1" class="Slide" clip-path="url(#presentation_clip_path)">
     <g class="Page">
      <g class="Graphic">
       <g id="id3">
        <rect class="BoundingBox" stroke="none" fill="none" x="15906" y="7952" width="4947" height="4947"/>
        <defs>
         <clipPath id="clip_path_1" clipPathUnits="userSpaceOnUse">
          <path d="M 15906,7952 L 20852,7952 20852,12898 15906,12898 15906,7952 Z"/>
         </clipPath>
        </defs>
        <g clip-path="url(#clip_path_1)">
         <path fill="rgb(71,130,28)" stroke="none" d="M 15919,10959 C 15947,10901 16009,10869 16072,10882 16396,10944 16739,11105 17094,11358 17372,11557 17658,11815 17945,12123 17947,12125 17949,12128 17952,12130 L 16983,12130 C 16887,12024 16796,11927 16713,11841 16289,11401 15960,11129 15957,11126 15908,11086 15892,11017 15919,10959 L 15919,10959 Z"/>
         <path fill="rgb(78,144,30)" stroke="none" d="M 16143,9922 C 16182,9871 16250,9853 16309,9878 16612,10007 16915,10235 17209,10557 17439,10810 17666,11121 17882,11482 18023,11717 18141,11942 18232,12130 L 17377,12130 C 17163,11666 16926,11255 16736,10949 16412,10432 16147,10097 16145,10094 16105,10044 16104,9973 16143,9922 L 16143,9922 Z"/>
         <path fill="rgb(94,172,36)" stroke="none" d="M 16684,9133 C 16732,9090 16802,9084 16855,9119 17130,9301 17386,9580 17617,9950 17798,10241 17964,10588 18111,10982 18299,11485 18406,11931 18449,12130 L 17627,12130 C 17500,11403 17265,10717 17081,10250 16857,9683 16657,9305 16655,9301 16625,9245 16637,9175 16684,9133 L 16684,9133 Z"/>
         <path fill="rgb(109,200,42)" stroke="none" d="M 17883,12129 C 17883,12124 17884,12119 17884,12115 17932,11290 17827,10461 17730,9911 17625,9310 17506,8901 17505,8897 17487,8836 17512,8770 17565,8737 17618,8704 17686,8713 17730,8758 17958,8989 18149,9314 18299,9722 18416,10041 18508,10414 18574,10830 18683,11525 18679,12097 18678,12133 L 17883,12129 17883,12129 Z"/>
         <path fill="rgb(78,144,30)" stroke="none" d="M 20839,10959 C 20811,10901 20749,10869 20686,10882 20362,10944 20019,11105 19664,11358 19386,11557 19100,11815 18813,12123 18811,12125 18809,12128 18806,12130 L 19775,12130 C 19871,12024 19962,11927 20045,11841 20469,11401 20798,11129 20801,11126 20850,11086 20866,11017 20839,10959 L 20839,10959 Z"/>
         <path fill="rgb(94,172,36)" stroke="none" d="M 20615,9922 C 20576,9871 20508,9853 20449,9878 20146,10007 19843,10235 19549,10557 19319,10810 19092,11121 18876,11482 18735,11717 18617,11942 18526,12130 L 19381,12130 C 19595,11666 19832,11255 20022,10949 20346,10432 20611,10097 20613,10094 20653,10044 20654,9973 20615,9922 L 20615,9922 Z"/>
         <path fill="rgb(109,200,42)" stroke="none" d="M 20074,9133 C 20026,9090 19956,9084 19903,9119 19628,9301 19372,9580 19141,9950 18960,10241 18794,10588 18647,10982 18459,11485 18352,11931 18309,12130 L 19131,12130 C 19258,11403 19493,10717 19677,10250 19901,9683 20101,9305 20103,9301 20133,9245 20121,9175 20074,9133 L 20074,9133 Z"/>
         <path fill="rgb(145,220,90)" stroke="none" d="M 18890,12130 C 18890,12125 18890,12120 18889,12115 18844,11291 18956,10463 19058,9913 19169,9312 19293,8904 19294,8900 19313,8839 19288,8773 19233,8740 19179,8706 19108,8714 19063,8759 18828,8990 18630,9313 18474,9721 18352,10040 18255,10412 18186,10827 18070,11523 18072,12094 18072,12130 L 18890,12130 18890,12130 18890,12130 Z"/>
         <path fill="rgb(71,130,28)" stroke="none" d="M 17067,12130 L 16377,12130 C 16335,12130 16301,12096 16301,12054 16301,12012 16335,11979 16377,11979 L 17067,11979 C 17109,11979 17143,12012 17143,12054 17143,12096 17109,12130 17067,12130 L 17067,12130 Z"/>
         <path fill="rgb(71,130,28)" stroke="none" d="M 16118,12130 L 15987,12130 C 15945,12130 15911,12096 15911,12054 15911,12012 15945,11979 15987,11979 L 16118,11979 C 16160,11979 16194,12012 16194,12054 16194,12096 16160,12130 16118,12130 L 16118,12130 Z"/>
         <path fill="rgb(78,144,30)" stroke="none" d="M 20199,12130 L 19641,12130 C 19599,12130 19565,12096 19565,12054 19565,12012 19599,11979 19641,11979 L 20199,11979 C 20241,11979 20275,12012 20275,12054 20275,12096 20241,12130 20199,12130 L 20199,12130 Z"/>
         <path fill="rgb(78,144,30)" stroke="none" d="M 20765,12130 L 20468,12130 C 20427,12130 20393,12096 20393,12054 20393,12012 20427,11979 20468,11979 L 20765,11979 C 20806,11979 20840,12012 20840,12054 20840,12096 20806,12130 20765,12130 L 20765,12130 Z"/>
         <path fill="rgb(94,172,36)" stroke="none" d="M 18526,11829 C 18485,11829 18451,11797 18450,11755 18444,11499 18457,11224 18488,10939 18493,10898 18530,10868 18572,10872 18613,10877 18643,10914 18639,10956 18608,11234 18595,11502 18601,11752 18602,11794 18569,11828 18527,11829 18527,11829 18526,11829 18526,11829 L 18526,11829 Z"/>
         <path fill="rgb(94,172,36)" stroke="none" d="M 18609,10690 C 18605,10690 18601,10690 18597,10689 18555,10682 18527,10644 18534,10602 18570,10375 18603,10235 18605,10229 18615,10188 18655,10163 18696,10173 18737,10183 18762,10223 18752,10264 18752,10265 18718,10406 18683,10626 18677,10663 18645,10690 18609,10690 L 18609,10690 Z"/>
        </g>
       </g>
      </g>
      <g class="Graphic">
       <g id="id4">
        <rect class="BoundingBox" stroke="none" fill="none" x="6552" y="3852" width="6001" height="6001"/>
        <path fill="rgb(0,0,0)" stroke="none" d="M 10115,9691 C 10115,9775 10047,9844 9963,9844 L 9141,9844 C 9057,9844 8989,9775 8989,9691 8989,9607 9057,9539 9141,9539 L 9963,9539 C 10047,9539 10115,9607 10115,9691 Z M 11457,8238 L 11457,8676 C 11457,9002 11193,9267 10867,9267 L 8237,9267 C 7911,9267 7647,9002 7647,8676 L 7647,8238 C 7647,8154 7715,8086 7799,8086 L 7839,8086 C 7839,8082 7839,8077 7839,8073 L 7839,7665 C 7838,7656 7839,7647 7840,7638 7844,7616 7852,7595 7864,7577 7876,7559 7892,7543 7911,7532 7919,7527 7927,7523 7936,7520 7996,7495 8056,7469 8115,7442 L 8115,5583 C 8115,5281 8307,5016 8581,4913 8581,4905 8581,4897 8581,4888 L 8581,4513 C 8581,4153 8874,3860 9233,3860 L 9871,3860 C 10230,3860 10523,4153 10523,4513 L 10523,4888 C 10523,4897 10523,4905 10522,4913 10631,4954 10728,5020 10805,5105 10808,5100 10810,5095 10813,5090 10852,5016 10944,4987 11018,5027 11093,5066 11121,5158 11082,5232 10797,5772 10384,6272 9853,6718 9429,7075 8948,7383 8419,7637 L 8419,8086 10685,8086 10685,6255 C 10685,6171 10753,6103 10837,6103 10921,6103 10989,6171 10989,6255 L 10989,8086 11305,8086 C 11389,8086 11457,8154 11457,8238 Z M 8897,4978 C 8898,4982 8899,4986 8900,4990 8944,5132 9077,5236 9233,5236 L 9871,5236 C 10027,5236 10160,5132 10204,4990 10205,4986 10206,4982 10207,4978 10215,4950 10219,4920 10219,4888 L 10219,4513 C 10219,4321 10063,4165 9871,4165 L 9233,4165 C 9041,4165 8885,4321 8885,4513 L 8885,4888 C 8885,4920 8889,4950 8897,4978 Z M 10636,5391 C 10592,5309 10522,5245 10439,5208 10327,5406 10114,5541 9871,5541 L 9233,5541 C 8989,5541 8777,5406 8665,5208 8519,5272 8419,5418 8419,5583 L 8419,7297 C 9369,6815 10149,6145 10636,5391 Z M 10839,8390 C 10838,8390 10838,8390 10837,8390 L 8267,8390 C 8266,8390 8266,8390 8265,8390 L 7951,8390 7951,8676 C 7951,8834 8079,8963 8237,8963 L 10867,8963 C 11025,8963 11153,8834 11153,8676 L 11153,8390 10839,8390 Z"/>
       </g>
      </g>
      <g class="Graphic">
       <g id="id5">
        <rect class="BoundingBox" stroke="none" fill="none" x="2652" y="4152" width="3901" height="3901"/>
        <path fill="rgb(216,186,143)" stroke="none" d="M 6297,8048 L 2907,8048 C 2768,8048 2656,7936 2656,7797 L 2656,4407 C 2656,4268 2768,4156 2907,4156 L 6291,4156 C 6429,4156 6541,4268 6541,4407 L 6541,7797 6548,7797 C 6548,7936 6436,8048 6297,8048 Z"/>
        <path fill="rgb(201,169,127)" stroke="none" d="M 2656,4407 C 2656,4268 2768,4156 2907,4156 L 6291,4156 C 6429,4156 6541,4268 6541,4407 L 6541,7791 C 6541,7929 6429,8041 6291,8041 Z"/>
        <path fill="rgb(186,150,108)" stroke="none" d="M 4602,5423 L 4094,5423 4094,4189 5110,4189 5110,5423 4602,5423 Z"/>
        <path fill="rgb(229,211,174)" stroke="none" d="M 4602,5390 L 4094,5390 4094,4156 5110,4156 5110,5390 4602,5390 Z"/>
        <path fill="rgb(188,34,74)" stroke="none" d="M 3909,6682 L 3744,6682 3751,6689 3461,6979 3837,6979 3613,7204 3837,7204 3408,7632 3909,7632 C 3942,7632 3975,7606 3975,7566 L 3975,6742 C 3975,6709 3949,6682 3909,6682 L 3909,6682 Z"/>
        <path fill="rgb(188,34,74)" stroke="none" d="M 3243,7626 L 3540,7329 3316,7329 3547,7098 3171,7098 3586,6682 3085,6682 C 3052,6682 3026,6709 3026,6748 L 3026,7573 C 3026,7606 3052,7639 3085,7639 L 3250,7639 3243,7626 3243,7626 Z"/>
        <path fill="rgb(224,204,160)" stroke="none" d="M 4094,5390 L 5110,5390 5110,4156 Z"/>
        <path fill="rgb(168,15,63)" stroke="none" d="M 3243,7626 L 3540,7329 3316,7329 3547,7098 3494,7098 3019,7566 C 3019,7599 3045,7632 3078,7632 L 3243,7632 3243,7626 3243,7626 Z"/>
        <path fill="rgb(168,15,63)" stroke="none" d="M 3909,6682 L 3613,6979 3837,6979 3613,7204 3837,7204 3408,7632 3909,7632 C 3942,7632 3975,7606 3975,7566 L 3975,6742 C 3975,6709 3949,6682 3909,6682 L 3909,6682 Z"/>
        <path fill="rgb(165,137,103)" stroke="none" d="M 6066,7025 L 5796,6755 C 5743,6702 5657,6702 5605,6755 L 5328,7025 C 5275,7078 5275,7164 5328,7217 5354,7243 5387,7256 5427,7256 5460,7256 5499,7243 5525,7217 L 5565,7177 5565,7494 C 5565,7566 5624,7632 5704,7632 5776,7632 5842,7573 5842,7494 L 5842,7177 5882,7217 C 5934,7270 6020,7270 6073,7217 6119,7164 6119,7078 6066,7025 L 6066,7025 Z"/>
        <path fill="rgb(150,120,87)" stroke="none" d="M 5796,6755 C 5743,6702 5657,6702 5605,6755 L 5328,7025 C 5321,7032 5308,7045 5308,7058 L 5492,7243 C 5506,7237 5512,7230 5525,7223 L 5565,7184 5565,7316 5816,7566 C 5829,7547 5835,7520 5835,7494 L 5835,7177 5875,7217 C 5928,7270 6014,7270 6066,7217 6119,7164 6119,7078 6066,7025 L 5796,6755 5796,6755 Z"/>
       </g>
      </g>
      <g class="Group">
       <g class="com.sun.star.drawing.ClosedBezierShape">
        <g id="id6">
         <rect class="BoundingBox" stroke="none" fill="none" x="19924" y="9746" width="5092" height="5092"/>
         <path fill="rgb(198,150,102)" stroke="none" d="M 23083,9923 C 23083,9864 23083,9806 23083,9747 22674,9747 22265,9747 21856,9747 21856,9806 21856,9864 21856,9923 21329,9923 20802,9923 20276,9923 20082,9923 19925,10080 19925,10274 19925,11678 19925,13081 19925,14485 19925,14679 20082,14836 20276,14836 21738,14836 23201,14836 24663,14836 24857,14836 25014,14679 25014,14485 25014,13081 25014,11678 25014,10274 25014,10080 24857,9923 24663,9923 24137,9923 23610,9923 23083,9923 Z"/>
        </g>
       </g>
       <g class="com.sun.star.drawing.ClosedBezierShape">
        <g id="id7">
         <rect class="BoundingBox" stroke="none" fill="none" x="21153" y="13432" width="2634" height="1055"/>
         <path fill="rgb(232,213,178)" stroke="none" d="M 21154,14485 C 22031,14485 22908,14485 23785,14485 23785,14134 23785,13783 23785,13432 22908,13432 22031,13432 21154,13432 21154,13783 21154,14134 21154,14485 Z"/>
        </g>
       </g>
       <g class="com.sun.star.drawing.ClosedBezierShape">
        <g id="id8">
         <rect class="BoundingBox" stroke="none" fill="none" x="21855" y="9746" width="1230" height="1320"/>
         <path fill="rgb(232,213,178)" stroke="none" d="M 22470,10625 C 22305,10765 22141,10906 21977,11047 21929,11088 21856,11054 21856,10992 21856,10577 21856,10162 21856,9747 22265,9747 22674,9747 23083,9747 23083,10162 23083,10577 23083,10992 23083,11054 23010,11088 22962,11047 22798,10906 22634,10765 22470,10625 Z"/>
        </g>
       </g>
       <g class="com.sun.star.drawing.ClosedBezierShape">
        <g id="id9">
         <rect class="BoundingBox" stroke="none" fill="none" x="21065" y="12993" width="2810" height="178"/>
         <path fill="rgb(232,213,178)" stroke="none" d="M 21154,13169 C 21105,13169 21066,13130 21066,13081 21066,13033 21105,12993 21154,12993 22031,12993 22908,12993 23785,12993 23834,12993 23873,13033 23873,13081 23873,13130 23834,13169 23785,13169 22908,13169 22031,13169 21154,13169 Z"/>
        </g>
       </g>
       <g class="com.sun.star.drawing.ClosedBezierShape">
        <g id="id10">
         <rect class="BoundingBox" stroke="none" fill="none" x="21591" y="11413" width="178" height="1407"/>
         <path fill="rgb(232,213,178)" stroke="none" d="M 21592,12730 C 21592,12321 21592,11911 21592,11502 21592,11454 21631,11414 21680,11414 21728,11414 21768,11454 21768,11502 21768,11911 21768,12321 21768,12730 21768,12778 21728,12818 21680,12818 21631,12818 21592,12778 21592,12730 Z"/>
        </g>
       </g>
       <g class="com.sun.star.drawing.ClosedBezierShape">
        <g id="id11">
         <rect class="BoundingBox" stroke="none" fill="none" x="21241" y="11414" width="879" height="528"/>
         <path fill="rgb(232,213,178)" stroke="none" d="M 21969,11915 C 21872,11818 21776,11722 21680,11626 21583,11722 21487,11818 21391,11915 21357,11950 21301,11949 21267,11915 21233,11880 21233,11825 21267,11791 21384,11674 21501,11557 21618,11440 21652,11406 21708,11406 21742,11440 21859,11557 21976,11674 22093,11791 22128,11825 22128,11881 22093,11915 22076,11932 22053,11941 22031,11941 22008,11941 21986,11932 21969,11915 Z"/>
        </g>
       </g>
       <g class="com.sun.star.drawing.ClosedBezierShape">
        <g id="id12">
         <rect class="BoundingBox" stroke="none" fill="none" x="23171" y="11413" width="178" height="1407"/>
         <path fill="rgb(232,213,178)" stroke="none" d="M 23171,12730 C 23171,12321 23171,11911 23171,11502 23171,11454 23211,11414 23259,11414 23308,11414 23347,11454 23347,11502 23347,11911 23347,12321 23347,12730 23347,12778 23307,12818 23259,12818 23210,12818 23171,12778 23171,12730 Z"/>
        </g>
       </g>
       <g class="com.sun.star.drawing.ClosedBezierShape">
        <g id="id13">
         <rect class="BoundingBox" stroke="none" fill="none" x="22820" y="11414" width="879" height="528"/>
         <path fill="rgb(232,213,178)" stroke="none" d="M 23548,11915 C 23452,11818 23356,11722 23259,11626 23163,11722 23067,11818 22970,11915 22936,11950 22880,11950 22846,11915 22811,11881 22811,11825 22846,11791 22963,11674 23080,11557 23197,11440 23231,11406 23287,11406 23321,11440 23438,11557 23555,11674 23672,11791 23706,11825 23706,11881 23672,11915 23655,11932 23633,11941 23610,11941 23588,11941 23565,11932 23548,11915 Z"/>
        </g>
       </g>
       <g class="com.sun.star.drawing.ClosedBezierShape">
        <g id="id14">
         <rect class="BoundingBox" stroke="none" fill="none" x="21416" y="13695" width="441" height="178"/>
         <path fill="rgb(203,178,146)" stroke="none" d="M 21505,13871 C 21456,13871 21417,13832 21417,13783 21417,13735 21456,13695 21505,13695 21592,13695 21680,13695 21768,13695 21816,13695 21856,13734 21856,13783 21856,13831 21816,13871 21768,13871 21680,13871 21592,13871 21505,13871 Z"/>
        </g>
       </g>
       <g class="com.sun.star.drawing.ClosedBezierShape">
        <g id="id15">
         <rect class="BoundingBox" stroke="none" fill="none" x="22732" y="14046" width="792" height="178"/>
         <path fill="rgb(203,178,146)" stroke="none" d="M 22820,14222 C 22772,14222 22732,14182 22732,14134 22732,14086 22772,14046 22820,14046 23025,14046 23230,14046 23434,14046 23483,14046 23522,14086 23522,14134 23522,14182 23483,14222 23434,14222 23230,14222 23025,14222 22820,14222 Z"/>
        </g>
       </g>
       <g class="com.sun.star.drawing.ClosedBezierShape">
        <g id="id16">
         <rect class="BoundingBox" stroke="none" fill="none" x="22030" y="13695" width="1494" height="178"/>
         <path fill="rgb(203,178,146)" stroke="none" d="M 22119,13871 C 22071,13871 22031,13832 22031,13783 22031,13735 22071,13695 22119,13695 22557,13695 22996,13695 23434,13695 23483,13695 23522,13734 23522,13783 23522,13831 23483,13871 23434,13871 22996,13871 22557,13871 22119,13871 Z"/>
        </g>
       </g>
       <g class="com.sun.star.drawing.ClosedBezierShape">
        <g id="id17">
         <rect class="BoundingBox" stroke="none" fill="none" x="21416" y="14046" width="1143" height="178"/>
         <path fill="rgb(203,178,146)" stroke="none" d="M 21505,14222 C 21456,14222 21417,14182 21417,14134 21417,14086 21456,14046 21505,14046 21826,14046 22148,14046 22470,14046 22517,14046 22557,14086 22557,14134 22557,14182 22517,14222 22470,14222 22148,14222 21826,14222 21505,14222 Z"/>
        </g>
       </g>
      </g>
      <g class="Graphic">
       <g id="id18">
        <rect class="BoundingBox" stroke="none" fill="none" x="19353" y="5053" width="5101" height="5101"/>
        <path fill="rgb(198,150,102)" stroke="none" d="M 22517,5234 L 22517,5058 21289,5058 21289,5234 19709,5234 C 19515,5234 19358,5391 19358,5585 L 19358,9797 C 19358,9991 19515,10148 19709,10148 L 24097,10148 C 24291,10148 24448,9991 24448,9797 L 24448,5585 C 24448,5391 24291,5234 24097,5234 L 22517,5234 22517,5234 Z"/>
        <path fill="rgb(232,213,178)" stroke="none" d="M 21025,8042 C 21025,8206 21139,8343 21291,8381 21291,8385 21289,8389 21289,8393 L 21289,8832 21201,8832 C 21152,8832 21113,8871 21113,8919 21113,8968 21152,9007 21201,9007 L 21552,9007 C 21600,9007 21640,8968 21640,8919 21640,8871 21600,8832 21552,8832 L 21464,8832 21464,8393 C 21464,8389 21462,8385 21462,8381 21614,8343 21727,8206 21727,8042 L 21727,7691 21025,7691 21025,8042 21025,8042 Z"/>
        <path fill="rgb(232,213,178)" stroke="none" d="M 22781,7691 L 22079,7691 22079,8042 C 22079,8206 22192,8343 22344,8381 22344,8385 22342,8389 22342,8393 L 22342,8832 22254,8832 C 22205,8832 22166,8871 22166,8919 22166,8968 22205,9007 22254,9007 L 22605,9007 C 22654,9007 22693,8968 22693,8919 22693,8871 22654,8832 22605,8832 L 22517,8832 22517,8393 C 22517,8389 22515,8385 22515,8381 22667,8343 22781,8206 22781,8042 L 22781,7691 Z"/>
        <path fill="rgb(232,213,178)" stroke="none" d="M 21903,5936 L 21410,6358 C 21362,6399 21289,6365 21289,6303 L 21289,5058 22517,5058 22517,6303 C 22517,6365 22444,6399 22396,6358 L 21903,5936 Z"/>
        <path fill="rgb(232,213,178)" stroke="none" d="M 23219,9534 C 23171,9534 23132,9494 23132,9446 23132,9397 23171,9358 23219,9358 L 24097,9358 C 24146,9358 24185,9397 24185,9446 24185,9494 24146,9534 24097,9534 L 23219,9534 Z"/>
        <path fill="rgb(232,213,178)" stroke="none" d="M 23395,9885 C 23346,9885 23307,9846 23307,9797 23307,9748 23346,9709 23395,9709 L 24097,9709 C 24146,9709 24185,9748 24185,9797 24185,9846 24146,9885 24097,9885 L 23395,9885 Z"/>
       </g>
      </g>
      <g class="Graphic">
       <g id="id19">
        <rect class="BoundingBox" stroke="none" fill="none" x="9825" y="1936" width="10701" height="10701"/>
        <path fill="rgb(0,0,0)" stroke="none" d="M 16941,6952 L 15930,6934 C 15855,6932 15780,6866 15768,6793 L 15491,5030 C 15484,4989 15473,4954 15458,4926 15406,4793 15278,4699 15129,4699 L 13501,4769 C 13305,4778 13145,4945 13145,5141 L 13146,8709 C 13144,8881 13136,9130 13127,9289 L 13078,10159 C 13069,10312 12994,10552 12914,10682 L 12199,11843 C 12138,11942 12120,12058 12149,12170 12178,12281 12250,12374 12352,12431 L 12512,12520 C 12577,12557 12652,12576 12728,12576 12884,12576 13031,12494 13112,12364 L 13826,11203 C 13926,11041 14024,10767 14048,10578 L 14254,8987 14477,8965 15434,10444 C 15518,10573 15600,10812 15613,10965 L 15721,12210 C 15738,12407 15882,12544 16070,12544 16114,12544 16160,12536 16205,12520 L 16377,12459 C 16592,12383 16745,12145 16725,11918 L 16617,10674 C 16601,10486 16525,10207 16444,10037 L 15524,8102 C 15522,8098 15519,8094 15517,8089 L 15513,7745 16982,7685 C 17079,7681 17168,7639 17232,7567 17296,7495 17327,7402 17319,7306 17304,7114 17134,6955 16941,6952 L 16941,6952 Z"/>
        <path fill="rgb(0,0,0)" stroke="none" d="M 14024,4330 C 14156,4330 14287,4307 14413,4262 14707,4158 14942,3946 15076,3665 15211,3384 15227,3067 15123,2774 14959,2309 14517,1996 14024,1996 13891,1996 13760,2019 13634,2063 13341,2167 13105,2380 12971,2661 12837,2942 12820,3259 12924,3552 13089,4017 13531,4330 14024,4330 L 14024,4330 Z"/>
        <path fill="rgb(0,0,0)" stroke="none" d="M 18118,4761 C 18104,4564 17932,4413 17732,4425 L 16193,4527 C 16097,4534 16009,4577 15946,4650 15882,4723 15851,4816 15857,4913 L 15953,6292 C 15966,6481 16125,6629 16315,6629 16323,6629 16331,6629 16339,6629 L 17877,6526 C 17974,6520 18062,6476 18125,6403 18189,6330 18220,6237 18214,6141 L 18118,4761 18118,4761 Z"/>
       </g>
      </g>
      <g class="com.sun.star.drawing.PolyPolygonShape">
       <g id="id20">
        <rect class="BoundingBox" stroke="none" fill="none" x="12253" y="5527" width="1713" height="1938"/>
        <path fill="rgb(184,221,255)" stroke="none" d="M 13741,5528 L 13718,5529 13696,5532 13675,5538 13654,5545 13635,5555 13616,5566 13599,5579 13583,5593 13569,5609 13556,5626 13545,5645 13536,5664 13528,5685 13523,5706 13519,5729 13518,5752 13518,7017 12253,7017 12253,7464 13741,7464 13764,7462 13786,7459 13807,7453 13828,7446 13847,7437 13866,7425 13883,7412 13899,7398 13913,7382 13926,7365 13937,7346 13946,7327 13954,7306 13959,7285 13963,7262 13964,7240 13964,5752 13963,5729 13959,5706 13954,5685 13946,5664 13937,5645 13926,5626 13913,5609 13899,5593 13883,5579 13866,5566 13847,5555 13828,5545 13807,5538 13786,5532 13764,5529 13741,5528 Z"/>
       </g>
      </g>
      <g class="com.sun.star.drawing.PolyPolygonShape">
       <g id="id21">
        <rect class="BoundingBox" stroke="none" fill="none" x="568" y="5527" width="1713" height="1938"/>
        <path fill="rgb(184,221,255)" stroke="none" d="M 1015,7017 L 1015,5752 1014,5729 1010,5706 1005,5685 997,5664 988,5645 977,5626 964,5609 950,5593 934,5579 917,5566 898,5555 879,5545 858,5538 837,5532 815,5529 792,5528 769,5529 747,5532 726,5538 705,5545 686,5555 667,5566 650,5579 634,5593 620,5609 607,5626 596,5645 587,5664 579,5685 574,5706 570,5729 569,5752 569,7240 570,7262 574,7285 579,7306 587,7327 596,7346 607,7365 620,7382 634,7398 650,7412 667,7425 686,7437 705,7446 726,7453 747,7459 769,7462 792,7464 2280,7464 2280,7017 1015,7017 Z"/>
       </g>
      </g>
      <g class="com.sun.star.drawing.PolyPolygonShape">
       <g id="id22">
        <rect class="BoundingBox" stroke="none" fill="none" x="10499" y="12557" width="2053" height="2155"/>
        <path fill="rgb(14,10,87)" stroke="none" d="M 11525,14710 L 10499,14710 10499,12557 12550,12557 12550,14710 11525,14710 Z"/>
       </g>
      </g>
      <g class="com.sun.star.drawing.PolyPolygonShape">
       <g id="id23">
        <rect class="BoundingBox" stroke="none" fill="none" x="1982" y="12557" width="2053" height="2155"/>
        <path fill="rgb(14,10,87)" stroke="none" d="M 3009,14710 L 1983,14710 1983,12557 4034,12557 4034,14710 3009,14710 Z"/>
       </g>
      </g>
      <g class="com.sun.star.drawing.PolyPolygonShape">
       <g id="id24">
        <rect class="BoundingBox" stroke="none" fill="none" x="1386" y="3546" width="11762" height="7180"/>
        <path fill="rgb(184,221,255)" stroke="none" d="M 2526,3993 L 1834,7240 12699,7240 12007,3993 2526,3993 Z M 12358,3547 L 13146,7240 13146,9532 10201,10724 9010,10724 7267,9950 5523,10724 4332,10724 1387,9532 1387,7240 2175,3547 12358,3547 Z"/>
       </g>
      </g>
      <g class="com.sun.star.drawing.PolyPolygonShape">
       <g id="id25">
        <rect class="BoundingBox" stroke="none" fill="none" x="5252" y="9952" width="4070" height="1371"/>
        <path fill="rgb(255,255,255)" stroke="none" d="M 9320,9952 L 9030,10726 7287,11321 5543,10726 5253,9952 9320,9952 Z"/>
       </g>
      </g>
      <g class="com.sun.star.drawing.PolyPolygonShape">
       <g id="id26">
        <rect class="BoundingBox" stroke="none" fill="none" x="2168" y="1151" width="10186" height="2402"/>
        <path fill="rgb(91,172,245)" stroke="none" d="M 2273,3552 L 2169,3534 2553,1735 2569,1676 2590,1618 2616,1562 2648,1508 2684,1458 2724,1409 2768,1365 2815,1323 2866,1285 2919,1252 2974,1223 3031,1198 3090,1178 3150,1164 3211,1155 3272,1152 11249,1152 11310,1155 11371,1164 11431,1178 11490,1198 11547,1223 11602,1252 11655,1285 11706,1323 11753,1365 11797,1409 11837,1458 11873,1508 11905,1562 11931,1618 11952,1676 11968,1735 12352,3534 12248,3552 2273,3552 Z"/>
       </g>
      </g>
      <g class="com.sun.star.drawing.PolyPolygonShape">
       <g id="id27">
        <rect class="BoundingBox" stroke="none" fill="none" x="1830" y="3951" width="10868" height="3249"/>
        <path fill="rgb(114,159,207)" fill-opacity="0.102" stroke="rgb(255,255,255)" stroke-opacity="0.102" d="M 2523,3952 L 1831,7199 12696,7199 12004,3952 2523,3952 Z"/>
       </g>
      </g>
      <g class="Graphic">
       <g id="id28">
        <rect class="BoundingBox" stroke="none" fill="none" x="15225" y="2064" width="5274" height="5274"/>
        <path fill="rgb(198,150,102)" stroke="none" d="M 18631,2480 L 18645,2312 17469,2217 17455,2385 15944,2264 C 15758,2249 15596,2388 15581,2573 L 15257,6604 C 15242,6790 15381,6952 15566,6967 L 19765,7304 C 19951,7319 20113,7181 20128,6995 L 20452,2964 C 20467,2779 20328,2616 20143,2601 L 18631,2480 18631,2480 Z"/>
        <path fill="rgb(232,213,178)" stroke="none" d="M 17989,3104 L 17485,3471 C 17436,3506 17369,3468 17373,3408 L 17469,2217 18645,2312 18549,3503 C 18544,3563 18471,3590 18429,3547 L 17989,3104 Z"/>
        <path fill="rgb(215,90,74)" stroke="none" d="M 18772,4942 C 18400,4912 18076,5189 18046,5560 18016,5931 18293,6256 18664,6286 19035,6316 19360,6039 19389,5668 19419,5297 19143,4972 18772,4942 Z"/>
        <path fill="rgb(215,90,74)" stroke="none" d="M 17126,5436 L 17196,4562 16356,4495 16255,5754 16764,5795 C 16764,5709 16808,5625 16887,5578 L 17126,5436 Z"/>
        <path fill="rgb(134,151,203)" stroke="none" d="M 18832,4186 L 17237,4058 17126,5436 17610,5149 C 17731,5078 17886,5117 17958,5238 L 18070,5427 C 18157,5125 18446,4916 18772,4942 L 18832,4186 Z"/>
        <path fill="rgb(240,196,25)" stroke="none" d="M 18070,5427 L 17958,5238 C 17886,5117 17731,5078 17610,5149 L 16887,5578 C 16767,5649 16727,5805 16798,5926 L 17227,6648 C 17299,6769 17454,6809 17575,6737 L 18298,6309 C 18341,6283 18373,6246 18394,6205 18168,6081 18024,5833 18046,5560 18049,5514 18058,5470 18070,5427 Z"/>
       </g>
      </g>
      <g class="com.sun.star.drawing.PolyPolygonShape">
       <g id="id29">
        <rect class="BoundingBox" stroke="none" fill="none" x="10207" y="9552" width="2947" height="1789"/>
        <path fill="rgb(255,112,57)" stroke="none" d="M 13152,9552 L 13152,10744 11679,11339 10207,10744 10497,9970 10516,9928 10538,9886 10564,9846 10593,9808 10626,9772 10661,9737 10699,9705 10739,9675 10781,9648 10824,9624 10869,9603 10915,9585 10961,9571 11008,9561 11054,9555 11100,9552 13152,9552 Z"/>
       </g>
      </g>
      <g class="com.sun.star.drawing.PolyPolygonShape">
       <g id="id30">
        <rect class="BoundingBox" stroke="none" fill="none" x="1386" y="9532" width="2947" height="1789"/>
        <path fill="rgb(255,112,57)" stroke="none" d="M 4042,9950 L 4332,10724 2860,11319 1387,10724 1387,9532 3439,9532 3485,9535 3531,9541 3578,9551 3624,9565 3670,9583 3715,9604 3758,9628 3800,9655 3840,9685 3878,9717 3913,9752 3946,9788 3975,9826 4001,9866 4023,9908 4042,9950 Z"/>
       </g>
      </g>
      <g class="com.sun.star.drawing.PolyPolygonShape">
       <g id="id31">
        <rect class="BoundingBox" stroke="none" fill="none" x="1386" y="10724" width="11762" height="2431"/>
        <path fill="rgb(76,127,225)" stroke="none" d="M 1387,10724 L 1387,12557 1390,12618 1399,12677 1414,12734 1434,12789 1459,12841 1489,12890 1523,12936 1562,12978 1604,13017 1650,13051 1699,13081 1751,13106 1806,13126 1863,13141 1922,13150 1983,13153 12550,13153 12611,13150 12670,13141 12727,13126 12782,13106 12834,13081 12883,13051 12929,13017 12971,12978 13010,12936 13044,12890 13074,12841 13099,12789 13119,12734 13134,12677 13143,12618 13146,12557 13146,10724 1387,10724 Z"/>
       </g>
      </g>
      <g class="com.sun.star.drawing.PolyPolygonShape">
       <g id="id32">
        <rect class="BoundingBox" stroke="none" fill="none" x="2056" y="11737" width="1905" height="449"/>
        <path fill="rgb(255,255,255)" stroke="none" d="M 3737,12184 L 2280,12184 2257,12183 2235,12180 2214,12174 2193,12167 2174,12157 2155,12146 2138,12133 2122,12119 2108,12103 2095,12086 2084,12068 2074,12048 2067,12028 2061,12006 2058,11984 2057,11961 2058,11938 2061,11916 2067,11895 2074,11874 2084,11855 2095,11836 2108,11819 2122,11803 2138,11788 2155,11776 2174,11764 2193,11755 2214,11747 2235,11742 2257,11738 2280,11737 3737,11737 3760,11738 3782,11742 3803,11747 3823,11755 3843,11764 3861,11776 3879,11788 3894,11803 3909,11819 3922,11836 3933,11855 3942,11874 3950,11895 3955,11916 3959,11938 3960,11961 3959,11984 3955,12006 3950,12028 3942,12048 3933,12068 3922,12086 3909,12103 3894,12119 3879,12133 3861,12146 3843,12157 3823,12167 3803,12174 3782,12180 3760,12183 3737,12184 Z"/>
       </g>
      </g>
      <g class="com.sun.star.drawing.PolyPolygonShape">
       <g id="id33">
        <rect class="BoundingBox" stroke="none" fill="none" x="4703" y="11737" width="5128" height="449"/>
        <path fill="rgb(91,172,245)" stroke="none" d="M 9606,12184 L 4927,12184 4904,12183 4882,12180 4860,12174 4840,12167 4820,12157 4802,12146 4785,12133 4769,12119 4755,12103 4742,12086 4731,12068 4721,12048 4714,12028 4708,12006 4705,11984 4704,11961 4705,11938 4708,11916 4714,11895 4721,11874 4731,11855 4742,11836 4755,11819 4769,11803 4785,11788 4802,11776 4820,11764 4840,11755 4860,11747 4882,11742 4904,11738 4927,11737 9606,11737 9629,11738 9651,11742 9673,11747 9693,11755 9713,11764 9731,11776 9748,11788 9764,11803 9778,11819 9791,11836 9802,11855 9812,11874 9819,11895 9825,11916 9828,11938 9829,11961 9828,11984 9825,12006 9819,12028 9812,12048 9802,12068 9791,12086 9778,12103 9764,12119 9748,12133 9731,12146 9713,12157 9693,12167 9673,12174 9651,12180 9629,12183 9606,12184 Z"/>
       </g>
      </g>
      <g class="com.sun.star.drawing.PolyPolygonShape">
       <g id="id34">
        <rect class="BoundingBox" stroke="none" fill="none" x="10573" y="11737" width="1905" height="449"/>
        <path fill="rgb(255,255,255)" stroke="none" d="M 12253,12184 L 10796,12184 10773,12183 10751,12180 10730,12174 10710,12167 10690,12157 10672,12146 10654,12133 10639,12119 10624,12103 10611,12086 10600,12068 10591,12048 10583,12028 10578,12006 10574,11984 10573,11961 10574,11938 10578,11916 10583,11895 10591,11874 10600,11855 10611,11836 10624,11819 10639,11803 10654,11788 10672,11776 10690,11764 10710,11755 10730,11747 10751,11742 10773,11738 10796,11737 12253,11737 12276,11738 12298,11742 12319,11747 12340,11755 12359,11764 12378,11776 12395,11788 12411,11803 12425,11819 12438,11836 12449,11855 12459,11874 12466,11895 12472,11916 12475,11938 12476,11961 12475,11984 12472,12006 12466,12028 12459,12048 12449,12068 12438,12086 12425,12103 12411,12119 12395,12133 12378,12146 12359,12157 12340,12167 12319,12174 12298,12180 12276,12183 12253,12184 Z"/>
       </g>
      </g>
      <g class="Graphic">
       <g id="id35">
        <rect class="BoundingBox" stroke="none" fill="none" x="11206" y="10806" width="4947" height="4947"/>
        <defs>
         <clipPath id="clip_path_2" clipPathUnits="userSpaceOnUse">
          <path d="M 11206,10806 L 16152,10806 16152,15752 11206,15752 11206,10806 Z"/>
         </clipPath>
        </defs>
        <g clip-path="url(#clip_path_2)">
         <path fill="rgb(71,130,28)" stroke="none" d="M 11219,13813 C 11247,13755 11309,13723 11372,13736 11696,13798 12039,13959 12394,14212 12672,14411 12958,14669 13245,14977 13247,14979 13249,14982 13252,14984 L 12283,14984 C 12187,14878 12096,14781 12013,14695 11589,14255 11260,13983 11257,13980 11208,13940 11192,13871 11219,13813 L 11219,13813 Z"/>
         <path fill="rgb(78,144,30)" stroke="none" d="M 11443,12776 C 11482,12725 11550,12707 11609,12732 11912,12861 12215,13089 12509,13411 12739,13664 12966,13975 13182,14336 13323,14571 13441,14796 13532,14984 L 12677,14984 C 12463,14520 12226,14109 12036,13803 11712,13286 11447,12951 11445,12948 11405,12898 11404,12827 11443,12776 L 11443,12776 Z"/>
         <path fill="rgb(94,172,36)" stroke="none" d="M 11984,11987 C 12032,11944 12102,11938 12155,11973 12430,12155 12686,12434 12917,12804 13098,13095 13264,13442 13411,13836 13599,14339 13706,14785 13749,14984 L 12927,14984 C 12800,14257 12565,13571 12381,13104 12157,12537 11957,12159 11955,12155 11925,12099 11937,12029 11984,11987 L 11984,11987 Z"/>
         <path fill="rgb(109,200,42)" stroke="none" d="M 13183,14983 C 13183,14978 13184,14973 13184,14969 13232,14144 13127,13315 13030,12765 12925,12164 12806,11755 12805,11751 12787,11690 12812,11624 12865,11591 12918,11558 12986,11567 13030,11612 13258,11843 13449,12168 13599,12576 13716,12895 13808,13268 13874,13684 13983,14379 13979,14951 13978,14987 L 13183,14983 13183,14983 Z"/>
         <path fill="rgb(78,144,30)" stroke="none" d="M 16139,13813 C 16111,13755 16049,13723 15986,13736 15662,13798 15319,13959 14964,14212 14686,14411 14400,14669 14113,14977 14111,14979 14109,14982 14106,14984 L 15075,14984 C 15171,14878 15262,14781 15345,14695 15769,14255 16098,13983 16101,13980 16150,13940 16166,13871 16139,13813 L 16139,13813 Z"/>
         <path fill="rgb(94,172,36)" stroke="none" d="M 15915,12776 C 15876,12725 15808,12707 15749,12732 15446,12861 15143,13089 14849,13411 14619,13664 14392,13975 14176,14336 14035,14571 13917,14796 13826,14984 L 14681,14984 C 14895,14520 15132,14109 15322,13803 15646,13286 15911,12951 15913,12948 15953,12898 15954,12827 15915,12776 L 15915,12776 Z"/>
         <path fill="rgb(109,200,42)" stroke="none" d="M 15374,11987 C 15326,11944 15256,11938 15203,11973 14928,12155 14672,12434 14441,12804 14260,13095 14094,13442 13947,13836 13759,14339 13652,14785 13609,14984 L 14431,14984 C 14558,14257 14793,13571 14977,13104 15201,12537 15401,12159 15403,12155 15433,12099 15421,12029 15374,11987 L 15374,11987 Z"/>
         <path fill="rgb(145,220,90)" stroke="none" d="M 14190,14984 C 14190,14979 14190,14974 14189,14969 14144,14145 14256,13317 14358,12767 14469,12166 14593,11758 14594,11754 14613,11693 14588,11627 14533,11594 14479,11560 14408,11568 14363,11613 14128,11844 13930,12167 13774,12575 13652,12894 13555,13266 13486,13681 13370,14377 13372,14948 13372,14984 L 14190,14984 14190,14984 14190,14984 Z"/>
         <path fill="rgb(71,130,28)" stroke="none" d="M 12367,14984 L 11677,14984 C 11635,14984 11601,14950 11601,14908 11601,14866 11635,14833 11677,14833 L 12367,14833 C 12409,14833 12443,14866 12443,14908 12443,14950 12409,14984 12367,14984 L 12367,14984 Z"/>
         <path fill="rgb(71,130,28)" stroke="none" d="M 11418,14984 L 11287,14984 C 11245,14984 11211,14950 11211,14908 11211,14866 11245,14833 11287,14833 L 11418,14833 C 11460,14833 11494,14866 11494,14908 11494,14950 11460,14984 11418,14984 L 11418,14984 Z"/>
         <path fill="rgb(78,144,30)" stroke="none" d="M 15499,14984 L 14941,14984 C 14899,14984 14865,14950 14865,14908 14865,14866 14899,14833 14941,14833 L 15499,14833 C 15541,14833 15575,14866 15575,14908 15575,14950 15541,14984 15499,14984 L 15499,14984 Z"/>
         <path fill="rgb(78,144,30)" stroke="none" d="M 16065,14984 L 15768,14984 C 15727,14984 15693,14950 15693,14908 15693,14866 15727,14833 15768,14833 L 16065,14833 C 16106,14833 16140,14866 16140,14908 16140,14950 16106,14984 16065,14984 L 16065,14984 Z"/>
         <path fill="rgb(94,172,36)" stroke="none" d="M 13826,14683 C 13785,14683 13751,14651 13750,14609 13744,14353 13757,14078 13788,13793 13793,13752 13830,13722 13872,13726 13913,13731 13943,13768 13939,13810 13908,14088 13895,14356 13901,14606 13902,14648 13869,14682 13827,14683 13827,14683 13826,14683 13826,14683 L 13826,14683 Z"/>
         <path fill="rgb(94,172,36)" stroke="none" d="M 13909,13544 C 13905,13544 13901,13544 13897,13543 13855,13536 13827,13498 13834,13456 13870,13229 13903,13089 13905,13083 13915,13042 13955,13017 13996,13027 14037,13037 14062,13077 14052,13118 14052,13119 14018,13260 13983,13480 13977,13517 13945,13544 13909,13544 L 13909,13544 Z"/>
        </g>
       </g>
      </g>
     </g>
    </g>
   </g>
  </g>
 </g>
</svg>