<?xml version="1.0" encoding="UTF-8"?>
<!DOCTYPE svg PUBLIC "-//W3C//DTD SVG 1.1//EN" "http://www.w3.org/Graphics/SVG/1.1/DTD/svg11.dtd">
<svg version="1.2" width="206.1mm" height="206.1mm" viewBox="0 0 20610 20610" preserveAspectRatio="xMidYMid" fill-rule="evenodd" stroke-width="28.222" stroke-linejoin="round" xmlns="http://www.w3.org/2000/svg" xmlns:ooo="http://xml.openoffice.org/svg/export" xmlns:xlink="http://www.w3.org/1999/xlink" xmlns:presentation="http://sun.com/xmlns/staroffice/presentation" xmlns:smil="http://www.w3.org/2001/SMIL20/" xmlns:anim="urn:oasis:names:tc:opendocument:xmlns:animation:1.0" xml:space="preserve">
 <defs class="ClipPathGroup">
  <clipPath id="presentation_clip_path" clipPathUnits="userSpaceOnUse">
   <rect x="0" y="0" width="20610" height="20610"/>
  </clipPath>
  <clipPath id="presentation_clip_path_shrink" clipPathUnits="userSpaceOnUse">
   <rect x="20" y="20" width="20569" height="20569"/>
  </clipPath>
 </defs>
 <defs class="TextShapeIndex">
  <g ooo:slide="id1" ooo:id-list="id3 id4 id5 id6 id7 id8 id9 id10 id11 id12 id13 id14 id15 id16 id17 id18 id19 id20 id21 id22 id23 id24 id25 id26 id27 id28 id29 id30"/>
 </defs>
 <defs class="EmbeddedBulletChars">
  <g id="bullet-char-template-57356" transform="scale(0.00048828125,-0.00048828125)">
   <path d="M 580,1141 L 1163,571 580,0 -4,571 580,1141 Z"/>
  </g>
  <g id="bullet-char-template-57354" transform="scale(0.00048828125,-0.00048828125)">
   <path d="M 8,1128 L 1137,1128 1137,0 8,0 8,1128 Z"/>
  </g>
  <g id="bullet-char-template-10146" transform="scale(0.00048828125,-0.00048828125)">
   <path d="M 174,0 L 602,739 174,1481 1456,739 174,0 Z M 1358,739 L 309,1346 659,739 1358,739 Z"/>
  </g>
  <g id="bullet-char-template-10132" transform="scale(0.00048828125,-0.00048828125)">
   <path d="M 2015,739 L 1276,0 717,0 1260,543 174,543 174,936 1260,936 717,1481 1274,1481 2015,739 Z"/>
  </g>
  <g id="bullet-char-template-10007" transform="scale(0.00048828125,-0.00048828125)">
   <path d="M 0,-2 C -7,14 -16,27 -25,37 L 356,567 C 262,823 215,952 215,954 215,979 228,992 255,992 264,992 276,990 289,987 310,991 331,999 354,1012 L 381,999 492,748 772,1049 836,1024 860,1049 C 881,1039 901,1025 922,1006 886,937 835,863 770,784 769,783 710,716 594,584 L 774,223 C 774,196 753,168 711,139 L 727,119 C 717,90 699,76 672,76 641,76 570,178 457,381 L 164,-76 C 142,-110 111,-127 72,-127 30,-127 9,-110 8,-76 1,-67 -2,-52 -2,-32 -2,-23 -1,-13 0,-2 Z"/>
  </g>
  <g id="bullet-char-template-10004" transform="scale(0.00048828125,-0.00048828125)">
   <path d="M 285,-33 C 182,-33 111,30 74,156 52,228 41,333 41,471 41,549 55,616 82,672 116,743 169,778 240,778 293,778 328,747 346,684 L 369,508 C 377,444 397,411 428,410 L 1163,1116 C 1174,1127 1196,1133 1229,1133 1271,1133 1292,1118 1292,1087 L 1292,965 C 1292,929 1282,901 1262,881 L 442,47 C 390,-6 338,-33 285,-33 Z"/>
  </g>
  <g id="bullet-char-template-9679" transform="scale(0.00048828125,-0.00048828125)">
   <path d="M 813,0 C 632,0 489,54 383,161 276,268 223,411 223,592 223,773 276,916 383,1023 489,1130 632,1184 813,1184 992,1184 1136,1130 1245,1023 1353,916 1407,772 1407,592 1407,412 1353,268 1245,161 1136,54 992,0 813,0 Z"/>
  </g>
  <g id="bullet-char-template-8226" transform="scale(0.00048828125,-0.00048828125)">
   <path d="M 346,457 C 273,457 209,483 155,535 101,586 74,649 74,723 74,796 101,859 155,911 209,963 273,989 346,989 419,989 480,963 531,910 582,859 608,796 608,723 608,648 583,586 532,535 482,483 420,457 346,457 Z"/>
  </g>
  <g id="bullet-char-template-8211" transform="scale(0.00048828125,-0.00048828125)">
   <path d="M -4,459 L 1135,459 1135,606 -4,606 -4,459 Z"/>
  </g>
  <g id="bullet-char-template-61548" transform="scale(0.00048828125,-0.00048828125)">
   <path d="M 173,740 C 173,903 231,1043 346,1159 462,1274 601,1332 765,1332 928,1332 1067,1274 1183,1159 1299,1043 1357,903 1357,740 1357,577 1299,437 1183,322 1067,206 928,148 765,148 601,148 462,206 346,322 231,437 173,577 173,740 Z"/>
  </g>
 </defs>
 <defs class="TextEmbeddedBitmaps"/>
 <g>
  <g id="id2" class="Master_Slide">
   <g id="bg-id2" class="Background"/>
   <g id="bo-id2" class="BackgroundObjects"/>
  </g>
 </g>
 <g class="SlideGroup">
  <g>
   <g id="container-id1">
    <g id="id1" class="Slide" clip-path="url(#presentation_clip_path)">
     <g class="Page">
      <g class="Group">
       <g class="Group">
        <g class="com.sun.star.drawing.PolyPolygonShape">
         <g id="id3">
          <rect class="BoundingBox" stroke="none" fill="none" x="-7435" y="-1036" width="28902" height="22503"/>
          <path fill="rgb(103,207,227)" fill-opacity="0.298" stroke="rgb(255,255,255)" stroke-opacity="0.298" d="M 3978,-1036 L 2809,-978 1674,-807 580,-530 -469,-151 -1467,323 -2408,887 -3287,1534 -4096,2261 -4832,3060 -5489,3926 -6059,4854 -6539,5837 -6922,6871 -7203,7949 -7376,9065 -7434,10215 -7376,11365 -7203,12481 -6922,13559 -6539,14593 -6059,15576 -5489,16504 -4832,17370 -4096,18169 -3287,18896 -2408,19543 -1467,20107 -469,20581 580,20960 1674,21237 2809,21408 3978,21466 21465,21466 21465,-1036 3978,-1036 Z"/>
         </g>
        </g>
        <g class="com.sun.star.drawing.PolyPolygonShape">
         <g id="id4">
          <rect class="BoundingBox" stroke="none" fill="none" x="6761" y="4517" width="3608" height="1426"/>
          <path fill="rgb(213,222,233)" stroke="none" d="M 9655,4518 L 7473,4518 7400,4521 7330,4532 7261,4550 7196,4574 7134,4604 7075,4639 7020,4680 6970,4726 6924,4777 6883,4832 6847,4890 6817,4953 6793,5018 6776,5086 6765,5157 6761,5230 6765,5302 6776,5373 6793,5441 6817,5507 6847,5569 6883,5628 6924,5682 6970,5733 7020,5779 7075,5820 7134,5856 7196,5886 7261,5910 7330,5927 7400,5938 7473,5942 9655,5942 9728,5938 9799,5927 9867,5910 9932,5886 9994,5856 10053,5820 10108,5779 10159,5733 10204,5682 10245,5628 10281,5569 10311,5507 10335,5441 10353,5373 10363,5302 10367,5230 10363,5157 10353,5086 10335,5018 10311,4953 10281,4890 10245,4832 10204,4777 10159,4726 10108,4680 10053,4639 9994,4604 9932,4574 9867,4550 9799,4532 9728,4521 9655,4518 Z"/>
         </g>
        </g>
        <g class="com.sun.star.drawing.PolyPolygonShape">
         <g id="id5">
          <rect class="BoundingBox" stroke="none" fill="none" x="1460" y="4417" width="3608" height="1426"/>
          <path fill="rgb(213,222,233)" stroke="none" d="M 4355,4418 L 2173,4418 2100,4421 2029,4432 1961,4450 1896,4474 1834,4503 1775,4539 1720,4580 1670,4626 1624,4677 1583,4731 1547,4790 1517,4852 1493,4918 1475,4986 1465,5057 1461,5130 1465,5202 1475,5273 1493,5341 1517,5407 1547,5469 1583,5528 1624,5583 1670,5633 1720,5679 1775,5720 1834,5756 1896,5786 1961,5810 2029,5827 2100,5838 2173,5842 4355,5842 4427,5838 4498,5827 4566,5810 4632,5786 4694,5756 4753,5720 4807,5679 4858,5633 4904,5583 4945,5528 4981,5469 5011,5407 5035,5341 5052,5273 5063,5202 5067,5130 5063,5057 5052,4986 5035,4918 5011,4852 4981,4790 4945,4731 4904,4677 4858,4626 4807,4580 4753,4539 4694,4503 4632,4474 4566,4450 4498,4432 4427,4421 4355,4418 Z"/>
         </g>
        </g>
        <g class="com.sun.star.drawing.PolyPolygonShape">
         <g id="id6">
          <rect class="BoundingBox" stroke="none" fill="none" x="1460" y="4417" width="1805" height="1426"/>
          <path fill="rgb(103,207,227)" fill-opacity="0.298" stroke="rgb(255,255,255)" stroke-opacity="0.298" d="M 2173,4418 L 2100,4421 2029,4432 1961,4450 1896,4474 1834,4503 1775,4539 1720,4580 1670,4626 1624,4677 1583,4731 1547,4790 1517,4852 1493,4918 1475,4986 1465,5057 1461,5130 1465,5202 1475,5273 1493,5341 1517,5407 1547,5469 1583,5528 1624,5583 1670,5633 1720,5679 1775,5720 1834,5756 1896,5786 1961,5810 2029,5827 2100,5838 2173,5842 3264,5842 3264,4418 2173,4418 Z"/>
         </g>
        </g>
        <g class="com.sun.star.drawing.PolyPolygonShape">
         <g id="id7">
          <rect class="BoundingBox" stroke="none" fill="none" x="4166" y="3215" width="3128" height="3128"/>
          <path fill="rgb(254,221,61)" stroke="none" d="M 7293,4779 L 7289,4885 7280,4987 7264,5087 7241,5184 7212,5280 7176,5374 7133,5467 7083,5561 7027,5651 6968,5735 6904,5813 6836,5886 6763,5954 6685,6018 6601,6077 6511,6133 6417,6183 6324,6226 6230,6262 6135,6291 6037,6313 5938,6329 5836,6339 5730,6342 5624,6339 5521,6329 5422,6313 5325,6291 5229,6262 5135,6226 5042,6183 4949,6133 4858,6077 4774,6018 4696,5954 4623,5886 4555,5813 4492,5735 4432,5651 4377,5561 4326,5467 4283,5374 4247,5280 4218,5184 4195,5087 4179,4987 4170,4885 4167,4779 4170,4673 4179,4570 4195,4471 4218,4374 4247,4278 4283,4184 4326,4091 4377,3998 4432,3908 4492,3824 4555,3745 4623,3672 4696,3604 4774,3541 4858,3481 4949,3426 5042,3376 5135,3332 5229,3296 5325,3267 5422,3244 5521,3228 5624,3219 5730,3216 5836,3219 5938,3228 6037,3244 6135,3267 6230,3296 6324,3332 6417,3376 6511,3426 6601,3481 6685,3541 6763,3604 6836,3672 6904,3745 6968,3824 7027,3908 7083,3998 7133,4091 7176,4184 7212,4278 7241,4374 7264,4471 7280,4570 7289,4673 7293,4779 Z"/>
         </g>
        </g>
        <g class="com.sun.star.drawing.PolyPolygonShape">
         <g id="id8">
          <rect class="BoundingBox" stroke="none" fill="none" x="4166" y="3215" width="1565" height="3128"/>
          <path fill="rgb(255,149,0)" fill-opacity="0.298" stroke="rgb(255,255,255)" stroke-opacity="0.298" d="M 5730,3216 L 5570,3224 5415,3248 5265,3286 5121,3339 4985,3404 4856,3483 4736,3573 4625,3674 4524,3785 4434,3905 4355,4034 4290,4170 4237,4314 4198,4464 4175,4619 4167,4779 4175,4938 4198,5094 4237,5243 4290,5387 4355,5524 4434,5652 4524,5773 4625,5884 4736,5985 4856,6075 4985,6153 5121,6219 5265,6271 5415,6310 5570,6334 5730,6342 5730,3216 Z"/>
         </g>
        </g>
        <g class="com.sun.star.drawing.PolyPolygonShape">
         <g id="id9">
          <rect class="BoundingBox" stroke="none" fill="none" x="13967" y="11841" width="1805" height="1426"/>
          <path fill="rgb(103,207,227)" fill-opacity="0.298" stroke="rgb(255,255,255)" stroke-opacity="0.298" d="M 14679,11842 L 14606,11845 14536,11856 14467,11874 14402,11898 14340,11928 14281,11963 14226,12004 14176,12050 14130,12101 14089,12156 14053,12214 14023,12277 13999,12342 13982,12410 13971,12481 13967,12554 13971,12626 13982,12697 13999,12765 14023,12831 14053,12893 14089,12952 14130,13006 14176,13057 14226,13103 14281,13144 14340,13180 14402,13210 14467,13234 14536,13251 14606,13262 14679,13266 15770,13266 15770,11842 14679,11842 Z"/>
         </g>
        </g>
        <g class="com.sun.star.drawing.PolyPolygonShape">
         <g id="id10">
          <rect class="BoundingBox" stroke="none" fill="none" x="8149" y="11556" width="11319" height="7612"/>
          <path fill="rgb(33,134,73)" stroke="none" d="M 8150,19166 L 12201,12479 12361,12262 12531,12075 12710,11917 12897,11787 13090,11686 13287,11614 13488,11571 13690,11556 13892,11571 14092,11614 14290,11686 14483,11787 14670,11917 14849,12075 15019,12262 15178,12479 19466,19166 8150,19166 Z"/>
         </g>
        </g>
        <g class="com.sun.star.drawing.PolyPolygonShape">
         <g id="id11">
          <rect class="BoundingBox" stroke="none" fill="none" x="11671" y="11556" width="4087" height="2725"/>
          <path fill="rgb(255,255,255)" stroke="none" d="M 15178,12479 L 15019,12262 14849,12075 14670,11917 14483,11787 14290,11686 14092,11614 13892,11571 13690,11556 13487,11571 13287,11614 13089,11686 12897,11787 12710,11917 12531,12075 12361,12262 12201,12479 11672,13354 11768,13457 11871,13556 11978,13650 12090,13737 12206,13820 12327,13896 12452,13966 12581,14029 12713,14086 12849,14136 12989,14179 13131,14215 13276,14243 13424,14263 13574,14275 13726,14280 13876,14275 14024,14264 14169,14244 14312,14217 14452,14182 14590,14141 14724,14092 14855,14037 14982,13975 15105,13908 15225,13834 15340,13754 15451,13669 15558,13578 15660,13482 15756,13381 15178,12479 Z"/>
         </g>
        </g>
        <g class="com.sun.star.drawing.PolyPolygonShape">
         <g id="id12">
          <rect class="BoundingBox" stroke="none" fill="none" x="8148" y="11556" width="5578" height="7610"/>
          <path fill="rgb(34,34,34)" fill-opacity="0.2" stroke="rgb(255,255,255)" stroke-opacity="0.2" d="M 12199,12478 L 8149,19164 13724,19164 13724,11557 13621,11558 13518,11566 13415,11583 13313,11606 13211,11637 13110,11676 13011,11722 12912,11776 12816,11837 12721,11906 12628,11983 12537,12066 12449,12158 12363,12257 12199,12478 Z"/>
         </g>
        </g>
        <g class="com.sun.star.drawing.PolyPolygonShape">
         <g id="id13">
          <rect class="BoundingBox" stroke="none" fill="none" x="4366" y="12529" width="9872" height="6639"/>
          <path fill="rgb(119,188,31)" stroke="none" d="M 4367,19166 L 7900,13335 8039,13146 8187,12983 8343,12844 8506,12731 8675,12643 8847,12580 9022,12542 9198,12530 9374,12542 9549,12580 9722,12643 9890,12731 10053,12844 10209,12983 10358,13146 10497,13335 14236,19166 4367,19166 Z"/>
         </g>
        </g>
        <g class="com.sun.star.drawing.PolyPolygonShape">
         <g id="id14">
          <rect class="BoundingBox" stroke="none" fill="none" x="7430" y="12529" width="3579" height="2397"/>
          <path fill="rgb(255,255,255)" stroke="none" d="M 10496,13335 L 10357,13146 10209,12983 10052,12844 9890,12731 9721,12643 9549,12580 9374,12542 9198,12530 9022,12542 8847,12580 8675,12643 8506,12731 8343,12844 8187,12983 8039,13146 7900,13335 7431,14109 7515,14200 7605,14287 7698,14369 7796,14447 7898,14519 8004,14586 8113,14648 8226,14704 8342,14754 8461,14798 8583,14836 8708,14867 8835,14892 8965,14910 9096,14921 9230,14924 9361,14921 9491,14910 9618,14893 9744,14869 9867,14839 9987,14802 10105,14759 10219,14711 10331,14656 10439,14597 10543,14532 10644,14461 10741,14386 10834,14306 10923,14222 11008,14133 10496,13335 Z"/>
         </g>
        </g>
        <g class="com.sun.star.drawing.PolyPolygonShape">
         <g id="id15">
          <rect class="BoundingBox" stroke="none" fill="none" x="4367" y="12530" width="4864" height="6638"/>
          <path fill="rgb(34,34,34)" fill-opacity="0.2" stroke="rgb(255,255,255)" stroke-opacity="0.2" d="M 7900,13335 L 4367,19166 9230,19166 9230,12531 9139,12532 9049,12539 8960,12553 8870,12574 8782,12601 8694,12635 8607,12675 8521,12722 8437,12776 8354,12836 8273,12902 8194,12976 8117,13056 8042,13142 7970,13235 7900,13335 Z"/>
         </g>
        </g>
        <g class="com.sun.star.drawing.PolyPolygonShape">
         <g id="id16">
          <rect class="BoundingBox" stroke="none" fill="none" x="13067" y="7439" width="3607" height="1426"/>
          <path fill="rgb(213,222,233)" stroke="none" d="M 15961,7439 L 13779,7439 13706,7443 13636,7454 13567,7471 13502,7495 13440,7525 13381,7561 13326,7602 13276,7648 13230,7699 13189,7753 13153,7812 13123,7874 13099,7940 13081,8008 13071,8079 13067,8151 13071,8224 13081,8295 13099,8363 13123,8428 13153,8491 13189,8549 13230,8604 13276,8655 13326,8701 13381,8742 13440,8777 13502,8807 13567,8831 13636,8849 13706,8860 13779,8863 15961,8863 16034,8860 16104,8849 16172,8831 16238,8807 16300,8777 16359,8742 16414,8701 16464,8655 16510,8604 16551,8549 16587,8491 16617,8428 16641,8363 16658,8295 16669,8224 16673,8151 16669,8079 16658,8008 16641,7940 16617,7874 16587,7812 16551,7753 16510,7699 16464,7648 16414,7602 16359,7561 16300,7525 16238,7495 16172,7471 16104,7454 16034,7443 15961,7439 Z"/>
         </g>
        </g>
        <g class="com.sun.star.drawing.PolyPolygonShape">
         <g id="id17">
          <rect class="BoundingBox" stroke="none" fill="none" x="13167" y="7418" width="1804" height="1426"/>
          <path fill="rgb(103,207,227)" fill-opacity="0.298" stroke="rgb(255,255,255)" stroke-opacity="0.298" d="M 13167,8130 L 13171,8203 13181,8274 13199,8342 13223,8407 13253,8470 13289,8528 13330,8583 13376,8634 13426,8680 13481,8721 13540,8756 13602,8786 13667,8810 13736,8828 13806,8839 13879,8842 14970,8842 14970,7418 13879,7418 13806,7422 13736,7433 13667,7450 13602,7474 13540,7504 13481,7540 13426,7581 13376,7627 13330,7678 13289,7732 13253,7791 13223,7853 13199,7919 13181,7987 13171,8058 13167,8130 Z"/>
         </g>
        </g>
        <g class="com.sun.star.drawing.PolyPolygonShape">
         <g id="id18">
          <rect class="BoundingBox" stroke="none" fill="none" x="24848" y="5856" width="9820" height="6712"/>
          <path fill="rgb(33,134,73)" stroke="none" d="M 24849,12566 L 28364,6670 28502,6479 28650,6314 28805,6174 28967,6060 29134,5971 29306,5907 29480,5869 29655,5856 29830,5869 30004,5907 30176,5971 30343,6060 30505,6174 30660,6314 30808,6479 30946,6670 34666,12566 24849,12566 Z"/>
         </g>
        </g>
        <g class="com.sun.star.drawing.PolyPolygonShape">
         <g id="id19">
          <rect class="BoundingBox" stroke="none" fill="none" x="27903" y="5856" width="3546" height="2403"/>
          <path fill="rgb(255,255,255)" stroke="none" d="M 30946,6670 L 30808,6479 30660,6314 30505,6174 30343,6060 30175,5971 30004,5907 29830,5869 29655,5856 29479,5869 29305,5907 29134,5971 28967,6060 28805,6174 28649,6314 28502,6479 28364,6670 27904,7441 27988,7533 28077,7620 28170,7702 28267,7779 28368,7852 28473,7919 28581,7981 28693,8037 28808,8087 28926,8131 29047,8169 29170,8200 29296,8225 29424,8243 29554,8254 29687,8257 29817,8254 29945,8243 30071,8226 30195,8202 30316,8172 30436,8135 30552,8092 30665,8044 30776,7989 30883,7929 30987,7864 31087,7794 31183,7719 31276,7639 31364,7554 31448,7465 30946,6670 Z"/>
         </g>
        </g>
        <g class="com.sun.star.drawing.PolyPolygonShape">
         <g id="id20">
          <rect class="BoundingBox" stroke="none" fill="none" x="24847" y="5856" width="4839" height="6710"/>
          <path fill="rgb(34,34,34)" fill-opacity="0.2" stroke="rgb(255,255,255)" stroke-opacity="0.2" d="M 28362,6669 L 24848,12564 29685,12564 29685,5857 29595,5858 29506,5865 29416,5879 29328,5900 29239,5928 29152,5962 29066,6003 28981,6050 28897,6104 28814,6165 28734,6232 28655,6306 28578,6387 28504,6474 28362,6669 Z"/>
         </g>
        </g>
        <g class="com.sun.star.drawing.PolyPolygonShape">
         <g id="id21">
          <rect class="BoundingBox" stroke="none" fill="none" x="21567" y="6714" width="8564" height="5854"/>
          <path fill="rgb(119,188,31)" stroke="none" d="M 21567,12566 L 24632,7424 24752,7258 24881,7114 25017,6992 25158,6892 25304,6814 25454,6759 25605,6726 25758,6715 25911,6726 26063,6759 26212,6814 26358,6892 26500,6992 26635,7114 26764,7258 26885,7424 30129,12566 21567,12566 Z"/>
         </g>
        </g>
        <g class="com.sun.star.drawing.PolyPolygonShape">
         <g id="id22">
          <rect class="BoundingBox" stroke="none" fill="none" x="24224" y="6714" width="3105" height="2114"/>
          <path fill="rgb(255,255,255)" stroke="none" d="M 26884,7424 L 26763,7258 26635,7114 26499,6992 26358,6892 26212,6814 26063,6759 25911,6726 25758,6715 25605,6726 25453,6759 25304,6814 25158,6892 25017,6992 24881,7114 24752,7258 24632,7424 24225,8107 24298,8187 24376,8264 24457,8337 24542,8405 24630,8469 24722,8528 24817,8582 24915,8632 25016,8676 25119,8715 25225,8748 25333,8776 25443,8797 25556,8813 25670,8823 25786,8826 25900,8823 26012,8814 26123,8798 26232,8777 26338,8750 26443,8718 26545,8680 26644,8638 26741,8590 26834,8537 26925,8480 27013,8418 27097,8351 27178,8281 27255,8206 27328,8128 26884,7424 Z"/>
         </g>
        </g>
        <g class="com.sun.star.drawing.PolyPolygonShape">
         <g id="id23">
          <rect class="BoundingBox" stroke="none" fill="none" x="21567" y="6715" width="4220" height="5853"/>
          <path fill="rgb(34,34,34)" fill-opacity="0.2" stroke="rgb(255,255,255)" stroke-opacity="0.2" d="M 24632,7424 L 21567,12566 25786,12566 25786,6715 25707,6716 25629,6723 25551,6735 25474,6754 25397,6778 25321,6807 25245,6843 25171,6884 25098,6931 25026,6984 24956,7043 24887,7108 24820,7178 24755,7254 24692,7336 24632,7424 Z"/>
         </g>
        </g>
       </g>
       <g class="com.sun.star.drawing.PolyPolygonShape">
        <g id="id24">
         <rect class="BoundingBox" stroke="none" fill="none" x="11532" y="4708" width="1693" height="590"/>
         <path fill="rgb(135,27,27)" stroke="none" d="M 12380,5297 L 11532,5297 11532,4709 13224,4709 13224,5297 12380,5297 Z"/>
        </g>
       </g>
       <g class="com.sun.star.drawing.PolyPolygonShape">
        <g id="id25">
         <rect class="BoundingBox" stroke="none" fill="none" x="9166" y="1664" width="341" height="11080"/>
         <path fill="rgb(66,74,96)" stroke="none" d="M 9336,1665 L 9319,1666 9302,1669 9285,1673 9269,1679 9255,1687 9241,1696 9228,1706 9216,1718 9205,1731 9195,1745 9187,1761 9180,1777 9174,1794 9170,1812 9168,1831 9167,1850 9167,2405 9167,12557 9168,12576 9170,12595 9174,12613 9180,12630 9187,12646 9196,12662 9205,12676 9216,12689 9228,12701 9241,12711 9255,12720 9270,12728 9286,12734 9302,12738 9319,12741 9336,12742 9354,12741 9371,12738 9387,12734 9402,12728 9417,12720 9431,12711 9444,12701 9456,12689 9467,12676 9477,12662 9485,12646 9493,12630 9498,12613 9502,12595 9505,12576 9506,12557 9506,2405 9506,1850 9505,1831 9502,1812 9498,1794 9492,1777 9485,1761 9476,1745 9467,1731 9456,1718 9444,1706 9430,1696 9416,1687 9402,1679 9386,1673 9370,1669 9353,1666 9336,1665 Z"/>
        </g>
       </g>
       <g class="com.sun.star.drawing.PolyPolygonShape">
        <g id="id26">
         <rect class="BoundingBox" stroke="none" fill="none" x="9505" y="2058" width="3720" height="2849"/>
         <path fill="rgb(221,53,46)" stroke="none" d="M 11363,4905 L 9506,4905 9506,2059 13224,2059 13224,4905 11363,4905 Z"/>
        </g>
       </g>
       <g class="com.sun.star.drawing.PolyPolygonShape">
        <g id="id27">
         <rect class="BoundingBox" stroke="none" fill="none" x="11532" y="2548" width="6937" height="3144"/>
         <path fill="rgb(192,58,43)" stroke="none" d="M 13224,2548 L 13224,4905 12210,4905 12141,4907 12074,4913 12010,4923 11947,4936 11888,4952 11832,4972 11780,4994 11732,5020 11688,5047 11649,5078 11615,5110 11586,5144 11563,5180 11546,5218 11536,5257 11532,5297 11536,5337 11546,5376 11563,5414 11586,5450 11615,5484 11649,5517 11688,5547 11732,5575 11780,5600 11832,5623 11888,5643 11947,5659 12010,5673 12074,5682 12141,5688 12210,5690 12888,5690 18467,5690 16606,4118 18467,2548 13224,2548 Z"/>
        </g>
       </g>
       <g class="com.sun.star.drawing.PolyPolygonShape">
        <g id="id28">
         <rect class="BoundingBox" stroke="none" fill="none" x="11532" y="4905" width="1693" height="787"/>
         <path fill="rgb(176,39,33)" stroke="none" d="M 11532,5297 L 11536,5337 11546,5376 11563,5414 11586,5450 11615,5485 11649,5517 11688,5547 11732,5575 11780,5601 11832,5623 11888,5643 11947,5660 12010,5673 12074,5682 12141,5688 12210,5690 12888,5690 13224,5690 13224,4905 12210,4905 12141,4907 12074,4913 12010,4923 11947,4936 11888,4953 11832,4972 11780,4995 11732,5020 11688,5048 11649,5078 11615,5110 11586,5145 11563,5180 11546,5218 11536,5257 11532,5297 Z"/>
        </g>
       </g>
       <g class="Graphic">
        <g id="id29">
         <rect class="BoundingBox" stroke="none" fill="none" x="8430" y="6405" width="9038" height="9038"/>
         <defs>
          <clipPath id="clip_path_1" clipPathUnits="userSpaceOnUse">
           <path d="M 8430,6405 L 17467,6405 17467,15442 8430,15442 8430,6405 Z"/>
          </clipPath>
         </defs>
         <g clip-path="url(#clip_path_1)">
          <path fill="rgb(109,65,22)" stroke="none" d="M 17185,13070 C 17644,13528 17493,14035 17088,14440 16683,14845 16176,14996 15718,14537 15259,14078 10565,8728 10971,8323 11376,7918 16726,12611 17185,13070 L 17185,13070 Z"/>
          <path fill="rgb(89,52,24)" stroke="none" d="M 10971,8323 C 11376,7918 16726,12611 17185,13070 17644,13528 17493,14035 17088,14440 Z"/>
          <path fill="rgb(151,175,198)" stroke="none" d="M 12549,7973 C 12759,8183 12760,8524 12549,8735 L 10857,10998 C 10647,11209 10527,11431 10316,11220 L 8515,9419 C 8305,9208 8526,9088 8736,8878 L 11000,7186 C 11210,6975 11552,6976 11762,7186 L 12549,7973 12549,7973 Z"/>
          <path fill="rgb(182,201,216)" stroke="none" d="M 10316,11220 L 8515,9419 C 8305,9208 8526,9088 8736,8878 Z"/>
          <path fill="rgb(165,7,7)" stroke="none" d="M 11000,7186 L 8893,8761 C 8877,8822 8895,8886 8972,8962 L 10773,10763 C 10849,10840 10913,10858 10974,10842 L 12549,8735 C 12759,8524 12759,8183 12549,7973 L 11763,7186 C 11552,6976 11211,6975 11000,7186 L 11000,7186 Z"/>
          <path fill="rgb(140,9,9)" stroke="none" d="M 10773,10763 C 10849,10839 10913,10858 10974,10842 L 12549,8735 C 12759,8524 12759,8183 12549,7973 L 11763,7186 C 11552,6976 11211,6976 11000,7186 Z"/>
          <path fill="rgb(142,90,43)" stroke="none" d="M 13822,9974 C 13863,10015 13863,10081 13822,10122 L 12770,11174 C 12730,11214 12663,11214 12623,11174 L 12623,11174 C 12582,11133 12582,11067 12623,11026 L 13674,9974 C 13715,9934 13781,9934 13822,9974 L 13822,9974 13822,9974 Z"/>
          <path fill="rgb(142,90,43)" stroke="none" d="M 13988,10140 C 14029,10181 14029,10248 13988,10288 L 12936,11340 C 12895,11380 12829,11380 12788,11340 L 12788,11340 C 12748,11299 12748,11233 12788,11192 L 13840,10140 C 13881,10100 13947,10100 13988,10140 L 13988,10140 13988,10140 Z"/>
          <path fill="rgb(142,90,43)" stroke="none" d="M 14154,10307 C 14195,10347 14195,10414 14154,10454 L 13102,11506 C 13062,11547 12995,11547 12955,11506 L 12955,11506 C 12914,11465 12914,11399 12955,11358 L 14006,10307 C 14047,10266 14113,10266 14154,10307 L 14154,10307 14154,10307 Z"/>
         </g>
        </g>
       </g>
       <g class="Graphic">
        <g id="id30">
         <rect class="BoundingBox" stroke="none" fill="none" x="67" y="8442" width="10301" height="10301"/>
         <path fill="rgb(204,164,0)" stroke="none" d="M 4348,15742 L 3890,15742 3890,8798 4806,8798 4806,15742 4348,15742 Z"/>
         <path fill="rgb(238,191,0)" stroke="none" d="M 4806,9340 L 8704,11363 4806,13386 4806,9340 Z"/>
         <path fill="rgb(255,228,119)" stroke="none" d="M 7138,12176 L 4806,10997 4806,10077 8036,11710 7138,12176 Z"/>
         <path fill="rgb(38,102,89)" stroke="none" d="M 6621,18732 L 2076,18732 C 1885,18732 1730,18576 1730,18386 L 1730,18386 C 1730,18195 1885,18040 2076,18040 L 6620,18040 C 6811,18040 6967,18195 6967,18386 L 6967,18386 C 6967,18576 6811,18732 6621,18732 L 6621,18732 Z"/>
         <path fill="rgb(38,102,89)" stroke="none" d="M 6621,16780 L 2076,16780 C 1885,16780 1730,16624 1730,16434 L 1730,16434 C 1730,16244 1885,16088 2076,16088 L 6620,16088 C 6811,16088 6967,16244 6967,16434 L 6967,16434 C 6967,16624 6811,16780 6621,16780 L 6621,16780 Z"/>
         <path fill="rgb(102,68,0)" fill-opacity="0.298" stroke="rgb(255,255,255)" stroke-opacity="0.298" d="M 6714,16103 C 6729,16141 6737,16182 6737,16225 L 6737,16225 C 6737,16415 6581,16571 6391,16571 L 1846,16571 C 1811,16571 1778,16566 1746,16556 1796,16687 1922,16780 2070,16780 L 6614,16780 C 6805,16780 6960,16624 6960,16434 L 6960,16434 C 6960,16278 6856,16146 6714,16103 L 6714,16103 Z"/>
         <path fill="rgb(102,68,0)" fill-opacity="0.298" stroke="rgb(255,255,255)" stroke-opacity="0.298" d="M 6714,18047 C 6729,18085 6737,18126 6737,18169 L 6737,18169 C 6737,18360 6581,18516 6391,18516 L 1846,18516 C 1811,18516 1778,18510 1746,18501 1796,18631 1922,18725 2070,18725 L 6614,18725 C 6805,18725 6960,18569 6960,18378 L 6960,18378 C 6960,18223 6856,18090 6714,18047 L 6714,18047 Z"/>
         <path fill="rgb(102,68,0)" stroke="none" d="M 5331,16088 L 3365,16088 C 3175,16088 3019,15932 3019,15742 L 3019,15742 C 3019,15551 3175,15396 3365,15396 L 5331,15396 C 5521,15396 5677,15551 5677,15742 L 5677,15742 C 5677,15932 5521,16088 5331,16088 L 5331,16088 Z"/>
         <path fill="rgb(86,54,29)" stroke="none" d="M 5459,15415 C 5479,15459 5491,15508 5491,15560 L 5491,15560 C 5491,15750 5335,15906 5145,15906 L 3179,15906 C 3140,15906 3102,15899 3066,15886 3121,16005 3241,16088 3380,16088 L 5345,16088 C 5536,16088 5691,15932 5691,15742 L 5691,15742 C 5691,15591 5594,15462 5459,15415 L 5459,15415 Z"/>
         <path fill="rgb(102,68,0)" stroke="none" d="M 5331,9144 L 3365,9144 C 3175,9144 3019,8989 3019,8798 L 3019,8798 C 3019,8608 3175,8452 3365,8452 L 5331,8452 C 5521,8452 5677,8608 5677,8798 L 5677,8798 C 5677,8989 5521,9144 5331,9144 L 5331,9144 Z"/>
         <path fill="rgb(238,191,0)" stroke="none" d="M 4379,18040 L 2389,18040 2389,16780 6369,16780 6369,18040 4379,18040 Z"/>
         <path fill="rgb(204,164,0)" stroke="none" d="M 4379,17186 L 2389,17186 2389,16780 6369,16780 6369,17186 4379,17186 Z"/>
         <path fill="rgb(204,164,0)" stroke="none" d="M 6006,18040 L 5644,18040 5644,16780 6369,16780 6369,18040 6006,18040 Z"/>
         <path fill="rgb(102,68,0)" fill-opacity="0.141" stroke="rgb(255,255,255)" stroke-opacity="0.141" d="M 4348,9496 L 3890,9496 3890,9144 4806,9144 4806,9496 4348,9496 Z"/>
         <path fill="rgb(86,54,29)" fill-opacity="0.09" stroke="rgb(255,255,255)" stroke-opacity="0.09" d="M 5455,9677 L 4806,9340 4806,13386 5455,13049 5455,9677 Z"/>
         <path fill="rgb(86,54,29)" stroke="none" d="M 5459,8488 C 5479,8532 5491,8581 5491,8632 L 5491,8632 C 5491,8823 5335,8978 5145,8978 L 3179,8978 C 3140,8978 3102,8971 3066,8959 3121,9077 3241,9160 3380,9160 L 5345,9160 C 5536,9160 5691,9005 5691,8814 L 5691,8814 C 5691,8664 5594,8535 5459,8488 L 5459,8488 Z"/>
        </g>
       </g>
      </g>
     </g>
    </g>
   </g>
  </g>
 </g>
</svg>