<?xml version="1.0" encoding="UTF-8"?>
<!DOCTYPE svg PUBLIC "-//W3C//DTD SVG 1.1//EN" "http://www.w3.org/Graphics/SVG/1.1/DTD/svg11.dtd">
<svg version="1.2" width="49.59mm" height="49.59mm" viewBox="0 0 4959 4959" preserveAspectRatio="xMidYMid" fill-rule="evenodd" stroke-width="28.222" stroke-linejoin="round" xmlns="http://www.w3.org/2000/svg" xmlns:ooo="http://xml.openoffice.org/svg/export" xmlns:xlink="http://www.w3.org/1999/xlink" xmlns:presentation="http://sun.com/xmlns/staroffice/presentation" xmlns:smil="http://www.w3.org/2001/SMIL20/" xmlns:anim="urn:oasis:names:tc:opendocument:xmlns:animation:1.0" xml:space="preserve">
 <defs class="ClipPathGroup">
  <clipPath id="presentation_clip_path" clipPathUnits="userSpaceOnUse">
   <rect x="0" y="0" width="4959" height="4959"/>
  </clipPath>
  <clipPath id="presentation_clip_path_shrink" clipPathUnits="userSpaceOnUse">
   <rect x="4" y="4" width="4950" height="4950"/>
  </clipPath>
 </defs>
 <defs class="TextShapeIndex">
  <g ooo:slide="id1" ooo:id-list="id3 id4 id5 id6"/>
 </defs>
 <defs class="EmbeddedBulletChars">
  <g id="bullet-char-template-57356" transform="scale(0.00048828125,-0.00048828125)">
   <path d="M 580,1141 L 1163,571 580,0 -4,571 580,1141 Z"/>
  </g>
  <g id="bullet-char-template-57354" transform="scale(0.00048828125,-0.00048828125)">
   <path d="M 8,1128 L 1137,1128 1137,0 8,0 8,1128 Z"/>
  </g>
  <g id="bullet-char-template-10146" transform="scale(0.00048828125,-0.00048828125)">
   <path d="M 174,0 L 602,739 174,1481 1456,739 174,0 Z M 1358,739 L 309,1346 659,739 1358,739 Z"/>
  </g>
  <g id="bullet-char-template-10132" transform="scale(0.00048828125,-0.00048828125)">
   <path d="M 2015,739 L 1276,0 717,0 1260,543 174,543 174,936 1260,936 717,1481 1274,1481 2015,739 Z"/>
  </g>
  <g id="bullet-char-template-10007" transform="scale(0.00048828125,-0.00048828125)">
   <path d="M 0,-2 C -7,14 -16,27 -25,37 L 356,567 C 262,823 215,952 215,954 215,979 228,992 255,992 264,992 276,990 289,987 310,991 331,999 354,1012 L 381,999 492,748 772,1049 836,1024 860,1049 C 881,1039 901,1025 922,1006 886,937 835,863 770,784 769,783 710,716 594,584 L 774,223 C 774,196 753,168 711,139 L 727,119 C 717,90 699,76 672,76 641,76 570,178 457,381 L 164,-76 C 142,-110 111,-127 72,-127 30,-127 9,-110 8,-76 1,-67 -2,-52 -2,-32 -2,-23 -1,-13 0,-2 Z"/>
  </g>
  <g id="bullet-char-template-10004" transform="scale(0.00048828125,-0.00048828125)">
   <path d="M 285,-33 C 182,-33 111,30 74,156 52,228 41,333 41,471 41,549 55,616 82,672 116,743 169,778 240,778 293,778 328,747 346,684 L 369,508 C 377,444 397,411 428,410 L 1163,1116 C 1174,1127 1196,1133 1229,1133 1271,1133 1292,1118 1292,1087 L 1292,965 C 1292,929 1282,901 1262,881 L 442,47 C 390,-6 338,-33 285,-33 Z"/>
  </g>
  <g id="bullet-char-template-9679" transform="scale(0.00048828125,-0.00048828125)">
   <path d="M 813,0 C 632,0 489,54 383,161 276,268 223,411 223,592 223,773 276,916 383,1023 489,1130 632,1184 813,1184 992,1184 1136,1130 1245,1023 1353,916 1407,772 1407,592 1407,412 1353,268 1245,161 1136,54 992,0 813,0 Z"/>
  </g>
  <g id="bullet-char-template-8226" transform="scale(0.00048828125,-0.00048828125)">
   <path d="M 346,457 C 273,457 209,483 155,535 101,586 74,649 74,723 74,796 101,859 155,911 209,963 273,989 346,989 419,989 480,963 531,910 582,859 608,796 608,723 608,648 583,586 532,535 482,483 420,457 346,457 Z"/>
  </g>
  <g id="bullet-char-template-8211" transform="scale(0.00048828125,-0.00048828125)">
   <path d="M -4,459 L 1135,459 1135,606 -4,606 -4,459 Z"/>
  </g>
  <g id="bullet-char-template-61548" transform="scale(0.00048828125,-0.00048828125)">
   <path d="M 173,740 C 173,903 231,1043 346,1159 462,1274 601,1332 765,1332 928,1332 1067,1274 1183,1159 1299,1043 1357,903 1357,740 1357,577 1299,437 1183,322 1067,206 928,148 765,148 601,148 462,206 346,322 231,437 173,577 173,740 Z"/>
  </g>
 </defs>
 <defs class="TextEmbeddedBitmaps"/>
 <g>
  <g id="id2" class="Master_Slide">
   <g id="bg-id2" class="Background"/>
   <g id="bo-id2" class="BackgroundObjects"/>
  </g>
 </g>
 <g class="SlideGroup">
  <g>
   <g id="container-id1">
    <g id="id1" class="Slide" clip-path="url(#presentation_clip_path)">
     <g class="Page">
      <g class="Graphic">
       <g id="id3">
        <rect class="BoundingBox" stroke="none" fill="none" x="0" y="0" width="4959" height="4959"/>
        <defs>
         <clipPath id="clip_path_1" clipPathUnits="userSpaceOnUse">
          <path d="M 0,0 L 4958,0 4958,4958 0,4958 0,0 Z"/>
         </clipPath>
        </defs>
        <g clip-path="url(#clip_path_1)">
         <path fill="rgb(128,193,190)" stroke="none" d="M 4958,4713 C 4958,4848 4848,4958 4713,4958 L 245,4958 C 110,4958 0,4848 0,4713 L 0,245 C 0,110 110,0 245,0 L 4713,0 C 4848,0 4958,110 4958,245 L 4958,4713 4958,4713 Z"/>
         <path fill="rgb(76,140,135)" stroke="none" d="M 4958,4713 L 4958,1869 4167,1523 586,4429 2196,4958 4713,4958 C 4848,4958 4958,4848 4958,4713 L 4958,4713 Z"/>
         <path fill="rgb(234,200,115)" stroke="none" d="M 2358,1523 L 1999,3835 3900,3835 4167,1523 2358,1523 Z"/>
         <path fill="rgb(229,188,97)" stroke="none" d="M 3900,3835 L 4372,3835 4167,1523 3900,3835 Z"/>
         <path fill="rgb(214,174,84)" stroke="none" d="M 3900,3835 L 4136,3557 4167,1523 3900,3835 Z"/>
         <path fill="rgb(234,200,115)" stroke="none" d="M 4372,3835 L 4136,3557 4167,1523 4372,3835 Z"/>
         <path fill="rgb(135,107,102)" stroke="none" d="M 3571,1601 L 3509,1594 C 3510,1587 3592,925 3376,679 3324,620 3260,591 3180,591 3101,591 3037,620 2984,679 2768,925 2851,1587 2851,1594 L 2790,1601 C 2787,1573 2704,905 2938,638 3002,566 3083,529 3180,529 3277,529 3359,566 3423,638 3657,905 3574,1573 3571,1601 L 3571,1601 Z"/>
         <path fill="rgb(135,107,102)" stroke="none" d="M 2827,1549 C 2778,1549 2739,1588 2739,1637 2739,1685 2778,1725 2827,1725 2875,1725 2915,1685 2915,1637 2915,1588 2875,1549 2827,1549 L 2827,1549 Z M 2827,1678 C 2804,1678 2785,1660 2785,1637 2785,1614 2804,1595 2827,1595 2850,1595 2868,1614 2868,1637 2868,1660 2850,1678 2827,1678 L 2827,1678 Z"/>
         <path fill="rgb(135,107,102)" stroke="none" d="M 3539,1549 C 3491,1549 3451,1588 3451,1637 3451,1685 3491,1725 3539,1725 3588,1725 3627,1685 3627,1637 3627,1588 3588,1549 3539,1549 L 3539,1549 Z M 3539,1678 C 3516,1678 3498,1660 3498,1637 3498,1614 3516,1595 3539,1595 3562,1595 3581,1614 3581,1637 3581,1660 3562,1678 3539,1678 L 3539,1678 Z"/>
         <path fill="rgb(239,128,103)" stroke="none" d="M 945,2117 L 586,4429 2487,4429 2754,2117 945,2117 Z"/>
         <path fill="rgb(239,128,103)" stroke="none" d="M 2487,4429 L 2959,4429 2754,2117 2487,4429 Z"/>
         <path fill="rgb(229,76,60)" stroke="none" d="M 2487,4429 L 2723,4152 2754,2117 2487,4429 Z"/>
         <path fill="rgb(234,109,89)" stroke="none" d="M 2959,4429 L 2723,4152 2754,2117 2959,4429 Z"/>
         <path fill="rgb(135,107,102)" stroke="none" d="M 2157,2196 L 2096,2188 C 2097,2181 2179,1519 1963,1273 1911,1214 1847,1185 1767,1185 1688,1185 1624,1214 1571,1273 1355,1519 1437,2181 1438,2188 L 1377,2196 C 1373,2167 1291,1499 1525,1233 1589,1160 1670,1123 1767,1123 1864,1123 1946,1160 2009,1233 2244,1499 2161,2167 2157,2196 L 2157,2196 Z"/>
         <path fill="rgb(135,107,102)" stroke="none" d="M 1414,2143 C 1365,2143 1326,2182 1326,2231 1326,2279 1365,2319 1414,2319 1462,2319 1501,2280 1501,2231 1501,2182 1462,2143 1414,2143 L 1414,2143 Z M 1414,2273 C 1390,2273 1372,2254 1372,2231 1372,2208 1390,2189 1414,2189 1436,2189 1455,2208 1455,2231 1455,2254 1436,2273 1414,2273 L 1414,2273 Z"/>
         <path fill="rgb(135,107,102)" stroke="none" d="M 2126,2143 C 2078,2143 2038,2182 2038,2231 2038,2279 2078,2319 2126,2319 2175,2319 2214,2280 2214,2231 2214,2182 2175,2143 2126,2143 L 2126,2143 Z M 2126,2273 C 2103,2273 2085,2254 2085,2231 2085,2208 2103,2189 2126,2189 2149,2189 2168,2208 2168,2231 2168,2254 2149,2273 2126,2273 L 2126,2273 Z"/>
        </g>
       </g>
      </g>
      <g class="Group">
       <g class="com.sun.star.drawing.PolyPolygonShape">
        <g id="id4">
         <rect class="BoundingBox" stroke="none" fill="none" x="2201" y="2801" width="1551" height="1303"/>
         <path fill="rgb(9,160,39)" stroke="none" d="M 3692,2817 L 3686,2813 3679,2810 3672,2808 3666,2806 3659,2804 3652,2803 3645,2802 3637,2802 3630,2802 3623,2803 3616,2804 3609,2806 3602,2808 3595,2810 3589,2813 3582,2817 3577,2820 3573,2823 3569,2826 3565,2829 3561,2832 3557,2836 3554,2840 3550,2844 2778,3819 2400,3366 2397,3362 2393,3358 2389,3354 2385,3350 2381,3347 2377,3343 2372,3340 2367,3337 2361,3333 2354,3330 2347,3328 2340,3326 2334,3324 2327,3323 2319,3323 2312,3323 2305,3323 2298,3323 2291,3324 2284,3326 2277,3328 2270,3330 2264,3333 2257,3337 2251,3341 2245,3345 2239,3349 2234,3354 2229,3359 2224,3365 2220,3370 2216,3377 2213,3383 2210,3390 2207,3396 2205,3403 2204,3410 2203,3417 2202,3424 2202,3431 2202,3438 2203,3445 2204,3452 2205,3459 2207,3466 2210,3472 2213,3479 2216,3485 2218,3487 2219,3490 2222,3494 2228,3501 2688,4062 2691,4066 2695,4070 2698,4073 2702,4077 2706,4080 2710,4083 2714,4085 2719,4088 2725,4092 2732,4095 2738,4097 2745,4099 2752,4100 2759,4102 2766,4102 2774,4102 2774,4102 2778,4102 2786,4102 2794,4101 2801,4100 2808,4099 2814,4097 2821,4095 2827,4092 2834,4088 2838,4085 2843,4082 2847,4079 2851,4076 2855,4072 2859,4069 2862,4065 2866,4061 3729,2978 3730,2977 3731,2976 3732,2975 3733,2973 3734,2972 3735,2970 3737,2967 3740,2961 3743,2954 3745,2948 3747,2941 3749,2935 3750,2928 3751,2921 3751,2913 3751,2906 3750,2899 3749,2892 3747,2885 3745,2879 3743,2872 3740,2866 3737,2859 3733,2854 3730,2849 3726,2845 3723,2841 3719,2837 3715,2833 3710,2829 3706,2826 3702,2823 3699,2821 3696,2819 3694,2818 3692,2817 Z"/>
        </g>
       </g>
       <g class="com.sun.star.drawing.PolyPolygonShape">
        <g id="id5">
         <rect class="BoundingBox" stroke="none" fill="none" x="3123" y="2801" width="1181" height="1302"/>
         <path fill="rgb(9,160,39)" stroke="none" d="M 4244,2817 L 4237,2813 4230,2810 4224,2808 4217,2806 4210,2804 4203,2803 4196,2802 4189,2802 4181,2802 4174,2803 4167,2804 4160,2806 4153,2808 4147,2810 4140,2813 4133,2817 4129,2820 4124,2823 4120,2826 4116,2829 4112,2832 4108,2836 4105,2840 4101,2844 3330,3819 3262,3737 3124,3913 3245,4061 3248,4065 3252,4069 3255,4072 3259,4075 3263,4078 3267,4081 3276,4087 3282,4091 3289,4093 3295,4096 3302,4098 3309,4099 3316,4100 3323,4101 3331,4101 3331,4101 3338,4101 3345,4100 3352,4099 3359,4098 3366,4096 3373,4093 3379,4091 3386,4087 3390,4084 3395,4081 3399,4078 3403,4075 3406,4071 3410,4068 3413,4064 3417,4060 4280,2977 4283,2972 4285,2969 4287,2966 4290,2960 4293,2954 4296,2947 4298,2941 4300,2934 4301,2927 4302,2920 4302,2912 4302,2905 4301,2898 4300,2891 4298,2884 4296,2877 4293,2871 4290,2865 4287,2858 4284,2853 4281,2849 4277,2845 4274,2841 4270,2837 4266,2833 4262,2829 4257,2826 4254,2823 4250,2821 4247,2819 4245,2818 4244,2817 Z"/>
        </g>
       </g>
       <g class="com.sun.star.drawing.PolyPolygonShape">
        <g id="id6">
         <rect class="BoundingBox" stroke="none" fill="none" x="2755" y="3321" width="222" height="248"/>
         <path fill="rgb(9,160,39)" stroke="none" d="M 2834,3567 L 2976,3392 2954,3366 2954,3366 2950,3361 2946,3357 2942,3353 2938,3349 2934,3345 2930,3342 2925,3339 2920,3336 2913,3332 2906,3329 2900,3327 2893,3325 2886,3323 2879,3322 2872,3322 2864,3322 2857,3322 2850,3322 2843,3323 2836,3325 2829,3327 2823,3329 2816,3332 2809,3336 2806,3337 2803,3340 2799,3342 2796,3344 2796,3344 2792,3348 2788,3351 2785,3354 2781,3358 2778,3362 2775,3366 2772,3370 2770,3375 2766,3381 2763,3388 2761,3394 2759,3401 2757,3408 2756,3414 2755,3421 2755,3429 2756,3436 2756,3443 2757,3450 2759,3457 2761,3463 2763,3470 2766,3476 2770,3483 2772,3487 2774,3490 2775,3492 2777,3494 2778,3495 2780,3497 2834,3567 Z"/>
        </g>
       </g>
      </g>
     </g>
    </g>
   </g>
  </g>
 </g>
</svg>