<?xml version="1.0" encoding="UTF-8"?>
<!DOCTYPE svg PUBLIC "-//W3C//DTD SVG 1.1//EN" "http://www.w3.org/Graphics/SVG/1.1/DTD/svg11.dtd">
<svg version="1.2" width="180.7mm" height="180.7mm" viewBox="0 0 18070 18070" preserveAspectRatio="xMidYMid" fill-rule="evenodd" stroke-width="28.222" stroke-linejoin="round" xmlns="http://www.w3.org/2000/svg" xmlns:ooo="http://xml.openoffice.org/svg/export" xmlns:xlink="http://www.w3.org/1999/xlink" xmlns:presentation="http://sun.com/xmlns/staroffice/presentation" xmlns:smil="http://www.w3.org/2001/SMIL20/" xmlns:anim="urn:oasis:names:tc:opendocument:xmlns:animation:1.0" xml:space="preserve">
 <defs class="ClipPathGroup">
  <clipPath id="presentation_clip_path" clipPathUnits="userSpaceOnUse">
   <rect x="0" y="0" width="18070" height="18070"/>
  </clipPath>
  <clipPath id="presentation_clip_path_shrink" clipPathUnits="userSpaceOnUse">
   <rect x="18" y="18" width="18034" height="18034"/>
  </clipPath>
 </defs>
 <defs class="TextShapeIndex">
  <g ooo:slide="id1" ooo:id-list="id3 id4 id5 id6"/>
 </defs>
 <defs class="EmbeddedBulletChars">
  <g id="bullet-char-template-57356" transform="scale(0.00048828125,-0.00048828125)">
   <path d="M 580,1141 L 1163,571 580,0 -4,571 580,1141 Z"/>
  </g>
  <g id="bullet-char-template-57354" transform="scale(0.00048828125,-0.00048828125)">
   <path d="M 8,1128 L 1137,1128 1137,0 8,0 8,1128 Z"/>
  </g>
  <g id="bullet-char-template-10146" transform="scale(0.00048828125,-0.00048828125)">
   <path d="M 174,0 L 602,739 174,1481 1456,739 174,0 Z M 1358,739 L 309,1346 659,739 1358,739 Z"/>
  </g>
  <g id="bullet-char-template-10132" transform="scale(0.00048828125,-0.00048828125)">
   <path d="M 2015,739 L 1276,0 717,0 1260,543 174,543 174,936 1260,936 717,1481 1274,1481 2015,739 Z"/>
  </g>
  <g id="bullet-char-template-10007" transform="scale(0.00048828125,-0.00048828125)">
   <path d="M 0,-2 C -7,14 -16,27 -25,37 L 356,567 C 262,823 215,952 215,954 215,979 228,992 255,992 264,992 276,990 289,987 310,991 331,999 354,1012 L 381,999 492,748 772,1049 836,1024 860,1049 C 881,1039 901,1025 922,1006 886,937 835,863 770,784 769,783 710,716 594,584 L 774,223 C 774,196 753,168 711,139 L 727,119 C 717,90 699,76 672,76 641,76 570,178 457,381 L 164,-76 C 142,-110 111,-127 72,-127 30,-127 9,-110 8,-76 1,-67 -2,-52 -2,-32 -2,-23 -1,-13 0,-2 Z"/>
  </g>
  <g id="bullet-char-template-10004" transform="scale(0.00048828125,-0.00048828125)">
   <path d="M 285,-33 C 182,-33 111,30 74,156 52,228 41,333 41,471 41,549 55,616 82,672 116,743 169,778 240,778 293,778 328,747 346,684 L 369,508 C 377,444 397,411 428,410 L 1163,1116 C 1174,1127 1196,1133 1229,1133 1271,1133 1292,1118 1292,1087 L 1292,965 C 1292,929 1282,901 1262,881 L 442,47 C 390,-6 338,-33 285,-33 Z"/>
  </g>
  <g id="bullet-char-template-9679" transform="scale(0.00048828125,-0.00048828125)">
   <path d="M 813,0 C 632,0 489,54 383,161 276,268 223,411 223,592 223,773 276,916 383,1023 489,1130 632,1184 813,1184 992,1184 1136,1130 1245,1023 1353,916 1407,772 1407,592 1407,412 1353,268 1245,161 1136,54 992,0 813,0 Z"/>
  </g>
  <g id="bullet-char-template-8226" transform="scale(0.00048828125,-0.00048828125)">
   <path d="M 346,457 C 273,457 209,483 155,535 101,586 74,649 74,723 74,796 101,859 155,911 209,963 273,989 346,989 419,989 480,963 531,910 582,859 608,796 608,723 608,648 583,586 532,535 482,483 420,457 346,457 Z"/>
  </g>
  <g id="bullet-char-template-8211" transform="scale(0.00048828125,-0.00048828125)">
   <path d="M -4,459 L 1135,459 1135,606 -4,606 -4,459 Z"/>
  </g>
  <g id="bullet-char-template-61548" transform="scale(0.00048828125,-0.00048828125)">
   <path d="M 173,740 C 173,903 231,1043 346,1159 462,1274 601,1332 765,1332 928,1332 1067,1274 1183,1159 1299,1043 1357,903 1357,740 1357,577 1299,437 1183,322 1067,206 928,148 765,148 601,148 462,206 346,322 231,437 173,577 173,740 Z"/>
  </g>
 </defs>
 <defs class="TextEmbeddedBitmaps"/>
 <g>
  <g id="id2" class="Master_Slide">
   <g id="bg-id2" class="Background"/>
   <g id="bo-id2" class="BackgroundObjects"/>
  </g>
 </g>
 <g class="SlideGroup">
  <g>
   <g id="container-id1">
    <g id="id1" class="Slide" clip-path="url(#presentation_clip_path)">
     <g class="Page">
      <g class="com.sun.star.drawing.CustomShape">
       <g id="id3">
        <rect class="BoundingBox" stroke="none" fill="none" x="5490" y="9690" width="11101" height="6601"/>
        <path fill="rgb(225,97,115)" stroke="none" d="M 11040,16290 L 5490,16290 5490,9690 16590,9690 16590,16290 11040,16290 Z"/>
       </g>
      </g>
      <g class="Graphic">
       <g id="id4">
        <rect class="BoundingBox" stroke="none" fill="none" x="4690" y="5890" width="12601" height="12601"/>
        <defs>
         <clipPath id="clip_path_1" clipPathUnits="userSpaceOnUse">
          <path d="M 4690,5890 L 17290,5890 17290,18490 4690,18490 4690,5890 Z"/>
         </clipPath>
        </defs>
        <g clip-path="url(#clip_path_1)">
         <path fill="rgb(184,127,217)" stroke="none" d="M 16717,7035 L 5263,7035 C 4946,7035 4690,7292 4690,7608 L 4690,9899 4690,12190 4690,14481 4690,16772 C 4690,17088 4946,17345 5263,17345 L 9081,17345 12899,17345 16717,17345 C 17034,17345 17290,17088 17290,16772 L 17290,14481 17290,12190 17290,9899 17290,7608 C 17290,7292 17034,7035 16717,7035 Z M 5835,16199 L 5835,15054 8508,15054 8508,16199 5835,16199 Z M 5835,13908 L 5835,12763 8508,12763 8508,13908 5835,13908 Z M 5835,11617 L 5835,10472 8508,10472 8508,11617 5835,11617 Z M 12326,16199 L 9654,16199 9654,15054 12326,15054 12326,16199 Z M 12326,13908 L 9654,13908 9654,12763 12326,12763 12326,13908 Z M 12326,11617 L 9654,11617 9654,10472 12326,10472 12326,11617 Z M 13472,16199 L 13472,15054 16145,15054 16145,16199 13472,16199 Z M 13472,13908 L 13472,12763 16145,12763 16145,13908 13472,13908 Z M 13472,11617 L 13472,10472 16145,10472 16145,11617 13472,11617 Z"/>
         <path fill="rgb(110,118,229)" stroke="none" d="M 16717,7035 L 5263,7035 C 4946,7035 4690,7292 4690,7608 L 4690,9899 C 4690,10215 4946,10472 5263,10472 L 5835,10472 8508,10472 9654,10472 12326,10472 13472,10472 16145,10472 16717,10472 C 17034,10472 17290,10215 17290,9899 L 17290,7608 C 17290,7292 17034,7035 16717,7035 L 16717,7035 Z"/>
         <path fill="rgb(66,78,222)" stroke="none" d="M 5263,7035 C 4946,7035 4690,7292 4690,7608 L 4690,9899 C 4690,10215 4946,10472 5263,10472 L 5835,10472 8508,10472 9654,10472 10990,10472 10990,7035 5263,7035 5263,7035 Z"/>
         <path fill="rgb(147,62,197)" stroke="none" d="M 9654,16199 L 9654,15054 10990,15054 10990,13908 9654,13908 9654,12763 10990,12763 10990,11617 9654,11617 9654,10472 8508,10472 8508,11617 5835,11617 5835,10472 5263,10472 C 4946,10472 4690,10215 4690,9899 L 4690,12190 4690,14481 4690,16772 C 4690,17088 4946,17345 5263,17345 L 9081,17345 10990,17345 10990,16199 9654,16199 9654,16199 Z M 5835,16199 L 5835,15054 8508,15054 8508,16199 5835,16199 Z M 5835,13908 L 5835,12763 8508,12763 8508,13908 5835,13908 Z"/>
        </g>
       </g>
      </g>
      <g class="Graphic">
       <g id="id5">
        <rect class="BoundingBox" stroke="none" fill="none" x="590" y="-10" width="13901" height="13901"/>
        <path fill="rgb(155,251,255)" stroke="none" d="M 3323,11521 L 1825,11521 1825,9686 4822,9686 4822,11521 3323,11521 Z"/>
        <path fill="rgb(155,251,255)" stroke="none" d="M 6791,5413 L 6041,5413 6041,3578 7540,3578 7540,5413 6791,5413 Z"/>
        <path fill="rgb(155,251,255)" stroke="none" d="M 6791,11521 L 6041,11521 6041,9686 7540,9686 7540,11521 6791,11521 Z"/>
        <path fill="rgb(155,251,255)" stroke="none" d="M 3323,5413 L 1825,5413 1825,3578 4822,3578 4822,5413 3323,5413 Z"/>
        <path fill="rgb(155,251,255)" stroke="none" d="M 3323,8467 L 1825,8467 1825,6632 4822,6632 4822,8467 3323,8467 Z"/>
        <path fill="rgb(155,251,255)" stroke="none" d="M 6791,8467 L 6041,8467 6041,6632 7540,6632 7540,8467 6791,8467 Z"/>
        <path fill="rgb(70,248,255)" stroke="none" d="M 11757,8467 L 10258,8467 10258,6632 13255,6632 13255,8467 11757,8467 Z"/>
        <path fill="rgb(70,248,255)" stroke="none" d="M 8289,5413 L 7540,5413 7540,3578 9039,3578 9039,5413 8289,5413 Z"/>
        <path fill="rgb(70,248,255)" stroke="none" d="M 11757,5413 L 10258,5413 10258,3578 13255,3578 13255,5413 11757,5413 Z"/>
        <path fill="rgb(70,248,255)" stroke="none" d="M 11757,11521 L 10258,11521 10258,9686 13255,9686 13255,11521 11757,11521 Z"/>
        <path fill="rgb(70,248,255)" stroke="none" d="M 8289,8467 L 7540,8467 7540,6632 9039,6632 9039,8467 8289,8467 Z"/>
        <path fill="rgb(70,248,255)" stroke="none" d="M 8289,11521 L 7540,11521 7540,9686 9039,9686 9039,11521 8289,11521 Z"/>
        <path fill="rgb(36,136,255)" stroke="none" d="M 13255,5413 L 10258,5413 10258,3578 9039,3578 9039,5413 6041,5413 6041,3578 4822,3578 4822,5413 1825,5413 1825,3578 605,3578 605,12740 14475,12740 14475,3578 13255,3578 13255,5413 Z M 1825,9686 L 4822,9686 4822,11521 1825,11521 1825,9686 Z M 9039,9686 L 9039,11521 6041,11521 6041,9686 9039,9686 Z M 13255,9686 L 13255,11521 10258,11521 10258,9686 13255,9686 Z M 13255,8467 L 10258,8467 10258,6632 13255,6632 13255,8467 Z M 9039,8467 L 6041,8467 6041,6632 9039,6632 9039,8467 Z M 4822,8467 L 1825,8467 1825,6632 4822,6632 4822,8467 Z"/>
        <path fill="rgb(0,94,206)" stroke="none" d="M 4073,3578 L 605,3578 605,1140 7540,1140 7540,3578 4073,3578 Z"/>
        <path fill="rgb(0,63,138)" stroke="none" d="M 11007,3578 L 7540,3578 7540,1140 14475,1140 14475,3578 11007,3578 Z"/>
       </g>
      </g>
      <g class="Graphic">
       <g id="id6">
        <rect class="BoundingBox" stroke="none" fill="none" x="890" y="2990" width="13101" height="13101"/>
        <defs>
         <clipPath id="clip_path_2" clipPathUnits="userSpaceOnUse">
          <path d="M 890,2990 L 13990,2990 13990,16090 890,16090 890,2990 Z"/>
         </clipPath>
        </defs>
        <g clip-path="url(#clip_path_2)">
         <path fill="rgb(244,238,203)" stroke="none" d="M 12851,9331 L 2029,9331 C 1400,9331 890,8821 890,8192 L 890,6914 C 890,6285 1400,5775 2029,5775 L 12851,5775 C 13480,5775 13990,6285 13990,6914 L 13990,8192 C 13990,8821 13480,9331 12851,9331 L 12851,9331 Z"/>
         <path fill="rgb(226,220,188)" stroke="none" d="M 12851,5775 L 2029,5775 C 1400,5775 890,6284 890,6913 L 890,8193 C 890,8822 1400,9331 2029,9331 L 12851,9331 C 13480,9331 13990,8822 13990,8193 L 13990,6913 C 13990,6284 13480,5775 12851,5775 L 12851,5775 Z M 13563,8193 C 13563,8585 13243,8904 12851,8904 L 2029,8904 C 1637,8904 1317,8585 1317,8193 L 1317,6913 C 1317,6521 1637,6202 2029,6202 L 12851,6202 C 13243,6202 13563,6521 13563,6913 L 13563,8193 13563,8193 Z"/>
         <path fill="rgb(191,187,163)" stroke="none" d="M 2528,7539 L 2528,7567 C 2528,7685 2432,7781 2314,7781 2196,7781 2100,7685 2100,7567 L 2100,7539 C 2100,7421 2196,7325 2314,7325 2432,7325 2528,7421 2528,7539 L 2528,7539 Z M 3168,7325 C 3050,7325 2955,7421 2955,7539 L 2955,7567 C 2955,7685 3050,7781 3168,7781 3286,7781 3382,7685 3382,7567 L 3382,7539 C 3382,7421 3286,7325 3168,7325 L 3168,7325 Z M 4023,7325 C 3905,7325 3809,7421 3809,7539 L 3809,7567 C 3809,7685 3905,7781 4023,7781 4141,7781 4236,7685 4236,7567 L 4236,7539 C 4236,7421 4141,7325 4023,7325 L 4023,7325 Z"/>
         <path fill="rgb(132,167,183)" stroke="none" d="M 13823,12107 L 12212,10498 C 11990,10275 11629,10275 11407,10498 L 10764,9856 C 11551,8694 11430,7101 10400,6072 9232,4905 7339,4905 6171,6072 5003,7239 5003,9130 6171,10296 7201,11325 8796,11447 9959,10660 L 9959,10660 10601,11302 C 10379,11525 10379,11885 10601,12107 L 12212,13716 C 12435,13939 12795,13939 13018,13716 L 13823,12912 C 14046,12689 14046,12329 13823,12107 L 13823,12107 Z"/>
         <path fill="rgb(37,98,119)" stroke="none" d="M 10764,9856 L 11407,10498 10601,11302 9959,10660 C 10114,10555 10262,10434 10400,10296 10538,10159 10659,10011 10764,9856 L 10764,9856 Z"/>
         <path fill="rgb(195,228,237)" stroke="none" d="M 10279,8184 C 10279,9284 9386,10176 8285,10176 7184,10176 6292,9284 6292,8184 6292,7084 7184,6193 8285,6193 9386,6193 10279,7084 10279,8184 L 10279,8184 Z"/>
         <path fill="rgb(220,243,249)" stroke="none" d="M 10163,7515 L 7616,10060 C 7243,9927 6922,9687 6689,9377 L 9479,6589 C 9790,6822 10030,7143 10163,7515 L 10163,7515 Z M 8955,6308 L 6408,8853 C 6441,8947 6481,9037 6527,9123 L 9225,6428 C 9139,6382 9049,6342 8955,6308 L 8955,6308 Z"/>
         <path fill="rgb(255,255,255)" stroke="none" d="M 8294,6695 C 8609,6695 8864,6950 8864,7264 8864,7578 8609,7833 8294,7833 7980,7833 7725,7578 7725,7264 7725,6950 7980,6695 8294,6695 L 8294,6695 Z"/>
        </g>
       </g>
      </g>
     </g>
    </g>
   </g>
  </g>
 </g>
</svg>