<?xml version="1.0" encoding="UTF-8"?>
<!DOCTYPE svg PUBLIC "-//W3C//DTD SVG 1.1//EN" "http://www.w3.org/Graphics/SVG/1.1/DTD/svg11.dtd">
<svg version="1.2" width="15.08mm" height="15.08mm" viewBox="0 0 1508 1508" preserveAspectRatio="xMidYMid" fill-rule="evenodd" stroke-width="28.222" stroke-linejoin="round" xmlns="http://www.w3.org/2000/svg" xmlns:ooo="http://xml.openoffice.org/svg/export" xmlns:xlink="http://www.w3.org/1999/xlink" xmlns:presentation="http://sun.com/xmlns/staroffice/presentation" xmlns:smil="http://www.w3.org/2001/SMIL20/" xmlns:anim="urn:oasis:names:tc:opendocument:xmlns:animation:1.0" xml:space="preserve">
 <defs class="ClipPathGroup">
  <clipPath id="presentation_clip_path" clipPathUnits="userSpaceOnUse">
   <rect x="0" y="0" width="1508" height="1508"/>
  </clipPath>
  <clipPath id="presentation_clip_path_shrink" clipPathUnits="userSpaceOnUse">
   <rect x="1" y="1" width="1505" height="1505"/>
  </clipPath>
 </defs>
 <defs class="TextShapeIndex">
  <g ooo:slide="id1" ooo:id-list="id3 id4 id5 id6 id7 id8 id9 id10"/>
 </defs>
 <defs class="EmbeddedBulletChars">
  <g id="bullet-char-template-57356" transform="scale(0.00048828125,-0.00048828125)">
   <path d="M 580,1141 L 1163,571 580,0 -4,571 580,1141 Z"/>
  </g>
  <g id="bullet-char-template-57354" transform="scale(0.00048828125,-0.00048828125)">
   <path d="M 8,1128 L 1137,1128 1137,0 8,0 8,1128 Z"/>
  </g>
  <g id="bullet-char-template-10146" transform="scale(0.00048828125,-0.00048828125)">
   <path d="M 174,0 L 602,739 174,1481 1456,739 174,0 Z M 1358,739 L 309,1346 659,739 1358,739 Z"/>
  </g>
  <g id="bullet-char-template-10132" transform="scale(0.00048828125,-0.00048828125)">
   <path d="M 2015,739 L 1276,0 717,0 1260,543 174,543 174,936 1260,936 717,1481 1274,1481 2015,739 Z"/>
  </g>
  <g id="bullet-char-template-10007" transform="scale(0.00048828125,-0.00048828125)">
   <path d="M 0,-2 C -7,14 -16,27 -25,37 L 356,567 C 262,823 215,952 215,954 215,979 228,992 255,992 264,992 276,990 289,987 310,991 331,999 354,1012 L 381,999 492,748 772,1049 836,1024 860,1049 C 881,1039 901,1025 922,1006 886,937 835,863 770,784 769,783 710,716 594,584 L 774,223 C 774,196 753,168 711,139 L 727,119 C 717,90 699,76 672,76 641,76 570,178 457,381 L 164,-76 C 142,-110 111,-127 72,-127 30,-127 9,-110 8,-76 1,-67 -2,-52 -2,-32 -2,-23 -1,-13 0,-2 Z"/>
  </g>
  <g id="bullet-char-template-10004" transform="scale(0.00048828125,-0.00048828125)">
   <path d="M 285,-33 C 182,-33 111,30 74,156 52,228 41,333 41,471 41,549 55,616 82,672 116,743 169,778 240,778 293,778 328,747 346,684 L 369,508 C 377,444 397,411 428,410 L 1163,1116 C 1174,1127 1196,1133 1229,1133 1271,1133 1292,1118 1292,1087 L 1292,965 C 1292,929 1282,901 1262,881 L 442,47 C 390,-6 338,-33 285,-33 Z"/>
  </g>
  <g id="bullet-char-template-9679" transform="scale(0.00048828125,-0.00048828125)">
   <path d="M 813,0 C 632,0 489,54 383,161 276,268 223,411 223,592 223,773 276,916 383,1023 489,1130 632,1184 813,1184 992,1184 1136,1130 1245,1023 1353,916 1407,772 1407,592 1407,412 1353,268 1245,161 1136,54 992,0 813,0 Z"/>
  </g>
  <g id="bullet-char-template-8226" transform="scale(0.00048828125,-0.00048828125)">
   <path d="M 346,457 C 273,457 209,483 155,535 101,586 74,649 74,723 74,796 101,859 155,911 209,963 273,989 346,989 419,989 480,963 531,910 582,859 608,796 608,723 608,648 583,586 532,535 482,483 420,457 346,457 Z"/>
  </g>
  <g id="bullet-char-template-8211" transform="scale(0.00048828125,-0.00048828125)">
   <path d="M -4,459 L 1135,459 1135,606 -4,606 -4,459 Z"/>
  </g>
  <g id="bullet-char-template-61548" transform="scale(0.00048828125,-0.00048828125)">
   <path d="M 173,740 C 173,903 231,1043 346,1159 462,1274 601,1332 765,1332 928,1332 1067,1274 1183,1159 1299,1043 1357,903 1357,740 1357,577 1299,437 1183,322 1067,206 928,148 765,148 601,148 462,206 346,322 231,437 173,577 173,740 Z"/>
  </g>
 </defs>
 <defs class="TextEmbeddedBitmaps"/>
 <g>
  <g id="id2" class="Master_Slide">
   <g id="bg-id2" class="Background"/>
   <g id="bo-id2" class="BackgroundObjects"/>
  </g>
 </g>
 <g class="SlideGroup">
  <g>
   <g id="container-id1">
    <g id="id1" class="Slide" clip-path="url(#presentation_clip_path)">
     <g class="Page">
      <g class="Group">
       <g class="com.sun.star.drawing.PolyPolygonShape">
        <g id="id3">
         <rect class="BoundingBox" stroke="none" fill="none" x="184" y="12" width="1139" height="1483"/>
         <path fill="rgb(233,233,224)" stroke="none" d="M 990,13 L 224,13 220,13 216,14 212,15 208,16 205,18 202,20 199,23 196,26 194,30 191,33 189,38 188,42 187,47 186,52 185,58 185,64 185,1466 185,1467 185,1468 186,1470 187,1472 188,1474 189,1476 191,1479 194,1481 196,1483 199,1485 202,1487 205,1489 208,1490 212,1491 216,1492 220,1493 224,1493 1282,1493 1286,1493 1290,1492 1294,1491 1298,1490 1301,1489 1304,1487 1307,1485 1310,1483 1312,1481 1315,1479 1317,1476 1318,1474 1319,1472 1320,1470 1321,1468 1321,1467 1321,1466 1321,356 1321,350 1321,344 1320,340 1319,337 1319,335 1318,334 1318,332 1317,331 1316,330 1316,329 1315,329 1314,328 1006,20 1005,19 1003,17 1001,16 999,15 997,14 996,14 995,14 994,13 993,13 991,13 990,13 Z"/>
        </g>
       </g>
       <g class="com.sun.star.drawing.PolyPolygonShape">
        <g id="id4">
         <rect class="BoundingBox" stroke="none" fill="none" x="1004" y="16" width="315" height="315"/>
         <path fill="rgb(217,215,202)" stroke="none" d="M 1004,17 L 1004,330 1317,330 1004,17 Z"/>
        </g>
       </g>
       <g class="com.sun.star.drawing.PolyPolygonShape">
        <g id="id5">
         <rect class="BoundingBox" stroke="none" fill="none" x="184" y="1043" width="1139" height="452"/>
         <path fill="rgb(201,33,30)" stroke="none" d="M 1282,1493 L 224,1493 220,1493 216,1492 212,1491 208,1490 205,1488 202,1486 199,1484 196,1481 194,1479 191,1476 189,1472 188,1469 187,1465 186,1462 185,1458 185,1454 185,1043 1321,1043 1321,1454 1321,1458 1320,1462 1319,1465 1318,1469 1317,1472 1315,1476 1312,1479 1310,1481 1307,1484 1304,1486 1301,1488 1298,1490 1294,1491 1290,1492 1286,1493 1282,1493 Z"/>
        </g>
       </g>
       <g class="com.sun.star.drawing.PolyPolygonShape">
        <g id="id6">
         <rect class="BoundingBox" stroke="none" fill="none" x="503" y="1147" width="179" height="268"/>
         <path fill="rgb(255,255,255)" stroke="none" d="M 681,1147 L 681,1182 554,1373 547,1378 681,1378 681,1413 504,1413 504,1378 631,1188 639,1182 504,1182 504,1147 681,1147 Z"/>
        </g>
       </g>
       <g class="com.sun.star.drawing.PolyPolygonShape">
        <g id="id7">
         <rect class="BoundingBox" stroke="none" fill="none" x="742" y="1147" width="46" height="268"/>
         <path fill="rgb(255,255,255)" stroke="none" d="M 786,1413 L 743,1413 743,1147 786,1147 786,1413 Z"/>
        </g>
       </g>
       <g class="com.sun.star.drawing.PolyPolygonShape">
        <g id="id8">
         <rect class="BoundingBox" stroke="none" fill="none" x="852" y="1147" width="172" height="268"/>
         <path fill="rgb(255,255,255)" stroke="none" d="M 852,1413 L 852,1147 929,1147 934,1147 938,1148 942,1148 946,1149 954,1150 962,1152 967,1154 971,1156 975,1158 978,1160 982,1162 986,1164 992,1169 996,1172 999,1175 1002,1178 1005,1181 1007,1184 1010,1188 1012,1192 1014,1195 1016,1199 1018,1203 1019,1207 1020,1211 1021,1216 1022,1220 1022,1225 1022,1229 1022,1234 1022,1239 1021,1244 1020,1249 1019,1253 1018,1258 1017,1262 1015,1266 1013,1270 1011,1274 1009,1278 1007,1281 1005,1285 1002,1288 999,1291 996,1294 993,1297 990,1299 986,1302 983,1304 979,1306 975,1308 971,1310 966,1311 962,1313 958,1314 953,1315 948,1316 944,1316 939,1317 934,1317 928,1317 896,1317 896,1413 852,1413 Z M 896,1286 L 935,1286 938,1286 940,1286 942,1286 944,1285 946,1285 948,1284 949,1284 951,1283 953,1282 955,1281 957,1280 959,1279 960,1278 962,1277 964,1276 965,1274 967,1273 969,1271 970,1269 971,1267 973,1265 974,1262 975,1260 976,1257 977,1254 978,1251 979,1248 979,1244 980,1241 980,1237 980,1229 980,1228 980,1226 980,1222 978,1214 978,1212 977,1210 976,1208 976,1206 975,1204 974,1202 971,1198 970,1196 968,1195 966,1193 964,1191 962,1190 960,1188 958,1187 955,1185 953,1184 950,1183 947,1182 943,1182 940,1181 936,1181 932,1180 928,1180 896,1180 896,1286 Z"/>
        </g>
       </g>
       <g class="com.sun.star.drawing.PolyPolygonShape">
        <g id="id9">
         <rect class="BoundingBox" stroke="none" fill="none" x="607" y="171" width="266" height="742"/>
         <path fill="rgb(200,189,184)" stroke="none" d="M 766,648 L 766,595 819,595 819,542 766,542 766,489 819,489 819,436 766,436 766,383 819,383 819,330 766,330 766,278 819,278 819,225 766,225 766,172 714,172 714,225 661,225 661,278 714,278 714,330 661,330 661,383 714,383 714,436 661,436 661,489 714,489 714,542 661,542 661,595 714,595 714,648 608,648 608,779 608,793 610,806 614,819 618,831 623,842 630,853 638,863 646,873 656,881 666,889 677,895 688,901 700,905 713,909 726,911 740,911 753,911 766,909 779,905 791,901 802,895 813,889 823,881 833,873 841,863 849,853 856,842 861,831 865,819 869,806 871,793 871,779 871,648 766,648 Z M 819,779 L 819,788 818,795 816,803 813,810 810,817 806,824 801,830 796,835 790,841 784,845 777,849 770,852 763,855 755,857 748,858 740,858 731,858 724,857 716,855 709,852 702,849 695,845 689,841 684,835 679,830 674,824 670,817 667,810 664,803 662,795 661,788 661,779 661,701 819,701 819,779 Z"/>
        </g>
       </g>
       <g class="com.sun.star.drawing.PolyPolygonShape">
        <g id="id10">
         <rect class="BoundingBox" stroke="none" fill="none" x="686" y="753" width="108" height="54"/>
         <path fill="rgb(200,189,184)" stroke="none" d="M 714,805 L 766,805 769,805 772,805 774,804 776,804 779,802 781,801 783,800 785,798 786,796 788,794 789,792 790,790 791,787 792,785 792,782 792,779 792,777 792,774 791,772 790,769 789,767 788,765 786,763 785,761 783,759 781,758 779,757 776,755 774,755 772,754 769,754 766,754 714,754 711,754 708,754 705,755 703,755 701,757 698,758 696,759 694,761 693,763 691,765 690,767 689,769 688,772 687,774 687,777 687,779 687,782 687,785 688,787 689,790 690,792 691,794 693,796 694,798 696,800 698,801 701,802 703,804 705,804 708,805 711,805 714,805 Z"/>
        </g>
       </g>
      </g>
     </g>
    </g>
   </g>
  </g>
 </g>
</svg>